<svg width="1440" height="1344" viewBox="0 0 1440 1344" fill="none" xmlns="http://www.w3.org/2000/svg">
<path d="M23.864 1333.2L35.0503 1343M23.864 1333.2H57.0134M23.864 1333.2L12.306 1323.08M23.864 1333.2H0.387451M35.0503 1343L30.98 1343L26.9515 1342.97L23.0072 1342.92L19.1865 1342.8L15.5315 1342.61L12.0811 1342.32L8.87659 1341.92L5.90222 1341.41L3.34985 1340.71L1.02612 1339.89L0.387451 1339.61V1333.2M35.0503 1343H67.6666M67.6666 1343H100.283M67.6666 1343L57.0134 1333.2M100.283 1343H132.9M100.283 1343L90.1628 1333.2M132.9 1343H165.517M132.9 1343L123.312 1333.2M165.517 1343H198.133M165.517 1343L156.461 1333.2M198.133 1343H230.75M198.133 1343L189.61 1333.2M230.75 1343H263.367M230.75 1343L222.76 1333.2M263.367 1343H295.983M263.367 1343L255.909 1333.2M295.983 1343H328.6M295.983 1343L289.059 1333.2M328.6 1343H361.217M328.6 1343L322.208 1333.2M361.217 1343H393.833M361.217 1343L355.357 1333.2M393.833 1343H426.45M393.833 1343L388.507 1333.2M426.45 1343H459.067M426.45 1343L425.266 1340.58L423.472 1336.91L421.656 1333.2M459.067 1343H491.683M459.067 1343L458.015 1340.58L454.806 1333.2M491.683 1343L524.3 1343M491.683 1343L487.955 1333.2M524.3 1343H556.917M524.3 1343L523.114 1339.36L521.912 1335.68L521.509 1334.44L521.104 1333.2M556.917 1343H589.533M556.917 1343L555.928 1339.36L555.596 1338.14L555.262 1336.91L554.253 1333.2M589.533 1343H622.15M589.533 1343L587.402 1333.2M622.15 1343L621.953 1341.79L621.756 1340.58L620.755 1334.44L620.552 1333.2M622.15 1343H654.766M654.766 1343H687.384M654.766 1343L653.701 1333.2M687.384 1343H720M687.384 1343L687.186 1339.36L686.851 1333.2M720 1343H752.616M720 1343V1333.2M752.616 1343H785.234M752.616 1343L752.814 1339.36L753.149 1333.2M785.234 1343H817.85M785.234 1343L786.299 1333.2M817.85 1343L818.047 1341.79L818.244 1340.58L819.245 1334.44L819.448 1333.2M817.85 1343H850.466M850.466 1343H883.084M850.466 1343L852.327 1334.44L852.598 1333.2M883.084 1343H915.7M883.084 1343L884.072 1339.36L884.404 1338.14L885.073 1335.68L885.409 1334.44L885.747 1333.2M915.7 1343H948.317M915.7 1343L916.886 1339.36L918.088 1335.68L918.491 1334.44L918.896 1333.2M948.317 1343H980.933M948.317 1343L952.045 1333.2M980.933 1343H1013.55M980.933 1343L981.985 1340.58L985.194 1333.2M1013.55 1343H1046.17M1013.55 1343L1018.34 1333.2M1046.17 1343H1078.78M1046.17 1343L1051.49 1333.2M1078.78 1343H1111.4M1078.78 1343L1084.64 1333.2M1111.4 1343H1144.02M1111.4 1343L1117.79 1333.2M1144.02 1343H1176.63M1144.02 1343L1150.94 1333.2M1176.63 1343H1209.25M1176.63 1343L1184.09 1333.2M1209.25 1343H1241.87M1209.25 1343L1217.24 1333.2M1241.87 1343H1274.48M1241.87 1343L1250.39 1333.2M1274.48 1343H1307.1M1274.48 1343L1283.54 1333.2M1307.1 1343H1339.72M1307.1 1343L1316.69 1333.2M1339.72 1343H1372.33M1339.72 1343L1349.84 1333.2M1372.33 1343H1404.95M1372.33 1343L1382.99 1333.2M1404.95 1343L1409.02 1343L1413.05 1342.97L1416.99 1342.92L1420.81 1342.8L1424.47 1342.61L1427.92 1342.32L1431.12 1341.92L1434.1 1341.41L1436.65 1340.71L1438.97 1339.89L1439.61 1339.61V1333.2M1404.95 1343L1416.14 1333.2M1349.84 1333.2H1316.69M1349.84 1333.2H1382.99M1349.84 1333.2L1360.29 1323.08M1316.69 1333.2L1326.6 1323.08M1316.69 1333.2H1283.54M1217.24 1333.2H1184.09M1217.24 1333.2H1250.39M1217.24 1333.2L1219.28 1330.7L1225.5 1323.08M1184.09 1333.2L1191.8 1323.08M1184.09 1333.2H1150.94M1084.64 1333.2H1051.49M1084.64 1333.2H1117.79M1084.64 1333.2L1086.14 1330.7L1086.89 1329.44L1090.7 1323.08M1051.49 1333.2L1052.17 1331.95L1052.85 1330.7L1057 1323.08M1051.49 1333.2H1018.34M952.045 1333.2L952.52 1331.95L955.898 1323.08M952.045 1333.2H918.896M952.045 1333.2H985.194M918.896 1333.2L919.711 1330.7L920.122 1329.44L920.533 1328.18L922.198 1323.08M918.896 1333.2H885.747M819.448 1333.2H786.299M819.448 1333.2H852.598M819.448 1333.2L821.099 1323.08M786.299 1333.2L786.434 1331.95L786.57 1330.7L786.707 1329.44L787.121 1325.64L787.399 1323.08M786.299 1333.2H753.149M686.851 1333.2H653.701M686.851 1333.2H720M686.851 1333.2L686.3 1323.08M653.701 1333.2L653.566 1331.95L653.43 1330.7L653.293 1329.44L652.601 1323.08M653.701 1333.2H620.552M554.253 1333.2H521.104M554.253 1333.2H587.402M554.253 1333.2L553.574 1330.7L552.198 1325.64L551.851 1324.36L551.501 1323.08M521.104 1333.2L520.289 1330.7L519.878 1329.44L519.466 1328.18L517.802 1323.08M521.104 1333.2L487.955 1333.2M421.656 1333.2H388.507M421.656 1333.2H454.806M421.656 1333.2L420.433 1330.7L419.817 1329.44L416.703 1323.08M388.507 1333.2L387.828 1331.95L387.148 1330.7L383.003 1323.08M388.507 1333.2H355.357M289.059 1333.2H255.909M289.059 1333.2H322.208M289.059 1333.2L287.292 1330.7L286.403 1329.44L281.904 1323.08M255.909 1333.2L248.204 1323.08M255.909 1333.2H222.76M156.461 1333.2H123.312M156.461 1333.2H189.61M156.461 1333.2L147.105 1323.08M123.312 1333.2L113.405 1323.08M123.312 1333.2H90.1628M1439.73 1241.55H1439.61M1406.36 1241.55L1393.71 1254.48M1406.36 1241.55L1419.5 1228.12M1406.36 1241.55H1368.23M1406.36 1241.55H1439.61M1393.71 1254.48H1431.14M1393.71 1254.48L1381.51 1266.95M1393.71 1254.48H1356.28M1431.14 1254.48L1418.26 1266.95M1431.14 1254.48H1439.61M1431.14 1254.48L1439.61 1246.28M1393.86 1290.58H1358.39M1393.86 1290.58L1382.29 1301.78M1393.86 1290.58H1429.32M1393.86 1290.58L1405.84 1278.97M1358.39 1290.58L1347.43 1301.78M1358.39 1290.58L1369.74 1278.97M1358.39 1290.58H1322.93M1382.29 1301.78H1347.43M1382.29 1301.78L1371.1 1312.61M1382.29 1301.78H1417.14M1347.43 1301.78H1312.57M1347.43 1301.78L1336.84 1312.61M1439.98 1037.39H1439.61M1409.21 1037.39L1392.89 1058.83M1409.21 1037.39L1426.34 1014.88M1409.21 1037.39H1359.98M1409.21 1037.39H1439.61M1392.89 1058.83L1377.32 1079.29M1392.89 1058.83H1344.83M1392.89 1058.83H1439.61M1424.28 1079.29H1377.32M1424.28 1079.29L1408.35 1098.81M1424.28 1079.29H1439.61M1424.28 1079.29L1439.61 1060.48M1393.13 1117.48H1348.26M1393.13 1117.48L1378.57 1135.34M1393.13 1117.48H1438.01M1393.13 1117.48L1408.35 1098.81M1348.26 1117.48L1334.67 1135.34M1348.26 1117.48L1362.46 1098.81M1348.26 1117.48H1303.38M1378.57 1135.34H1334.67M1378.57 1135.34H1422.48M1378.57 1135.34L1364.63 1152.44M1334.67 1135.34L1321.66 1152.44M1334.67 1135.34H1290.76M1338.44 1184.55H1297.21M1338.44 1184.55L1326.13 1199.65M1338.44 1184.55H1379.67M1338.44 1184.55L1351.27 1168.83M1297.21 1184.55L1285.72 1199.65M1297.21 1184.55L1309.18 1168.83M1297.21 1184.55H1255.98M1326.13 1199.65H1285.72M1326.13 1199.65H1366.54M1326.13 1199.65L1314.3 1214.16M1285.72 1199.65L1274.68 1214.16M1285.72 1199.65H1245.31M1291.97 1241.55H1253.84M1291.97 1241.55L1281.42 1254.48M1291.97 1241.55H1330.1M1291.97 1241.55L1302.92 1228.12M1253.84 1241.55L1243.99 1254.48M1253.84 1241.55L1264.06 1228.12M1253.84 1241.55H1215.71M1281.42 1254.48H1243.99M1281.42 1254.48H1318.85M1281.42 1254.48L1271.26 1266.95M1243.99 1254.48L1234.51 1266.95M1243.99 1254.48H1206.57M1251.99 1290.58H1216.53M1251.99 1290.58L1242.86 1301.78M1251.99 1290.58H1287.46M1251.99 1290.58L1261.45 1278.97M1216.53 1290.58L1208 1301.78M1216.53 1290.58L1225.36 1278.97M1216.53 1290.58H1181.06M1242.86 1301.78H1208M1242.86 1301.78L1234.03 1312.61M1242.86 1301.78H1277.71M1208 1301.78H1173.14M1208 1301.78L1199.76 1312.61M1414.39 665.602L1391.42 707.858M1414.39 665.602L1438.99 620.353M1414.39 665.602H1344.95M1414.39 665.602H1439.61M1391.42 707.858L1369.92 747.407M1391.42 707.858H1324.28M1391.42 707.858H1439.61M1391.89 819.367H1330.81M1391.89 819.367L1372.26 852.191M1391.89 819.367L1412.73 784.502M1391.89 819.367H1439.61M1330.81 819.367L1312.96 852.191M1330.81 819.367L1349.76 784.502M1330.81 819.367H1269.73M1372.26 852.191H1312.96M1372.26 852.191H1431.56M1372.26 852.191L1353.75 883.155M1312.96 852.191L1296.13 883.155M1312.96 852.191H1253.67M1319.7 940.091H1265.18M1319.7 940.091L1304.01 966.324M1319.7 940.091H1374.22M1319.7 940.091L1336.25 912.407M1265.18 940.091L1250.92 966.324M1265.18 940.091L1280.23 912.407M1265.18 940.091H1210.66M1304.01 966.324H1250.92M1304.01 966.324H1357.11M1304.01 966.324L1289.13 991.22M1250.92 966.324L1237.39 991.22M1250.92 966.324H1197.83M1261.52 1037.39H1212.29M1261.52 1037.39L1248.7 1058.83M1261.52 1037.39H1310.75M1261.52 1037.39L1274.98 1014.88M1212.29 1037.39L1200.64 1058.83M1212.29 1037.39L1224.53 1014.88M1212.29 1037.39H1163.06M1248.7 1058.83H1200.64M1248.7 1058.83H1296.76M1248.7 1058.83L1236.47 1079.29M1200.64 1058.83L1189.52 1079.29M1200.64 1058.83H1152.57M1213.63 1117.48H1168.76M1213.63 1117.48L1202.95 1135.34M1213.63 1117.48H1258.51M1213.63 1117.48L1224.79 1098.81M1168.76 1117.48L1159.05 1135.34M1168.76 1117.48L1178.9 1098.81M1168.76 1117.48H1123.88M1202.95 1135.34H1159.05M1202.95 1135.34H1246.86M1202.95 1135.34L1192.73 1152.44M1159.05 1135.34L1149.75 1152.44M1159.05 1135.34H1115.14M1173.52 1184.55H1132.3M1173.52 1184.55L1164.5 1199.65M1173.52 1184.55H1214.75M1173.52 1184.55L1182.93 1168.83M1132.3 1184.55L1131.25 1186.48L1124.09 1199.65M1132.3 1184.55L1140.84 1168.83M1132.3 1184.55H1091.07M1164.5 1199.65H1124.09M1164.5 1199.65H1204.9M1164.5 1199.65L1155.82 1214.16M1124.09 1199.65L1116.2 1214.16M1124.09 1199.65H1083.68M1139.44 1241.55H1101.31M1139.44 1241.55L1131.71 1254.48M1139.44 1241.55H1177.58M1139.44 1241.55L1147.48 1228.12M1101.31 1241.55L1094.28 1254.48M1101.31 1241.55L1104.02 1236.57L1108.61 1228.12M1101.31 1241.55H1063.18M1131.71 1254.48H1094.28M1131.71 1254.48H1169.14M1131.71 1254.48L1124.26 1266.95M1094.28 1254.48L1087.51 1266.95M1094.28 1254.48H1056.85M1110.13 1290.58H1074.66M1110.13 1290.58L1103.43 1301.78M1110.13 1290.58H1145.59M1110.13 1290.58L1117.07 1278.97M1074.66 1290.58L1070.07 1299.02L1069.32 1300.4L1068.57 1301.78M1074.66 1290.58L1080.97 1278.97M1074.66 1290.58H1039.2M1103.43 1301.78H1068.57M1103.43 1301.78L1096.96 1312.61M1103.43 1301.78H1138.29M1068.57 1301.78H1033.71M1068.57 1301.78L1062.69 1312.61M1389.23 184.255H1293.63M1389.23 184.255L1359.13 263.369M1389.23 184.255L1422.31 97.3188M1389.23 184.255L1439.61 184.253M1293.63 184.255L1267.82 263.369M1293.63 184.255L1321.98 97.3188M1293.63 184.255H1198.02M1359.13 263.369H1267.82M1359.13 263.369L1331.62 335.671M1359.13 263.369H1439.61M1267.82 263.369L1244.24 335.671M1267.82 263.369H1176.52M1283.13 463.083H1202.69M1283.13 463.083L1261.67 519.504M1283.13 463.083H1363.58M1283.13 463.083L1306.37 402.006M1202.69 463.083L1184.28 519.504M1202.69 463.083L1222.61 402.006M1202.69 463.083H1122.24M1261.67 519.504H1184.28M1261.67 519.504H1339.05M1261.67 519.504L1241.77 571.78M1184.28 519.504L1167.23 571.78M1184.28 519.504H1106.9M1206.07 665.602H1136.63M1206.07 665.602L1189.99 707.858M1206.07 665.602H1275.51M1206.07 665.602L1223.29 620.353M1136.63 665.602L1122.85 707.858M1136.63 665.602L1151.39 620.353M1136.63 665.602H1067.2M1189.99 707.858H1122.85M1189.99 707.858H1257.14M1189.99 707.858L1174.95 747.407M1122.85 707.858L1109.95 747.407M1122.85 707.858H1055.71M1147.57 819.367H1086.48M1147.57 819.367L1135.07 852.191M1147.57 819.367H1208.65M1147.57 819.367L1160.83 784.502M1086.48 819.367L1075.78 852.191M1086.48 819.367L1097.85 784.502M1086.48 819.367H1025.4M1135.07 852.191H1075.78M1135.07 852.191H1194.37M1135.07 852.191L1123.29 883.155M1075.78 852.191L1065.68 883.155M1075.78 852.191H1016.48M1101.63 940.091H1047.11M1101.63 940.091L1091.65 966.324M1101.63 940.091H1156.15M1101.63 940.091L1112.16 912.407M1047.11 940.091L1038.55 966.324M1047.11 940.091L1056.14 912.407M1047.11 940.091H992.591M1091.65 966.324H1038.55M1091.65 966.324H1144.74M1091.65 966.324L1082.17 991.22M1038.55 966.324L1030.43 991.22M1038.55 966.324H985.461M1064.6 1037.39H1015.38M1064.6 1037.39L1056.44 1058.83M1064.6 1037.39H1113.83M1064.6 1037.39L1073.17 1014.88M1015.38 1037.39L1008.38 1058.83M1015.38 1037.39L1022.72 1014.88M1015.38 1037.39H966.146M1056.44 1058.83H1008.38M1056.44 1058.83H1104.51M1056.44 1058.83L1048.66 1079.29M1008.38 1058.83L1001.71 1079.29M1008.38 1058.83H960.318M1034.13 1117.48H989.253M1034.13 1117.48L1027.33 1135.34M1034.13 1117.48H1079M1034.13 1117.48L1041.23 1098.81M989.253 1117.48L983.43 1135.34M989.253 1117.48L995.341 1098.81M989.253 1117.48H944.378M1027.33 1135.34H983.43M1027.33 1135.34H1071.24M1027.33 1135.34L1020.83 1152.44M983.43 1135.34L977.852 1152.44M983.43 1135.34H939.524M1008.61 1184.55H967.376M1008.61 1184.55L1002.86 1199.65M1008.61 1184.55H1049.84M1008.61 1184.55L1014.59 1168.83M967.376 1184.55L968.007 1182.62L972.506 1168.83M967.376 1184.55L962.452 1199.65M967.376 1184.55H926.147M1002.86 1199.65H962.452M1002.86 1199.65H1043.27M1002.86 1199.65L997.339 1214.16M962.452 1199.65L957.719 1214.16M962.452 1199.65H922.043M986.919 1241.55H948.788M986.919 1241.55L981.997 1254.48M986.919 1241.55H1025.05M986.919 1241.55L992.029 1228.12M948.788 1241.55L944.569 1254.48M948.788 1241.55L950.411 1236.57L951.506 1233.22L953.168 1228.12M948.788 1241.55H910.657M981.997 1254.48H944.569M981.997 1254.48H1019.43M981.997 1254.48L977.254 1266.95M944.569 1254.48L943.027 1259.21L942.01 1262.33L940.503 1266.95M944.569 1254.48H907.141M968.263 1290.58H932.798M968.263 1290.58L965.052 1299.02L964 1301.78M968.263 1290.58H1003.73M968.263 1290.58L972.118 1280.45L972.678 1278.97M932.798 1290.58L930.044 1299.02L929.593 1300.4L929.143 1301.78M932.798 1290.58L934.673 1284.83L936.582 1278.97M932.798 1290.58H897.331M964 1301.78H929.143M964 1301.78L959.881 1312.61M964 1301.78H998.857M929.143 1301.78H894.286M929.143 1301.78L925.612 1312.61M1006.81 184.255H911.209M1006.81 184.255L993.912 263.369M1006.81 184.255H1102.42M1006.81 184.255L1020.99 97.3188M911.209 184.255L902.608 263.369M911.209 184.255L920.66 97.3188M911.209 184.255H815.604M993.912 263.369H902.608M993.912 263.369H1085.22M993.912 263.369L982.121 335.671M902.608 263.369L894.747 335.671M902.608 263.369H811.304M961.343 463.083H880.896M961.343 463.083L952.142 519.504M961.343 463.083L1041.79 463.083M961.343 463.083L971.304 402.006M880.896 463.083L874.762 519.504M880.896 463.083L887.535 402.006M880.896 463.083H800.447M952.142 519.504H874.762M952.142 519.504L1029.52 519.504M952.142 519.504L943.617 571.78M874.762 519.504L869.078 571.78M874.762 519.504H797.381M928.317 665.602H858.878M928.317 665.602L921.426 707.858M928.317 665.602L997.756 665.602M928.317 665.602L935.696 620.353M858.878 665.602L854.284 707.858M858.878 665.602L863.797 620.353M858.878 665.602H789.439M921.426 707.858H854.284M921.426 707.858L988.568 707.858M921.426 707.858L914.977 747.407M854.284 707.858L849.984 747.407M854.284 707.858H787.142M903.242 819.367H842.162M903.242 819.367L897.889 852.191M903.242 819.367H964.323M903.242 819.367L908.927 784.502M842.162 819.367L838.593 852.191M842.162 819.367L845.952 784.502M842.162 819.367H781.081M897.889 852.191H838.593M897.889 852.191H957.185M897.889 852.191L892.84 883.155M838.593 852.191L835.226 883.155M838.593 852.191H779.296M883.555 940.091H829.036M883.555 940.091L879.277 966.324M883.555 940.091H938.073M883.555 940.091L888.069 912.407M829.036 940.091L826.185 966.324M829.036 940.091L832.046 912.407M829.036 940.091H774.518M879.277 966.324H826.185M879.277 966.324H932.369M879.277 966.324L875.217 991.22M826.185 966.324L823.478 991.22M826.185 966.324H773.092M867.688 1037.39H818.459M867.688 1037.39L864.191 1058.83M867.688 1037.39H916.917M867.688 1037.39L871.358 1014.88M818.459 1037.39L816.127 1058.83M818.459 1037.39L820.906 1014.88M818.459 1037.39H769.229M864.191 1058.83H816.127M864.191 1058.83H912.254M864.191 1058.83L862.921 1066.62L860.855 1079.29M816.127 1058.83L813.903 1079.29M816.127 1058.83H768.063M854.627 1117.48H809.751M854.627 1117.48L851.714 1135.34M854.627 1117.48H899.503M854.627 1117.48L856.896 1103.56L857.671 1098.81M809.751 1117.48L809.013 1124.27L807.81 1135.34M809.751 1117.48L811.781 1098.81M809.751 1117.48H764.875M851.714 1135.34L851.36 1137.51L848.926 1152.44M851.714 1135.34H807.81M851.714 1135.34H895.62M807.81 1135.34L807.103 1141.84L806.871 1143.98L806.638 1146.11L805.951 1152.44M807.81 1135.34H763.905M843.689 1184.55H802.459M843.689 1184.55L842.445 1192.18L842.138 1194.06L841.833 1195.94L841.528 1197.8L841.226 1199.65M843.689 1184.55H884.918M843.689 1184.55L846.253 1168.83M802.459 1184.55L801.222 1195.94L801.019 1197.8L800.818 1199.65M802.459 1184.55L804.168 1168.83M802.459 1184.55H761.229M841.226 1199.65H800.818M841.226 1199.65H881.635M841.226 1199.65L839.736 1208.79L839.443 1210.59L838.86 1214.16M800.818 1199.65L799.824 1208.79L799.628 1210.59L799.434 1212.38L799.24 1214.16M800.818 1199.65H760.408M834.394 1241.55H796.262M834.394 1241.55L832.284 1254.48M834.394 1241.55H872.526M834.394 1241.55L834.934 1238.24L835.753 1233.22L836.584 1228.12M796.262 1241.55L796.442 1239.9L797.537 1229.83L797.723 1228.12M796.262 1241.55L794.856 1254.48M796.262 1241.55H758.131M832.284 1254.48H794.856M832.284 1254.48H869.712M832.284 1254.48L830.251 1266.95M794.856 1254.48L794.342 1259.21L794.172 1260.78L794.003 1262.33L793.501 1266.95M794.856 1254.48H757.428M826.398 1290.58H790.933M826.398 1290.58L825.022 1299.02L824.572 1301.78M826.398 1290.58H861.865M826.398 1290.58L827.101 1286.27L827.336 1284.83L827.574 1283.37L828.291 1278.97M790.933 1290.58L790.778 1292L790.471 1294.83L790.166 1297.63L789.715 1301.78M790.933 1290.58L791.558 1284.83L791.715 1283.37L792.034 1280.45L792.194 1278.97M790.933 1290.58H755.466M824.572 1301.78H789.715M824.572 1301.78L823.024 1311.28L822.806 1312.61M824.572 1301.78H859.429M789.715 1301.78L789.565 1303.16L789.416 1304.52L789.268 1305.89L789.121 1307.24L788.682 1311.28L788.537 1312.61M789.715 1301.78H754.857M624.396 184.255H528.791M624.396 184.255L628.696 263.369M624.396 184.255H720M624.396 184.255L619.67 97.3188M528.791 184.255L537.392 263.369M528.791 184.255L519.34 97.3188M528.791 184.255L433.186 184.255M628.696 263.369H537.392M628.696 263.369H720M628.696 263.369L632.626 335.671M537.392 263.369L545.253 335.671M537.392 263.369L446.088 263.369M639.552 463.083H559.104M639.552 463.083L642.619 519.504M639.552 463.083H720M639.552 463.083L636.232 402.006M559.104 463.083L565.238 519.504M559.104 463.083L552.464 402.006M559.104 463.083H478.657M642.619 519.504H565.238M642.619 519.504H720M642.619 519.504L645.461 571.78M565.238 519.504L570.922 571.78M565.238 519.504H487.858M650.561 665.602H581.122M650.561 665.602L652.858 707.858M650.561 665.602H720M650.561 665.602L648.101 620.353M581.122 665.602L585.716 707.858M581.122 665.602L576.203 620.353M581.122 665.602H511.683M652.858 707.858H585.716M652.858 707.858H720M652.858 707.858L655.008 747.407M585.716 707.858L590.015 747.407M585.716 707.858H518.574M658.919 819.367H597.838M658.919 819.367L660.704 852.191M658.919 819.367H720M658.919 819.367L657.024 784.502M597.838 819.367L601.407 852.191M597.838 819.367L594.048 784.502M597.838 819.367H536.758M660.704 852.191H601.407M660.704 852.191H720M660.704 852.191L662.387 883.155M601.407 852.191L604.773 883.155M601.407 852.191H542.111M665.482 940.091H610.964M665.482 940.091L666.908 966.324M665.482 940.091H720M665.482 940.091L663.977 912.407M610.964 940.091L613.815 966.324M610.964 940.091L607.954 912.407M610.964 940.091H556.445M666.908 966.324H613.815M666.908 966.324H720M666.908 966.324L668.261 991.22M613.815 966.324L616.522 991.22M613.815 966.324H560.723M670.771 1037.39H621.541M670.771 1037.39L671.937 1058.83M670.771 1037.39H720M670.771 1037.39L669.547 1014.88M621.541 1037.39L623.873 1058.83M621.541 1037.39L619.094 1014.88M621.541 1037.39H572.312M671.937 1058.83H623.873M671.937 1058.83H720M671.937 1058.83L673.048 1079.29M623.873 1058.83L626.097 1079.29M623.873 1058.83H575.809M675.125 1117.48H630.249M675.125 1117.48L676.095 1135.34M675.125 1117.48H720M675.125 1117.48L674.11 1098.81M630.249 1117.48L631.952 1133.15L632.19 1135.34M630.249 1117.48L628.219 1098.81M630.249 1117.48H585.373M676.095 1135.34L676.213 1137.51L677.025 1152.44M676.095 1135.34H632.19M676.095 1135.34H720M632.19 1135.34L632.897 1141.84L633.129 1143.98L633.362 1146.11L634.049 1152.44M632.19 1135.34H588.285M678.771 1184.55H637.541M678.771 1184.55L679.591 1199.65M678.771 1184.55H720M678.771 1184.55L678.454 1178.73L678.347 1176.77L678.241 1174.8L678.025 1170.83L677.915 1168.83M637.541 1184.55L638.778 1195.94L639.183 1199.65M637.541 1184.55L635.832 1168.83M637.541 1184.55H596.311M679.591 1199.65H639.183M679.591 1199.65H720M679.591 1199.65L680.38 1214.16M639.183 1199.65L640.175 1208.79L640.372 1210.59L640.566 1212.38L640.76 1214.16M639.183 1199.65H598.774M681.869 1241.55H643.737M681.869 1241.55L682.572 1254.48M681.869 1241.55H720M681.869 1241.55L681.139 1228.12M643.737 1241.55L643.558 1239.9L642.463 1229.83L642.277 1228.12M643.737 1241.55L645.144 1254.48M643.737 1241.55H605.606M682.572 1254.48H645.144M682.572 1254.48H720M682.572 1254.48L683.25 1266.95M645.144 1254.48L645.658 1259.21L645.827 1260.78L645.997 1262.33L646.499 1266.95M645.144 1254.48H607.716M684.533 1290.58H649.067M684.533 1290.58L685.143 1301.78M684.533 1290.58H720M684.533 1290.58L683.903 1278.97M649.067 1290.58L649.222 1292L649.53 1294.83L649.682 1296.23L649.985 1299.02L650.135 1300.4L650.286 1301.78M649.067 1290.58L648.442 1284.83L648.285 1283.37L647.966 1280.45L647.806 1278.97M649.067 1290.58H613.602M685.143 1301.78L685.217 1303.16L685.292 1304.52L685.366 1305.89L685.731 1312.61M685.143 1301.78H650.286M685.143 1301.78H720M650.286 1301.78H615.428M650.286 1301.78L650.584 1304.52L650.732 1305.89L650.879 1307.24L651.318 1311.28L651.463 1312.61M241.977 184.255H146.373M241.977 184.255L263.48 263.369M241.977 184.255H337.581M241.977 184.255L218.348 97.3188M146.373 184.255L172.176 263.369M146.373 184.255L118.019 97.3188M146.373 184.255H50.7678M263.48 263.369H172.176M263.48 263.369H354.784M263.48 263.369L283.131 335.671M172.176 263.369L195.758 335.671M172.176 263.369H80.8716M317.761 463.083H237.313M317.761 463.083L333.096 519.504M317.761 463.083H398.209M317.761 463.083L301.161 402.006M237.313 463.083L255.715 519.504M237.313 463.083L217.393 402.006M237.313 463.083H156.866M333.096 519.504H255.715M333.096 519.504H410.477M333.096 519.504L347.304 571.78M255.715 519.504L272.765 571.78M255.715 519.504H178.334M372.804 665.602H303.365M372.804 665.602L384.29 707.858M372.804 665.602H442.244M372.804 665.602L360.506 620.353M303.365 665.602L317.147 707.858M303.365 665.602L288.607 620.353M303.365 665.602H233.927M384.29 707.858H317.147M384.29 707.858H451.432M384.29 707.858L395.039 747.407M317.147 707.858L330.047 747.407M317.147 707.858H250.005M414.596 819.367H353.516M414.596 819.367L423.518 852.191M414.596 819.367H475.677M414.596 819.367L405.121 784.502M353.516 819.367L364.222 852.191M353.516 819.367L342.145 784.502M353.516 819.367H292.435M423.518 852.191H364.222M423.518 852.191H482.815M423.518 852.191L431.934 883.155M364.222 852.191L374.321 883.155M364.222 852.191H304.926M447.409 940.091H392.89M447.409 940.091L454.539 966.324M447.409 940.091H501.927M447.409 940.091L439.885 912.407M392.89 940.091L401.446 966.324M392.89 940.091L383.861 912.407M392.89 940.091H338.371M454.539 966.324H401.446M454.539 966.324H507.631M454.539 966.324L461.305 991.22M401.446 966.324L409.566 991.22M401.446 966.324H348.354M473.854 1037.39H424.625M473.854 1037.39L479.682 1058.83M473.854 1037.39H523.083M473.854 1037.39L467.735 1014.88M424.625 1037.39L431.619 1058.83M424.625 1037.39L417.282 1014.88M424.625 1037.39H375.396M479.682 1058.83H431.619M479.682 1058.83H527.746M479.682 1058.83L485.241 1079.29M431.619 1058.83L438.29 1079.29M431.619 1058.83H383.556M495.622 1117.48L495 1115.19L494.375 1112.89L490.549 1098.81M495.622 1117.48H450.746M495.622 1117.48L500.475 1135.34M495.622 1117.48H540.497M450.746 1117.48L456.57 1135.34M450.746 1117.48L444.659 1098.81M450.746 1117.48H405.87M500.475 1135.34H456.57M500.475 1135.34H544.38M500.475 1135.34L505.123 1152.44M456.57 1135.34L462.148 1152.44M456.57 1135.34H412.666M513.853 1184.55H472.623M513.853 1184.55L517.957 1199.65M513.853 1184.55H555.082M513.853 1184.55L509.579 1168.83M472.623 1184.55L475.725 1194.06L477.548 1199.65M472.623 1184.55L467.494 1168.83M472.623 1184.55H431.393M517.957 1199.65H477.548M517.957 1199.65H558.365M517.957 1199.65L521.415 1212.38L521.9 1214.16M477.548 1199.65L482.28 1214.16M477.548 1199.65H437.139M529.343 1241.55H491.212M529.343 1241.55L530.234 1244.83L532.859 1254.48M529.343 1241.55H567.474M529.343 1241.55L528.444 1238.24L526.618 1231.53L525.693 1228.12M491.212 1241.55L495.431 1254.48M491.212 1241.55L489.589 1236.57L488.494 1233.22L486.832 1228.12M491.212 1241.55L453.081 1241.55M532.859 1254.48H495.431M532.859 1254.48H570.288M532.859 1254.48L535.412 1263.88L536.248 1266.95M495.431 1254.48L496.973 1259.21L497.99 1262.33L499.497 1266.95M495.431 1254.48H458.003M542.669 1290.58H507.202M542.669 1290.58L544.585 1297.63L545.714 1301.78M542.669 1290.58H578.135M542.669 1290.58L539.515 1278.97M507.202 1290.58L509.956 1299.02L510.407 1300.4L510.857 1301.78M507.202 1290.58L505.327 1284.83L503.418 1278.97M507.202 1290.58L471.737 1290.58M545.714 1301.78H510.857M545.714 1301.78L547.198 1307.24L547.93 1309.94L548.294 1311.28L548.656 1312.61M545.714 1301.78H580.571M510.857 1301.78L476 1301.78M510.857 1301.78L514.388 1312.61M23.5725 519.504L100.953 519.504M23.5725 519.504L49.1472 571.78M23.5725 519.504H0.387451M23.5725 519.504L0.387451 472.113M95.048 665.602L25.6091 665.602M95.048 665.602L115.72 707.858M95.048 665.602H164.487M95.048 665.602L72.9109 620.353M25.6091 665.602L48.5782 707.858M25.6091 665.602L1.01184 620.353M25.6091 665.602H0.387451M115.72 707.858H48.5782M115.72 707.858H182.863M115.72 707.858L135.07 747.407M48.5782 707.858L70.0774 747.407M48.5782 707.858L0.387451 707.858M170.274 819.367H109.193M170.274 819.367L186.333 852.191M170.274 819.367H231.355M170.274 819.367L153.218 784.502M109.193 819.367L127.036 852.191M109.193 819.367L90.2416 784.502M109.193 819.367H48.1121M186.333 852.191H127.036M186.333 852.191H245.629M186.333 852.191L201.481 883.155M127.036 852.191L143.868 883.155M127.036 852.191H67.7402M229.335 940.091H174.817M229.335 940.091L242.169 966.324M229.335 940.091L283.853 940.091M229.335 940.091L215.792 912.407M174.817 940.091L189.077 966.324M174.817 940.091L159.769 912.407M174.817 940.091H120.298M242.169 966.324H189.077M242.169 966.324L295.261 966.324M242.169 966.324L254.349 991.22M189.077 966.324L202.611 991.22M189.077 966.324H135.985M276.937 1037.39H227.708M276.937 1037.39L287.428 1058.83M276.937 1037.39L326.166 1037.39M276.937 1037.39L265.924 1014.88M227.708 1037.39L239.365 1058.83M227.708 1037.39L215.471 1014.88M227.708 1037.39H178.479M287.428 1058.83L239.365 1058.83M287.428 1058.83H335.492M287.428 1058.83L297.435 1079.29M239.365 1058.83L250.483 1079.29M239.365 1058.83H191.301M316.119 1117.48H271.244M316.119 1117.48L324.856 1135.34M316.119 1117.48H360.995M316.119 1117.48L306.988 1098.81M271.244 1117.48L280.951 1135.34M271.244 1117.48L261.098 1098.81M271.244 1117.48H226.368M324.856 1135.34H280.951M324.856 1135.34H368.76M324.856 1135.34L333.222 1152.44M280.951 1135.34L290.247 1152.44M280.951 1135.34H237.046M348.935 1184.55H307.706M348.935 1184.55L356.322 1199.65M348.935 1184.55H390.164M348.935 1184.55L341.241 1168.83M307.706 1184.55L315.913 1199.65M307.706 1184.55L299.156 1168.83M307.706 1184.55H266.475M356.322 1199.65H315.913M356.322 1199.65L396.73 1199.65M356.322 1199.65L363.421 1214.16M315.913 1199.65L323.801 1214.16M315.913 1199.65H275.504M376.818 1241.55H338.687M376.818 1241.55L383.146 1254.48M376.818 1241.55H414.949M376.818 1241.55L375.198 1238.24L374.384 1236.57L370.247 1228.12M338.687 1241.55L345.718 1254.48M338.687 1241.55L331.386 1228.12M338.687 1241.55H300.556M383.146 1254.48H345.718M383.146 1254.48H420.574M383.146 1254.48L389.245 1266.95M345.718 1254.48L352.495 1266.95M345.718 1254.48H308.29M400.804 1290.58H365.338M400.804 1290.58L406.286 1301.78M400.804 1290.58H436.27M400.804 1290.58L395.127 1278.97M365.338 1290.58L369.926 1299.02L370.678 1300.4L371.429 1301.78M365.338 1290.58L359.03 1278.97M365.338 1290.58H329.872M406.286 1301.78H371.429M406.286 1301.78L410.929 1311.28L411.582 1312.61M406.286 1301.78H441.143M371.429 1301.78H336.571M371.429 1301.78L377.313 1312.61M11.2618 940.091L29.8002 966.324M11.2618 940.091H65.78M11.2618 940.091L0.387451 924.702M11.2618 940.091H0.387451M29.8002 966.324H82.8926M29.8002 966.324L47.3932 991.22M29.8002 966.324H0.387451M80.0201 1037.39H30.7903M80.0201 1037.39L95.1747 1058.83M80.0201 1037.39H129.249M80.0201 1037.39L64.1122 1014.88M30.7903 1037.39L47.1106 1058.83M30.7903 1037.39L13.6591 1014.88M30.7903 1037.39H0.387451M95.1747 1058.83H47.1106M95.1747 1058.83H143.238M95.1747 1058.83L109.628 1079.29M47.1106 1058.83L62.6759 1079.29M47.1106 1058.83H0.387451M136.617 1117.48H91.7407M136.617 1117.48L149.236 1135.34M136.617 1117.48H181.492M136.617 1117.48L123.427 1098.81M91.7407 1117.48L105.331 1135.34M91.7407 1117.48L77.5375 1098.81M91.7407 1117.48H46.8655M149.236 1135.34H105.331M149.236 1135.34H193.141M149.236 1135.34L161.321 1152.44M105.331 1135.34L118.345 1152.44M105.331 1135.34H61.4255M184.017 1184.55H142.788M184.017 1184.55L194.687 1199.65M184.017 1184.55H225.246M184.017 1184.55L172.904 1168.83M142.788 1184.55L154.278 1199.65M142.788 1184.55L130.82 1168.83M142.788 1184.55H101.557M194.687 1199.65H154.278M194.687 1199.65H235.096M194.687 1199.65L204.941 1214.16M154.278 1199.65L165.321 1214.16M154.278 1199.65H113.87M224.293 1241.55H186.161M224.293 1241.55L233.433 1254.48M224.293 1241.55H262.424M224.293 1241.55L214.802 1228.12M186.161 1241.55L196.005 1254.48M186.161 1241.55L175.941 1228.12M186.161 1241.55H148.03M233.433 1254.48H196.005M233.433 1254.48H270.862M233.433 1254.48L242.243 1266.95M196.005 1254.48L205.493 1266.95M196.005 1254.48H158.577M258.939 1290.58H223.473M258.939 1290.58L266.857 1301.78M258.939 1290.58H294.405M258.939 1290.58L250.74 1278.97M223.473 1290.58L232 1301.78M223.473 1290.58L214.642 1278.97M223.473 1290.58H188.006M266.857 1301.78H232M266.857 1301.78L274.507 1312.61M266.857 1301.78H301.714M232 1301.78H197.142M232 1301.78L240.239 1312.61M19.0989 1184.55L33.0526 1199.65M19.0989 1184.55H60.3282M19.0989 1184.55L4.56641 1168.83M19.0989 1184.55H0.387451M33.0526 1199.65H73.4612M33.0526 1199.65L46.4614 1214.16M33.0526 1199.65H0.387451M71.7678 1241.55H33.6366M71.7678 1241.55L83.7208 1254.48M71.7678 1241.55H109.899M71.7678 1241.55L59.3567 1228.12M33.6366 1241.55L46.2927 1254.48M33.6366 1241.55L20.4954 1228.12M33.6366 1241.55H0.387451M83.7208 1254.48H46.2927M83.7208 1254.48H121.149M83.7208 1254.48L95.2415 1266.95M46.2927 1254.48L58.4908 1266.95M46.2927 1254.48H8.86462M117.074 1290.58H81.6078M117.074 1290.58L127.428 1301.78M117.074 1290.58H152.541M117.074 1290.58L106.352 1278.97M81.6078 1290.58L92.5714 1301.78M81.6078 1290.58L70.2551 1278.97M81.6078 1290.58H46.1414M127.428 1301.78H92.5714M127.428 1301.78L137.432 1312.61M127.428 1301.78H162.285M92.5714 1301.78H57.7136M92.5714 1301.78L103.164 1312.61M70.2551 1278.97L58.4908 1266.95M70.2551 1278.97H34.1576M70.2551 1278.97H106.352M46.1414 1290.58L57.7136 1301.78M46.1414 1290.58L34.1576 1278.97M46.1414 1290.58H10.6757M57.7136 1301.78H22.8566M57.7136 1301.78L68.8953 1312.61M103.164 1312.61H137.432M103.164 1312.61H68.8953M103.164 1312.61L113.405 1323.08M34.1576 1278.97L21.7397 1266.95M34.1576 1278.97H0.387451M10.6757 1290.58L22.8566 1301.78M10.6757 1290.58L0.387451 1281.12M10.6757 1290.58H0.387451M22.8566 1301.78L34.6268 1312.61M22.8566 1301.78H0.387451M68.8953 1312.61H34.6268M68.8953 1312.61L79.7052 1323.08M34.6268 1312.61L46.0057 1323.08M34.6268 1312.61H0.387451M58.4908 1266.95H21.7397M58.4908 1266.95H95.2415M8.86462 1254.48L21.7397 1266.95M8.86462 1254.48L0.387451 1246.28M8.86462 1254.48H0.387451M21.7397 1266.95H0.387451M95.2415 1266.95H131.992M95.2415 1266.95L106.352 1278.97M106.352 1278.97H142.449M20.4954 1228.12L6.84143 1214.16M20.4954 1228.12H59.3567M20.4954 1228.12H0.387451M0.27124 1241.55H0.387451M6.84143 1214.16H46.4614M6.84143 1214.16L0.387451 1207.57M6.84143 1214.16H0.387451M46.4614 1214.16H86.0813M46.4614 1214.16L59.3567 1228.12M59.3567 1228.12H98.218M214.642 1278.97L205.493 1266.95M214.642 1278.97H178.546M214.642 1278.97H250.74M188.006 1290.58L197.142 1301.78M188.006 1290.58L178.546 1278.97M188.006 1290.58H152.541M197.142 1301.78H162.285M197.142 1301.78L205.97 1312.61M240.239 1312.61H205.97M240.239 1312.61L248.204 1323.08M240.239 1312.61H274.507M178.546 1278.97L168.742 1266.95M178.546 1278.97H142.449M152.541 1290.58L162.285 1301.78M152.541 1290.58L142.449 1278.97M162.285 1301.78L171.701 1312.61M205.97 1312.61H171.701M205.97 1312.61L214.504 1323.08M142.449 1278.97L131.992 1266.95M137.432 1312.61H171.701M137.432 1312.61L147.105 1323.08M171.701 1312.61L180.805 1323.08M205.493 1266.95H168.742M205.493 1266.95H242.243M158.577 1254.48L168.742 1266.95M158.577 1254.48L148.03 1241.55M158.577 1254.48H121.149M168.742 1266.95H131.992M242.243 1266.95H278.994M242.243 1266.95L250.74 1278.97M131.992 1266.95L121.149 1254.48M250.74 1278.97H286.837M148.03 1241.55L137.079 1228.12M148.03 1241.55H109.899M121.149 1254.48L109.899 1241.55M109.899 1241.55L98.218 1228.12M175.941 1228.12L165.321 1214.16M175.941 1228.12H137.079M175.941 1228.12H214.802M137.079 1228.12L125.701 1214.16M137.079 1228.12H98.218M98.218 1228.12L86.0813 1214.16M165.321 1214.16H125.701M165.321 1214.16H204.941M113.87 1199.65L125.701 1214.16M113.87 1199.65L101.557 1184.55M113.87 1199.65H73.4612M125.701 1214.16H86.0813M204.941 1214.16H244.561M204.941 1214.16L214.802 1228.12M86.0813 1214.16L73.4612 1199.65M214.802 1228.12H253.663M101.557 1184.55L88.7349 1168.83M101.557 1184.55H60.3282M73.4612 1199.65L60.3282 1184.55M60.3282 1184.55L46.6511 1168.83M130.82 1168.83L118.345 1152.44M130.82 1168.83H88.7349M130.82 1168.83H172.904M88.7349 1168.83L75.3696 1152.44M88.7349 1168.83H46.6511M46.6511 1168.83L32.3945 1152.44M46.6511 1168.83H4.56641M4.56641 1168.83H0.387451M4.56641 1168.83L0.387451 1164.31M118.345 1152.44H75.3696M118.345 1152.44H161.321M61.4255 1135.34L75.3696 1152.44M61.4255 1135.34L46.8655 1117.48M61.4255 1135.34H17.521M75.3696 1152.44H32.3945M161.321 1152.44H204.296M161.321 1152.44L172.904 1168.83M32.3945 1152.44L17.521 1135.34M32.3945 1152.44H0.387451M172.904 1168.83H214.988M46.8655 1117.48L31.6472 1098.81M46.8655 1117.48H1.99011M17.521 1135.34L1.99011 1117.48M17.521 1135.34H0.387451M0.162598 1152.44H0.387451M1.99011 1117.48L0.387451 1115.64M1.99011 1117.48H0.387451M77.5375 1098.81L62.6759 1079.29M77.5375 1098.81H31.6472M77.5375 1098.81H123.427M31.6472 1098.81L15.7242 1079.29M31.6472 1098.81H0.387451M0 1115.19L0.387451 1115.64M62.6759 1079.29H15.7242M62.6759 1079.29H109.628M15.7242 1079.29H0.387451M15.7242 1079.29L0.387451 1060.48M109.628 1079.29H156.579M109.628 1079.29L123.427 1098.81M123.427 1098.81H169.317M13.6591 1014.88H64.1122M13.6591 1014.88L0.387451 997.439M13.6591 1014.88H0.387451M0.0223389 1037.39H0.387451M64.1122 1014.88H114.565M64.1122 1014.88L47.3932 991.22M0.241333 997.247L0.387451 997.439M359.03 1278.97L352.495 1266.95M359.03 1278.97H322.933M359.03 1278.97H395.127M329.872 1290.58L336.571 1301.78M329.872 1290.58L322.933 1278.97M329.872 1290.58H294.405M336.571 1301.78H301.714M336.571 1301.78L343.044 1312.61M377.313 1312.61H343.044M377.313 1312.61L379.47 1316.57L383.003 1323.08M377.313 1312.61H411.582M322.933 1278.97L315.744 1266.95M322.933 1278.97H286.837M294.405 1290.58L301.714 1301.78M294.405 1290.58L286.837 1278.97M301.714 1301.78L308.776 1312.61M343.044 1312.61H308.776M343.044 1312.61L349.303 1323.08M286.837 1278.97L278.994 1266.95M274.507 1312.61L281.904 1323.08M274.507 1312.61H308.776M308.776 1312.61L309.642 1313.94L311.364 1316.57L315.603 1323.08M352.495 1266.95H315.744M352.495 1266.95H389.245M308.29 1254.48L315.744 1266.95M308.29 1254.48L300.556 1241.55M308.29 1254.48H270.862M315.744 1266.95H278.994M389.245 1266.95H425.996M389.245 1266.95L395.127 1278.97M278.994 1266.95L270.862 1254.48M395.127 1278.97H431.225M300.556 1241.55L292.525 1228.12M300.556 1241.55H262.424M270.862 1254.48L269.824 1252.9L262.424 1241.55M262.424 1241.55L253.663 1228.12M331.386 1228.12L330.454 1226.4L323.801 1214.16M331.386 1228.12H292.525M331.386 1228.12H370.247M292.525 1228.12L284.181 1214.16M292.525 1228.12H253.663M253.663 1228.12L244.561 1214.16M323.801 1214.16H284.181M323.801 1214.16H363.421M275.504 1199.65L284.181 1214.16M275.504 1199.65L266.475 1184.55M275.504 1199.65H235.096M284.181 1214.16H244.561M363.421 1214.16L403.041 1214.16M363.421 1214.16L370.247 1228.12M244.561 1214.16L235.096 1199.65M370.247 1228.12H409.109M266.475 1184.55L257.073 1168.83M266.475 1184.55H225.246M235.096 1199.65L225.246 1184.55M225.246 1184.55L214.988 1168.83M299.156 1168.83L290.247 1152.44M299.156 1168.83H257.073M299.156 1168.83H341.241M257.073 1168.83L247.271 1152.44M257.073 1168.83H214.988M214.988 1168.83L204.296 1152.44M290.247 1152.44H247.271M290.247 1152.44H333.222M237.046 1135.34L247.271 1152.44M237.046 1135.34L226.368 1117.48M237.046 1135.34H193.141M247.271 1152.44H204.296M333.222 1152.44H376.197M333.222 1152.44L341.241 1168.83M204.296 1152.44L193.141 1135.34M341.241 1168.83H383.326M226.368 1117.48L215.208 1098.81M226.368 1117.48H181.492M193.141 1135.34L181.492 1117.48M181.492 1117.48L169.317 1098.81M261.098 1098.81L250.483 1079.29M261.098 1098.81H215.208M261.098 1098.81H306.988M215.208 1098.81L203.531 1079.29M215.208 1098.81H169.317M169.317 1098.81L156.579 1079.29M250.483 1079.29H203.531M250.483 1079.29L297.435 1079.29M191.301 1058.83L203.531 1079.29M191.301 1058.83L178.479 1037.39M191.301 1058.83H143.238M203.531 1079.29H156.579M297.435 1079.29H344.386M297.435 1079.29L306.988 1098.81M156.579 1079.29L143.238 1058.83M306.988 1098.81H352.878M178.479 1037.39L165.018 1014.88M178.479 1037.39H129.249M143.238 1058.83L129.249 1037.39M129.249 1037.39L114.565 1014.88M215.471 1014.88L202.611 991.22M215.471 1014.88H165.018M215.471 1014.88H265.924M165.018 1014.88L150.871 991.22M165.018 1014.88H114.565M114.565 1014.88L99.1326 991.22M202.611 991.22H150.871M202.611 991.22H254.349M135.985 966.324L150.871 991.22M135.985 966.324L120.298 940.091M135.985 966.324H82.8926M150.871 991.22H99.1326M254.349 991.22L306.089 991.22M254.349 991.22L265.924 1014.88M99.1326 991.22L82.8926 966.324M99.1326 991.22H47.3932M265.924 1014.88L316.377 1014.88M120.298 940.091L103.746 912.407M120.298 940.091H65.78M82.8926 966.324L65.78 940.091M47.3932 991.22H0.387451M65.78 940.091L47.7229 912.407M159.769 912.407L143.868 883.155M159.769 912.407H103.746M159.769 912.407H215.792M103.746 912.407L86.2545 883.155M103.746 912.407H47.7229M47.7229 912.407L28.6412 883.155M47.7229 912.407H0.387451M143.868 883.155H86.2545M143.868 883.155H201.481M67.7402 852.191L86.2545 883.155M67.7402 852.191L48.1121 819.367M67.7402 852.191H8.44421M86.2545 883.155H28.6412M201.481 883.155H259.094M201.481 883.155L215.792 912.407M28.6412 883.155L8.44421 852.191M28.6412 883.155H0.387451M215.792 912.407H271.816M48.1121 819.367L27.2657 784.502M48.1121 819.367L0.387451 819.367M8.44421 852.191H0.387451M8.44421 852.191L0.387451 839.841M90.2416 784.502L70.0774 747.407M90.2416 784.502L27.2657 784.502M90.2416 784.502H153.218M27.2657 784.502L5.08521 747.407M27.2657 784.502H0.387451M70.0774 747.407L5.08521 747.407M70.0774 747.407H135.07M5.08521 747.407L0.387451 739.551M5.08521 747.407H0.387451M135.07 747.407H200.062M135.07 747.407L153.218 784.502M153.218 784.502H216.193M1.01184 620.353L72.9109 620.353M1.01184 620.353H0.387451M1.01184 620.353L0.387451 619.205M72.9109 620.353H144.809M72.9109 620.353L49.1472 571.78M503.418 1278.97L501.964 1274.52L501.475 1273.02L499.497 1266.95M503.418 1278.97H467.321M503.418 1278.97H539.515M471.737 1290.58L474.948 1299.02L476 1301.78M471.737 1290.58L467.881 1280.45L467.321 1278.97M471.737 1290.58H436.27M476 1301.78H441.143M476 1301.78L480.119 1312.61M514.388 1312.61L480.119 1312.61M514.388 1312.61L515.682 1316.57L517.802 1323.08M514.388 1312.61H548.656M467.321 1278.97L466.193 1276.01L462.746 1266.95M467.321 1278.97L431.225 1278.97M436.27 1290.58L441.143 1301.78M436.27 1290.58L431.225 1278.97M441.143 1301.78L444.689 1309.94L445.851 1312.61M480.119 1312.61H445.851M480.119 1312.61L484.102 1323.08M431.225 1278.97L425.996 1266.95M411.582 1312.61L412.231 1313.94L416.703 1323.08M411.582 1312.61H445.851M445.851 1312.61L447.576 1316.57L450.402 1323.08M499.497 1266.95H462.746M499.497 1266.95H536.248M458.003 1254.48L462.746 1266.95M458.003 1254.48L453.081 1241.55M458.003 1254.48L420.574 1254.48M462.746 1266.95L425.996 1266.95M536.248 1266.95H572.998M536.248 1266.95L539.515 1278.97M425.996 1266.95L420.574 1254.48M539.515 1278.97H575.612M453.081 1241.55L449.91 1233.22L449.266 1231.53L447.971 1228.12M453.081 1241.55H414.949M420.574 1254.48L414.949 1241.55M414.949 1241.55L409.109 1228.12M486.832 1228.12L482.28 1214.16M486.832 1228.12L447.971 1228.12M486.832 1228.12H525.693M447.971 1228.12L442.661 1214.16M447.971 1228.12H409.109M409.109 1228.12L403.041 1214.16M482.28 1214.16H442.661M482.28 1214.16H521.9M437.139 1199.65L440.616 1208.79L441.3 1210.59L442.661 1214.16M437.139 1199.65L431.393 1184.55M437.139 1199.65H396.73M442.661 1214.16H403.041M521.9 1214.16H561.52M521.9 1214.16L525.693 1228.12M403.041 1214.16L396.73 1199.65M525.693 1228.12H564.555M431.393 1184.55L425.409 1168.83M431.393 1184.55L390.164 1184.55M396.73 1199.65L390.164 1184.55M390.164 1184.55L383.326 1168.83M467.494 1168.83L464.849 1160.72L464.179 1158.66L462.148 1152.44M467.494 1168.83H425.409M467.494 1168.83H509.579M425.409 1168.83L419.173 1152.44M425.409 1168.83L383.326 1168.83M383.326 1168.83L376.197 1152.44M462.148 1152.44H419.173M462.148 1152.44H505.123M412.666 1135.34L419.173 1152.44M412.666 1135.34L405.87 1117.48M412.666 1135.34L368.76 1135.34M419.173 1152.44L376.197 1152.44M505.123 1152.44H548.099M505.123 1152.44L506.255 1156.6L509.579 1168.83M376.197 1152.44L368.76 1135.34M509.579 1168.83H551.662M405.87 1117.48L398.769 1098.81M405.87 1117.48L360.995 1117.48M368.76 1135.34L360.995 1117.48M360.995 1117.48L352.878 1098.81M444.659 1098.81L438.29 1079.29M444.659 1098.81H398.769M444.659 1098.81H490.549M398.769 1098.81L391.338 1079.29M398.769 1098.81L352.878 1098.81M352.878 1098.81L344.386 1079.29M438.29 1079.29H391.338M438.29 1079.29H485.241M383.556 1058.83L391.338 1079.29M383.556 1058.83L375.396 1037.39M383.556 1058.83H335.492M391.338 1079.29H344.386M485.241 1079.29H532.193M485.241 1079.29L490.549 1098.81M344.386 1079.29L335.492 1058.83M490.549 1098.81H536.439M375.396 1037.39L366.83 1014.88M375.396 1037.39H326.166M335.492 1058.83L326.166 1037.39M326.166 1037.39L316.377 1014.88M417.282 1014.88L409.566 991.22M417.282 1014.88H366.83M417.282 1014.88H467.735M366.83 1014.88L357.827 991.22M366.83 1014.88H316.377M316.377 1014.88L306.089 991.22M409.566 991.22H357.827M409.566 991.22H461.305M348.354 966.324L357.827 991.22M348.354 966.324L338.371 940.091M348.354 966.324H295.261M357.827 991.22H306.089M461.305 991.22H513.044M461.305 991.22L467.735 1014.88M306.089 991.22L295.261 966.324M467.735 1014.88H518.188M338.371 940.091L327.838 912.407M338.371 940.091H283.853M295.261 966.324L283.853 940.091M283.853 940.091L271.816 912.407M383.861 912.407L374.321 883.155M383.861 912.407H327.838M383.861 912.407H439.885M327.838 912.407L316.707 883.155M327.838 912.407L271.816 912.407M271.816 912.407L259.094 883.155M374.321 883.155H316.707M374.321 883.155H431.934M304.926 852.191L316.707 883.155M304.926 852.191L292.435 819.367M304.926 852.191L245.629 852.191M316.707 883.155L259.094 883.155M431.934 883.155H489.547M431.934 883.155L439.885 912.407M259.094 883.155L245.629 852.191M439.885 912.407H495.907M292.435 819.367L279.169 784.502M292.435 819.367H231.355M245.629 852.191L231.355 819.367M231.355 819.367L216.193 784.502M342.145 784.502L330.047 747.407M342.145 784.502H279.169M342.145 784.502H405.121M279.169 784.502L265.054 747.407M279.169 784.502H216.193M216.193 784.502L200.062 747.407M330.047 747.407H265.054M330.047 747.407H395.039M250.005 707.858L265.054 747.407M250.005 707.858L233.927 665.602M250.005 707.858H182.863M265.054 747.407H200.062M395.039 747.407H460.031M395.039 747.407L405.121 784.502M200.062 747.407L182.863 707.858M405.121 784.502H468.097M233.927 665.602L216.708 620.353M233.927 665.602H164.487M182.863 707.858L164.487 665.602M164.487 665.602L144.809 620.353M288.607 620.353L272.765 571.78M288.607 620.353H216.708M288.607 620.353H360.506M216.708 620.353L198.226 571.78M216.708 620.353H144.809M144.809 620.353L123.686 571.78M272.765 571.78H198.226M272.765 571.78H347.304M178.334 519.504L198.226 571.78M178.334 519.504L156.866 463.083M178.334 519.504H100.953M198.226 571.78H123.686M347.304 571.78H421.844M347.304 571.78L360.506 620.353M123.686 571.78L100.953 519.504M123.686 571.78H49.1472M360.506 620.353H432.405M156.866 463.083L133.625 402.006M156.866 463.083H76.4182M100.953 519.504L76.4182 463.083M49.1472 571.78L0.387451 571.78M76.4182 463.083L49.8571 402.006M76.4182 463.083L0.387451 463.083M217.393 402.006L195.758 335.671M217.393 402.006H133.625M217.393 402.006H301.161M133.625 402.006L108.384 335.671M133.625 402.006H49.8571M49.8571 402.006L21.0104 335.671M49.8571 402.006L0.387451 402.006M195.758 335.671H108.384M195.758 335.671H283.131M80.8716 263.369L108.384 335.671M80.8716 263.369L50.7678 184.255M80.8716 263.369H0.387451M108.384 335.671L21.0104 335.671M283.131 335.671H370.505M283.131 335.671L301.161 402.006M21.0104 335.671H0.387451M21.0104 335.671L0.387451 288.248M301.161 402.006H384.929M50.7678 184.255L17.6881 97.3188M50.7678 184.255H0.387451M118.019 97.3188L86.7155 1.34094M118.019 97.3188H17.6881M118.019 97.3188H218.348M17.6881 97.3188L0.387451 51.8506M17.6881 97.3188H0.387451M86.7155 1.34094H192.263M86.7155 1.34094L0.387451 1.34277M192.263 1.34094H297.81M192.263 1.34094L218.348 97.3188M218.348 97.3188H318.679M647.806 1278.97L647.645 1277.5L647.484 1276.01L647.321 1274.52L647.159 1273.02L646.665 1268.48L646.499 1266.95M647.806 1278.97H611.709M647.806 1278.97H683.903M613.602 1290.58L614.978 1299.02L615.428 1301.78M613.602 1290.58L612.426 1283.37L611.709 1278.97M613.602 1290.58H578.135M615.428 1301.78H580.571M615.428 1301.78L616.758 1309.94L617.194 1312.61M651.463 1312.61L651.607 1313.94L652.178 1319.19L652.601 1323.08M651.463 1312.61H617.194M651.463 1312.61H685.731M611.709 1278.97L611.468 1277.5L611.225 1276.01L610.982 1274.52L610.737 1273.02L609.749 1266.95M611.709 1278.97H575.612M578.135 1290.58L579.97 1299.02L580.571 1301.78M578.135 1290.58L575.612 1278.97M580.571 1301.78L581.759 1307.24L582.636 1311.28L582.925 1312.61M617.194 1312.61L617.41 1313.94L617.84 1316.57L618.268 1319.19L618.479 1320.49L618.901 1323.08M617.194 1312.61H582.925M575.612 1278.97L573.66 1270L572.998 1266.95M548.656 1312.61L550.799 1320.49L551.501 1323.08M548.656 1312.61H582.925M582.925 1312.61L584.92 1321.79L585.202 1323.08M646.499 1266.95H609.749M646.499 1266.95H683.25M607.716 1254.48L609.749 1266.95M607.716 1254.48L605.606 1241.55M607.716 1254.48H570.288M609.749 1266.95H572.998M683.25 1266.95H720M683.25 1266.95L683.903 1278.97M572.998 1266.95L570.288 1254.48M683.903 1278.97H720M605.606 1241.55L605.066 1238.24L604.247 1233.22L603.416 1228.12M605.606 1241.55H567.474M570.288 1254.48L569.941 1252.9L567.474 1241.55M567.474 1241.55L567.116 1239.9L566.755 1238.24L566.393 1236.57L564.555 1228.12M642.277 1228.12L640.76 1214.16M642.277 1228.12H603.416M642.277 1228.12H681.139M603.416 1228.12L601.14 1214.16M603.416 1228.12H564.555M564.555 1228.12L562.29 1217.71L561.906 1215.94L561.52 1214.16M640.76 1214.16H601.14M640.76 1214.16H680.38M598.774 1199.65L598.472 1197.8L598.167 1195.94L597.862 1194.06L596.311 1184.55M598.774 1199.65L599.969 1206.98L600.264 1208.79L600.557 1210.59L601.14 1214.16M598.774 1199.65H558.365M601.14 1214.16H561.52M680.38 1214.16H720M680.38 1214.16L681.139 1228.12M561.52 1214.16L558.365 1199.65M681.139 1228.12H720M596.311 1184.55L594.073 1170.83L593.747 1168.83M596.311 1184.55H555.082M558.365 1199.65L557.556 1195.94L555.082 1184.55M555.082 1184.55L553.816 1178.73L551.662 1168.83M635.832 1168.83L634.949 1160.72L634.727 1158.66L634.049 1152.44M635.832 1168.83H593.747M635.832 1168.83H677.915M593.747 1168.83L591.074 1152.44M593.747 1168.83H551.662M551.662 1168.83L548.099 1152.44M634.049 1152.44H591.074M634.049 1152.44H677.025M588.285 1135.34L591.074 1152.44M588.285 1135.34L585.373 1117.48M588.285 1135.34H544.38M591.074 1152.44H548.099M677.025 1152.44H720M677.025 1152.44L677.251 1156.6L677.696 1164.8L677.915 1168.83M548.099 1152.44L544.38 1135.34M677.915 1168.83H720M585.373 1117.48L583.103 1103.56L582.329 1098.81M585.373 1117.48H540.497M544.38 1135.34L540.497 1117.48M540.497 1117.48L538.491 1108.25L536.439 1098.81M628.219 1098.81L626.097 1079.29M628.219 1098.81H582.329M628.219 1098.81H674.11M582.329 1098.81L579.145 1079.29M582.329 1098.81H536.439M536.439 1098.81L532.193 1079.29M626.097 1079.29H579.145M626.097 1079.29H673.048M575.809 1058.83L576.658 1064.04L579.145 1079.29M575.809 1058.83L572.312 1037.39M575.809 1058.83H527.746M579.145 1079.29H532.193M673.048 1079.29H720M673.048 1079.29L674.11 1098.81M532.193 1079.29L527.746 1058.83M674.11 1098.81H720M572.312 1037.39L568.641 1014.88M572.312 1037.39H523.083M527.746 1058.83L523.083 1037.39M523.083 1037.39L518.188 1014.88M619.094 1014.88L616.522 991.22M619.094 1014.88H568.641M619.094 1014.88H669.547M568.641 1014.88L564.783 991.22M568.641 1014.88H518.188M518.188 1014.88L513.044 991.22M616.522 991.22H564.783M616.522 991.22H668.261M560.723 966.324L564.783 991.22M560.723 966.324L556.445 940.091M560.723 966.324H507.631M564.783 991.22H513.044M668.261 991.22H720M668.261 991.22L669.39 1011.98L669.547 1014.88M513.044 991.22L507.631 966.324M669.547 1014.88H720M556.445 940.091L551.931 912.407M556.445 940.091H501.927M507.631 966.324L503.382 946.778L501.927 940.091M501.927 940.091L495.907 912.407M607.954 912.407L604.773 883.155M607.954 912.407H551.931M607.954 912.407H663.977M551.931 912.407L547.16 883.155M551.931 912.407H495.907M495.907 912.407L489.547 883.155M604.773 883.155H547.16M604.773 883.155H662.387M542.111 852.191L547.16 883.155M542.111 852.191L536.758 819.367M542.111 852.191H482.815M547.16 883.155H489.547M662.387 883.155H720M662.387 883.155L663.977 912.407M489.547 883.155L482.815 852.191M663.977 912.407H720M536.758 819.367L531.073 784.502M536.758 819.367H475.677M482.815 852.191L475.677 819.367M475.677 819.367L468.097 784.502M594.048 784.502L590.015 747.407M594.048 784.502H531.073M594.048 784.502H657.024M531.073 784.502L525.023 747.407M531.073 784.502H468.097M468.097 784.502L460.031 747.407M590.015 747.407H525.023M590.015 747.407H655.008M518.574 707.858L525.023 747.407M518.574 707.858L511.683 665.602M518.574 707.858H451.432M525.023 747.407H460.031M655.008 747.407H720M655.008 747.407L657.024 784.502M460.031 747.407L451.432 707.858M657.024 784.502H720M511.683 665.602L504.304 620.353M511.683 665.602H442.244M451.432 707.858L442.244 665.602M442.244 665.602L432.405 620.353M576.203 620.353L570.922 571.78M576.203 620.353H504.304M576.203 620.353H648.101M504.304 620.353L496.383 571.78M504.304 620.353H432.405M432.405 620.353L421.844 571.78M570.922 571.78H496.383M570.922 571.78H645.461M487.858 519.504L496.383 571.78M487.858 519.504L478.657 463.083M487.858 519.504H410.477M496.383 571.78H421.844M645.461 571.78H720M645.461 571.78L648.101 620.353M421.844 571.78L410.477 519.504M648.101 620.353H720M478.657 463.083L468.696 402.006M478.657 463.083H398.209M410.477 519.504L398.209 463.083M398.209 463.083L384.929 402.006M552.464 402.006L545.253 335.671M552.464 402.006H468.696M552.464 402.006H636.232M468.696 402.006L457.879 335.671M468.696 402.006H384.929M384.929 402.006L370.505 335.671M545.253 335.671H457.879M545.253 335.671H632.626M446.088 263.369L457.879 335.671M446.088 263.369L433.186 184.255M446.088 263.369H354.784M457.879 335.671H370.505M632.626 335.671H720M632.626 335.671L636.232 402.006M370.505 335.671L354.784 263.369M636.232 402.006H720M433.186 184.255L419.009 97.3188M433.186 184.255H337.581M354.784 263.369L337.581 184.255M337.581 184.255L318.679 97.3188M519.34 97.3188L508.905 1.34094M519.34 97.3188L419.009 97.3188M519.34 97.3188H619.67M419.009 97.3188L403.358 1.34094M419.009 97.3188H318.679M318.679 97.3188L297.81 1.34094M403.358 1.34094H508.905M403.358 1.34094H297.81M508.905 1.34094L614.452 1.34094M614.452 1.34094H720M614.452 1.34094L619.67 97.3188M619.67 97.3188H720M792.194 1278.97L792.355 1277.5L792.516 1276.01L792.679 1274.52L792.841 1273.02L793.17 1270L793.335 1268.48L793.501 1266.95M792.194 1278.97H756.097M792.194 1278.97H828.291M755.466 1290.58L754.857 1301.78M755.466 1290.58L756.097 1278.97M755.466 1290.58H720M754.857 1301.78L754.783 1303.16L754.708 1304.52L754.634 1305.89L754.268 1312.61M754.857 1301.78H720M788.537 1312.61L788.393 1313.94L787.822 1319.19L787.399 1323.08M788.537 1312.61H754.268M788.537 1312.61H822.806M756.097 1278.97L756.178 1277.5L756.258 1276.01L756.34 1274.52L756.75 1266.95M756.097 1278.97H720M720 1290.58V1301.78M720 1290.58V1278.97M720 1301.78V1312.61M754.268 1312.61H720M754.268 1312.61L754.053 1316.57L753.981 1317.89L753.7 1323.08M720 1278.97V1266.95M685.731 1312.61L685.946 1316.57L686.018 1317.89L686.089 1319.19L686.16 1320.49L686.23 1321.79L686.3 1323.08M685.731 1312.61H720M720 1312.61V1323.08M793.501 1266.95H756.75M793.501 1266.95H830.251M757.428 1254.48L757.515 1252.9L757.601 1251.3L758.131 1241.55M757.428 1254.48L756.75 1266.95M757.428 1254.48H720M756.75 1266.95H720M830.251 1266.95H867.002M830.251 1266.95L829.755 1270L829.508 1271.51L829.263 1273.02L829.017 1274.52L828.775 1276.01L828.532 1277.5L828.291 1278.97M720 1266.95V1254.48M828.291 1278.97H864.388M758.131 1241.55L758.861 1228.12M758.131 1241.55H720M720 1254.48V1241.55M720 1241.55V1228.12M797.723 1228.12L799.24 1214.16M797.723 1228.12H758.861M797.723 1228.12H836.584M758.861 1228.12L759.62 1214.16M758.861 1228.12H720M720 1228.12V1214.16M799.24 1214.16H759.62M799.24 1214.16H838.86M760.408 1199.65L759.62 1214.16M760.408 1199.65L761.229 1184.55M760.408 1199.65H720M759.62 1214.16H720M838.86 1214.16H878.48M838.86 1214.16L836.584 1228.12M720 1214.16V1199.65M836.584 1228.12H875.445M761.229 1184.55L761.546 1178.73L761.867 1172.82L762.085 1168.83M761.229 1184.55H720M720 1199.65V1184.55M720 1184.55V1168.83M804.168 1168.83L805.051 1160.72L805.273 1158.66L805.951 1152.44M804.168 1168.83H762.085M804.168 1168.83H846.253M762.085 1168.83L762.303 1164.8L762.749 1156.6L762.975 1152.44M762.085 1168.83H720M720 1168.83V1152.44M805.951 1152.44H762.975M805.951 1152.44H848.926M763.905 1135.34L763.787 1137.51L762.975 1152.44M763.905 1135.34L764.875 1117.48M763.905 1135.34H720M762.975 1152.44H720M848.926 1152.44H891.901M848.926 1152.44L846.253 1168.83M720 1152.44V1135.34M846.253 1168.83H888.338M764.875 1117.48L765.89 1098.81M764.875 1117.48H720M720 1135.34V1117.48M720 1117.48V1098.81M811.781 1098.81L813.903 1079.29M811.781 1098.81H765.89M811.781 1098.81H857.671M765.89 1098.81L766.952 1079.29M765.89 1098.81H720M720 1098.81V1079.29M813.903 1079.29H766.952M813.903 1079.29H860.855M768.063 1058.83L766.952 1079.29M768.063 1058.83L769.229 1037.39M768.063 1058.83H720M766.952 1079.29H720M860.855 1079.29H907.807M860.855 1079.29L857.671 1098.81M720 1079.29V1058.83M857.671 1098.81H903.561M769.229 1037.39L770.453 1014.88M769.229 1037.39H720M720 1058.83V1037.39M720 1037.39V1014.88M820.906 1014.88L823.478 991.22M820.906 1014.88H770.453M820.906 1014.88H871.358M770.453 1014.88L771.739 991.22M770.453 1014.88L720 1014.88M720 1014.88V991.22M823.478 991.22H771.739M823.478 991.22H875.217M773.092 966.324L771.739 991.22M773.092 966.324L774.518 940.091M773.092 966.324L720 966.324M771.739 991.22L720 991.22M875.217 991.22H926.956M875.217 991.22L871.358 1014.88M720 991.22V966.324M871.358 1014.88H921.812M774.518 940.091L776.023 912.407M774.518 940.091L720 940.091M720 966.324V940.091M720 940.091V912.407M832.046 912.407L835.226 883.155M832.046 912.407H776.023M832.046 912.407H888.069M776.023 912.407L777.613 883.155M776.023 912.407L720 912.407M720 912.407V883.155M835.226 883.155H777.613M835.226 883.155H892.84M779.296 852.191L777.613 883.155M779.296 852.191L781.081 819.367M779.296 852.191L720 852.191M777.613 883.155L720 883.155M892.84 883.155H950.453M892.84 883.155L888.069 912.407M720 883.155L720 852.191M888.069 912.407H944.092M781.081 819.367L782.976 784.502M781.081 819.367H720M720 852.191V819.367M720 819.367V784.502M845.952 784.502L849.984 747.407M845.952 784.502H782.976M845.952 784.502H908.927M782.976 784.502L784.992 747.407M782.976 784.502H720M720 784.502V747.407M849.984 747.407H784.992M849.984 747.407H914.977M787.142 707.858L784.992 747.407M787.142 707.858L789.439 665.602M787.142 707.858H720M784.992 747.407H720M914.977 747.407L979.969 747.407M914.977 747.407L908.927 784.502M720 747.407V707.858M908.927 784.502H971.903M789.439 665.602L791.899 620.353M789.439 665.602H720M720 707.858V665.602M720 665.602V620.353M863.797 620.353L869.078 571.78M863.797 620.353H791.899M863.797 620.353H935.696M791.899 620.353L794.539 571.78M791.899 620.353H720M720 620.353V571.78M869.078 571.78H794.539M869.078 571.78H943.617M797.381 519.504L794.539 571.78M797.381 519.504L800.447 463.083M797.381 519.504H720M794.539 571.78H720M943.617 571.78L1018.16 571.78M943.617 571.78L935.696 620.353M720 571.78V519.504M935.696 620.353L1007.6 620.353M800.447 463.083L803.768 402.006M800.447 463.083H720M720 519.504V463.083M720 463.083V402.006M887.535 402.006L894.747 335.671M887.535 402.006H803.768M887.535 402.006H971.304M803.768 402.006L807.374 335.671M803.768 402.006H720M720 402.006V335.671M894.747 335.671H807.374M894.747 335.671L982.121 335.671M811.304 263.369L807.374 335.671M811.304 263.369L815.604 184.255M811.304 263.369H720M807.374 335.671H720M982.121 335.671H1069.49M982.121 335.671L971.304 402.006M720 335.671V263.369M971.304 402.006L1055.07 402.006M815.604 184.255L820.33 97.3188M815.604 184.255H720M720 263.369V184.255M720 184.255V97.3188M920.66 97.3188L931.095 1.34094M920.66 97.3188H820.33M920.66 97.3188H1020.99M820.33 97.3188L825.548 1.34094M820.33 97.3188H720M720 97.3188V1.34094M825.548 1.34094H931.095M825.548 1.34094H720M931.095 1.34094H1036.64M1036.64 1.34094H1142.19M1036.64 1.34094L1020.99 97.3188M1020.99 97.3188H1121.32M936.582 1278.97L938.525 1273.02L940.503 1266.95M936.582 1278.97H900.485M936.582 1278.97H972.678M897.331 1290.58L894.286 1301.78M897.331 1290.58L900.485 1278.97M897.331 1290.58H861.865M894.286 1301.78H859.429M894.286 1301.78L892.07 1309.94L891.343 1312.61M925.612 1312.61H891.343M925.612 1312.61L924.318 1316.57L922.198 1323.08M925.612 1312.61H959.881M900.485 1278.97L903.752 1266.95M900.485 1278.97H864.388M861.865 1290.58L859.429 1301.78M861.865 1290.58L864.388 1278.97M859.429 1301.78L858.241 1307.24L857.364 1311.28L857.075 1312.61M891.343 1312.61H857.075M891.343 1312.61L889.201 1320.49L888.499 1323.08M864.388 1278.97L866.34 1270L867.002 1266.95M822.806 1312.61L822.59 1313.94L822.159 1316.57L821.521 1320.49L821.099 1323.08M822.806 1312.61H857.075M857.075 1312.61L856.786 1313.94L856.212 1316.57L854.799 1323.08M940.503 1266.95H903.752M940.503 1266.95H977.254M907.141 1254.48L906.71 1256.07L906.282 1257.65L904.588 1263.88L903.752 1266.95M907.141 1254.48L909.766 1244.83L910.657 1241.55M907.141 1254.48H869.712M903.752 1266.95H867.002M977.254 1266.95H1014M977.254 1266.95L973.807 1276.01L972.678 1278.97M867.002 1266.95L869.712 1254.48M972.678 1278.97H1008.78M910.657 1241.55L911.105 1239.9L911.556 1238.24L912.921 1233.22L913.382 1231.53L914.307 1228.12M910.657 1241.55H872.526M869.712 1254.48L870.059 1252.9L872.526 1241.55M872.526 1241.55L872.884 1239.9L873.245 1238.24L873.607 1236.57L875.445 1228.12M953.168 1228.12L957.719 1214.16M953.168 1228.12H914.307M953.168 1228.12H992.029M914.307 1228.12L918.1 1214.16M914.307 1228.12H875.445M875.445 1228.12L878.48 1214.16M957.719 1214.16H918.1M957.719 1214.16H997.339M922.043 1199.65L918.1 1214.16M922.043 1199.65L926.147 1184.55M922.043 1199.65H881.635M918.1 1214.16H878.48M997.339 1214.16H1036.96M997.339 1214.16L992.029 1228.12M878.48 1214.16L881.635 1199.65M992.029 1228.12H1030.89M926.147 1184.55L930.421 1168.83M926.147 1184.55H884.918M881.635 1199.65L882.443 1195.94L884.918 1184.55M884.918 1184.55L886.184 1178.73L887.47 1172.82L888.338 1168.83M972.506 1168.83L975.151 1160.72L977.852 1152.44M972.506 1168.83H930.421M972.506 1168.83H1014.59M930.421 1168.83L934.877 1152.44M930.421 1168.83H888.338M888.338 1168.83L891.901 1152.44M977.852 1152.44H934.877M977.852 1152.44H1020.83M939.524 1135.34L934.877 1152.44M939.524 1135.34L944.378 1117.48M939.524 1135.34H895.62M934.877 1152.44H891.901M1020.83 1152.44H1063.8M1020.83 1152.44L1014.59 1168.83M891.901 1152.44L895.62 1135.34M1014.59 1168.83H1056.67M944.378 1117.48L945.625 1112.89L949.451 1098.81M944.378 1117.48H899.503M895.62 1135.34L899.503 1117.48M899.503 1117.48L900 1115.19L901.509 1108.25L903.561 1098.81M995.341 1098.81L1001.71 1079.29M995.341 1098.81H949.451M995.341 1098.81H1041.23M949.451 1098.81L954.759 1079.29M949.451 1098.81H903.561M903.561 1098.81L907.807 1079.29M1001.71 1079.29H954.759M1001.71 1079.29H1048.66M960.318 1058.83L956.812 1071.73L954.759 1079.29M960.318 1058.83L966.146 1037.39M960.318 1058.83H912.254M954.759 1079.29H907.807M1048.66 1079.29H1095.61M1048.66 1079.29L1041.23 1098.81M907.807 1079.29L912.254 1058.83M1041.23 1098.81H1087.12M966.146 1037.39L972.265 1014.88M966.146 1037.39H916.917M912.254 1058.83L916.917 1037.39M916.917 1037.39L921.812 1014.88M1022.72 1014.88L1030.43 991.22M1022.72 1014.88H972.265M1022.72 1014.88H1073.17M972.265 1014.88L978.695 991.22M972.265 1014.88H921.812M921.812 1014.88L926.956 991.22M1030.43 991.22H978.695M1030.43 991.22H1082.17M985.461 966.324L978.695 991.22M985.461 966.324L992.591 940.091M985.461 966.324H932.369M978.695 991.22H926.956M1082.17 991.22H1133.91M1082.17 991.22L1073.17 1014.88M926.956 991.22L932.369 966.324M1073.17 1014.88H1123.62M992.591 940.091L1000.12 912.407M992.591 940.091H938.073M932.369 966.324L938.073 940.091M938.073 940.091L944.092 912.407M1056.14 912.407L1065.68 883.155M1056.14 912.407H1000.12M1056.14 912.407H1112.16M1000.12 912.407L1008.07 883.155M1000.12 912.407H944.092M944.092 912.407L950.453 883.155M1065.68 883.155H1008.07M1065.68 883.155H1123.29M1016.48 852.191L1008.07 883.155M1016.48 852.191L1025.4 819.367M1016.48 852.191H957.185M1008.07 883.155H950.453M1123.29 883.155H1180.91M1123.29 883.155L1112.16 912.407M950.453 883.155L957.185 852.191M1112.16 912.407H1168.18M1025.4 819.367L1034.88 784.502M1025.4 819.367L964.323 819.367M957.185 852.191L964.323 819.367M964.323 819.367L971.903 784.502M1097.85 784.502L1109.95 747.407M1097.85 784.502H1034.88M1097.85 784.502H1160.83M1034.88 784.502L1044.96 747.407M1034.88 784.502L971.903 784.502M971.903 784.502L979.969 747.407M1109.95 747.407H1044.96M1109.95 747.407H1174.95M1055.71 707.858L1044.96 747.407M1055.71 707.858L1067.2 665.602M1055.71 707.858H988.568M1044.96 747.407H979.969M1174.95 747.407H1239.94M1174.95 747.407L1160.83 784.502M979.969 747.407L988.568 707.858M1160.83 784.502H1223.81M1067.2 665.602L1079.49 620.353M1067.2 665.602H997.756M988.568 707.858L997.756 665.602M997.756 665.602L1007.6 620.353M1151.39 620.353L1167.23 571.78M1151.39 620.353H1079.49M1151.39 620.353H1223.29M1079.49 620.353L1092.7 571.78M1079.49 620.353H1007.6M1007.6 620.353L1018.16 571.78M1167.23 571.78H1092.7M1167.23 571.78H1241.77M1106.9 519.504L1092.7 571.78M1106.9 519.504L1122.24 463.083M1106.9 519.504H1029.52M1092.7 571.78H1018.16M1241.77 571.78H1316.31M1241.77 571.78L1223.29 620.353M1018.16 571.78L1029.52 519.504M1223.29 620.353H1295.19M1122.24 463.083L1138.84 402.006M1122.24 463.083H1041.79M1029.52 519.504L1041.79 463.083M1041.79 463.083L1055.07 402.006M1222.61 402.006L1244.24 335.671M1222.61 402.006H1138.84M1222.61 402.006H1306.37M1138.84 402.006L1156.87 335.671M1138.84 402.006H1055.07M1055.07 402.006L1069.49 335.671M1244.24 335.671H1156.87M1244.24 335.671H1331.62M1176.52 263.369L1156.87 335.671M1176.52 263.369L1198.02 184.255M1176.52 263.369H1085.22M1156.87 335.671H1069.49M1331.62 335.671H1418.99M1331.62 335.671L1306.37 402.006M1069.49 335.671L1085.22 263.369M1306.37 402.006H1390.14M1198.02 184.255L1221.65 97.3188M1198.02 184.255H1102.42M1085.22 263.369L1102.42 184.255M1102.42 184.255L1121.32 97.3188M1321.98 97.3188L1353.28 1.34094M1321.98 97.3188H1221.65M1321.98 97.3188H1422.31M1221.65 97.3188L1247.74 1.34094M1221.65 97.3188H1121.32M1121.32 97.3188L1142.19 1.34094M1247.74 1.34094H1353.28M1247.74 1.34094H1142.19M1353.28 1.34094L1439.61 1.34277M1422.31 97.3188L1439.61 51.8506M1422.31 97.3188H1439.61M1080.97 1278.97L1087.51 1266.95M1080.97 1278.97H1044.87M1080.97 1278.97H1117.07M1039.2 1290.58L1033.71 1301.78M1039.2 1290.58L1044.87 1278.97M1039.2 1290.58H1003.73M1033.71 1301.78H998.857M1033.71 1301.78L1028.42 1312.61M1062.69 1312.61H1028.42M1062.69 1312.61L1060.53 1316.57L1057 1323.08M1062.69 1312.61H1096.96M1044.87 1278.97L1050.75 1266.95M1044.87 1278.97H1008.78M1003.73 1290.58L998.857 1301.78M1003.73 1290.58L1008.78 1278.97M998.857 1301.78L995.311 1309.94L994.149 1312.61M1028.42 1312.61L1027.77 1313.94L1023.3 1323.08M1028.42 1312.61H994.149M1008.78 1278.97L1014 1266.95M959.881 1312.61L955.898 1323.08M959.881 1312.61H994.149M994.149 1312.61L992.424 1316.57L989.598 1323.08M1087.51 1266.95H1050.75M1087.51 1266.95H1124.26M1056.85 1254.48L1050.75 1266.95M1056.85 1254.48L1063.18 1241.55M1056.85 1254.48H1019.43M1050.75 1266.95H1014M1124.26 1266.95H1161.01M1124.26 1266.95L1117.07 1278.97M1014 1266.95L1019.43 1254.48M1117.07 1278.97H1153.16M1063.18 1241.55L1064.8 1238.24L1069.75 1228.12M1063.18 1241.55H1025.05M1019.43 1254.48L1025.05 1241.55M1025.05 1241.55L1030.89 1228.12M1108.61 1228.12L1109.55 1226.4L1116.2 1214.16M1108.61 1228.12H1069.75M1108.61 1228.12H1147.48M1069.75 1228.12L1076.58 1214.16M1069.75 1228.12H1030.89M1030.89 1228.12L1031.64 1226.4L1036.96 1214.16M1116.2 1214.16H1076.58M1116.2 1214.16H1155.82M1083.68 1199.65L1076.58 1214.16M1083.68 1199.65L1091.07 1184.55M1083.68 1199.65H1043.27M1076.58 1214.16H1036.96M1155.82 1214.16H1195.44M1155.82 1214.16L1147.48 1228.12M1036.96 1214.16L1043.27 1199.65M1147.48 1228.12H1186.34M1091.07 1184.55L1098.76 1168.83M1091.07 1184.55H1049.84M1043.27 1199.65L1049.84 1184.55M1049.84 1184.55L1056.67 1168.83M1140.84 1168.83L1149.75 1152.44M1140.84 1168.83H1098.76M1140.84 1168.83H1182.93M1098.76 1168.83L1106.78 1152.44M1098.76 1168.83H1056.67M1056.67 1168.83L1063.8 1152.44M1149.75 1152.44H1106.78M1149.75 1152.44H1192.73M1115.14 1135.34L1106.78 1152.44M1115.14 1135.34L1123.88 1117.48M1115.14 1135.34H1071.24M1106.78 1152.44H1063.8M1192.73 1152.44H1235.7M1192.73 1152.44L1182.93 1168.83M1063.8 1152.44L1071.24 1135.34M1182.93 1168.83H1225.01M1123.88 1117.48L1133.01 1098.81M1123.88 1117.48H1079M1071.24 1135.34L1079 1117.48M1079 1117.48L1087.12 1098.81M1178.9 1098.81L1189.52 1079.29M1178.9 1098.81H1133.01M1178.9 1098.81H1224.79M1133.01 1098.81L1142.57 1079.29M1133.01 1098.81H1087.12M1087.12 1098.81L1095.61 1079.29M1189.52 1079.29H1142.57M1189.52 1079.29H1236.47M1152.57 1058.83L1142.57 1079.29M1152.57 1058.83L1163.06 1037.39M1152.57 1058.83H1104.51M1142.57 1079.29H1095.61M1236.47 1079.29H1283.42M1236.47 1079.29L1224.79 1098.81M1095.61 1079.29L1104.51 1058.83M1224.79 1098.81H1270.68M1163.06 1037.39L1174.08 1014.88M1163.06 1037.39H1113.83M1104.51 1058.83L1113.83 1037.39M1113.83 1037.39L1123.62 1014.88M1224.53 1014.88L1237.39 991.22M1224.53 1014.88H1174.08M1224.53 1014.88H1274.98M1174.08 1014.88L1185.65 991.22M1174.08 1014.88H1123.62M1123.62 1014.88L1133.91 991.22M1237.39 991.22H1185.65M1237.39 991.22H1289.13M1197.83 966.324L1185.65 991.22M1197.83 966.324L1210.66 940.091M1197.83 966.324H1144.74M1185.65 991.22H1133.91M1289.13 991.22H1340.87M1289.13 991.22L1274.98 1014.88M1133.91 991.22L1144.74 966.324M1274.98 1014.88H1325.43M1210.66 940.091L1224.21 912.407M1210.66 940.091H1156.15M1144.74 966.324L1156.15 940.091M1156.15 940.091L1168.18 912.407M1280.23 912.407L1296.13 883.155M1280.23 912.407H1224.21M1280.23 912.407H1336.25M1224.21 912.407L1238.52 883.155M1224.21 912.407H1168.18M1168.18 912.407L1180.91 883.155M1296.13 883.155H1238.52M1296.13 883.155H1353.75M1253.67 852.191L1238.52 883.155M1253.67 852.191L1269.73 819.367M1253.67 852.191H1194.37M1238.52 883.155H1180.91M1353.75 883.155H1411.36M1353.75 883.155L1336.25 912.407M1180.91 883.155L1194.37 852.191M1336.25 912.407H1392.28M1269.73 819.367L1286.78 784.502M1269.73 819.367H1208.65M1194.37 852.191L1208.65 819.367M1208.65 819.367L1223.81 784.502M1349.76 784.502L1369.92 747.407M1349.76 784.502H1286.78M1349.76 784.502H1412.73M1286.78 784.502L1304.93 747.407M1286.78 784.502H1223.81M1223.81 784.502L1239.94 747.407M1369.92 747.407H1304.93M1369.92 747.407H1434.91M1324.28 707.858L1304.93 747.407M1324.28 707.858L1344.95 665.602M1324.28 707.858H1257.14M1304.93 747.407H1239.94M1434.91 747.407L1412.73 784.502M1434.91 747.407H1439.61M1434.91 747.407L1439.61 739.551M1239.94 747.407L1257.14 707.858M1412.73 784.502H1439.61M1344.95 665.602L1367.09 620.353M1344.95 665.602H1275.51M1257.14 707.858L1275.51 665.602M1275.51 665.602L1295.19 620.353M1438.99 620.353H1367.09M1438.99 620.353H1439.61M1438.99 620.353L1439.61 619.205M1367.09 620.353L1390.85 571.78M1367.09 620.353H1295.19M1295.19 620.353L1316.31 571.78M1416.43 519.504L1390.85 571.78M1416.43 519.504H1339.05M1416.43 519.504H1439.61M1416.43 519.504L1439.61 472.113M1390.85 571.78H1316.31M1390.85 571.78H1439.61M1316.31 571.78L1339.05 519.504M1339.05 519.504L1363.58 463.083M1363.58 463.083L1390.14 402.006M1363.58 463.083H1439.61M1390.14 402.006L1418.99 335.671M1390.14 402.006H1439.61M1418.99 335.671H1439.61M1418.99 335.671L1439.61 288.248M1225.36 1278.97L1234.51 1266.95M1225.36 1278.97H1189.26M1225.36 1278.97H1261.45M1181.06 1290.58L1173.14 1301.78M1181.06 1290.58L1189.26 1278.97M1181.06 1290.58H1145.59M1173.14 1301.78H1138.29M1173.14 1301.78L1165.49 1312.61M1199.76 1312.61H1165.49M1199.76 1312.61L1191.8 1323.08M1199.76 1312.61H1234.03M1189.26 1278.97L1197.76 1266.95M1189.26 1278.97H1153.16M1145.59 1290.58L1138.29 1301.78M1145.59 1290.58L1153.16 1278.97M1138.29 1301.78L1131.22 1312.61M1165.49 1312.61L1164.55 1313.94L1158.1 1323.08M1165.49 1312.61H1131.22M1153.16 1278.97L1161.01 1266.95M1096.96 1312.61L1090.7 1323.08M1096.96 1312.61H1131.22M1131.22 1312.61L1130.36 1313.94L1124.4 1323.08M1234.51 1266.95H1197.76M1234.51 1266.95H1271.26M1206.57 1254.48L1197.76 1266.95M1206.57 1254.48L1215.71 1241.55M1206.57 1254.48H1169.14M1197.76 1266.95H1161.01M1271.26 1266.95H1308.01M1271.26 1266.95L1261.45 1278.97M1161.01 1266.95L1169.14 1254.48M1261.45 1278.97H1297.55M1215.71 1241.55L1225.2 1228.12M1215.71 1241.55H1177.58M1169.14 1254.48L1170.18 1252.9L1177.58 1241.55M1177.58 1241.55L1186.34 1228.12M1264.06 1228.12L1274.68 1214.16M1264.06 1228.12H1225.2M1264.06 1228.12H1302.92M1225.2 1228.12L1235.06 1214.16M1225.2 1228.12H1186.34M1186.34 1228.12L1195.44 1214.16M1274.68 1214.16H1235.06M1274.68 1214.16H1314.3M1245.31 1199.65L1235.06 1214.16M1245.31 1199.65L1255.98 1184.55M1245.31 1199.65H1204.9M1235.06 1214.16H1195.44M1314.3 1214.16H1353.92M1314.3 1214.16L1302.92 1228.12M1195.44 1214.16L1204.9 1199.65M1302.92 1228.12H1341.78M1255.98 1184.55L1267.1 1168.83M1255.98 1184.55H1214.75M1204.9 1199.65L1214.75 1184.55M1214.75 1184.55L1225.01 1168.83M1309.18 1168.83L1321.66 1152.44M1309.18 1168.83H1267.1M1309.18 1168.83H1351.27M1267.1 1168.83L1278.68 1152.44M1267.1 1168.83H1225.01M1225.01 1168.83L1235.7 1152.44M1321.66 1152.44H1278.68M1321.66 1152.44H1364.63M1290.76 1135.34L1278.68 1152.44M1290.76 1135.34L1303.38 1117.48M1290.76 1135.34H1246.86M1278.68 1152.44H1235.7M1364.63 1152.44H1407.61M1364.63 1152.44L1351.27 1168.83M1235.7 1152.44L1246.86 1135.34M1351.27 1168.83H1393.35M1303.38 1117.48L1316.57 1098.81M1303.38 1117.48H1258.51M1246.86 1135.34L1258.51 1117.48M1258.51 1117.48L1270.68 1098.81M1362.46 1098.81L1377.32 1079.29M1362.46 1098.81H1316.57M1362.46 1098.81H1408.35M1316.57 1098.81L1330.37 1079.29M1316.57 1098.81H1270.68M1270.68 1098.81L1283.42 1079.29M1377.32 1079.29H1330.37M1344.83 1058.83L1330.37 1079.29M1344.83 1058.83L1359.98 1037.39M1344.83 1058.83H1296.76M1330.37 1079.29H1283.42M1283.42 1079.29L1296.76 1058.83M1408.35 1098.81H1439.61M1359.98 1037.39L1375.89 1014.88M1359.98 1037.39H1310.75M1296.76 1058.83L1310.75 1037.39M1310.75 1037.39L1325.43 1014.88M1426.34 1014.88H1375.89M1426.34 1014.88H1439.61M1426.34 1014.88L1439.61 997.439M1375.89 1014.88L1392.61 991.22M1375.89 1014.88H1325.43M1325.43 1014.88L1340.87 991.22M1410.2 966.324L1392.61 991.22M1410.2 966.324L1428.74 940.091M1410.2 966.324H1357.11M1410.2 966.324H1439.61M1392.61 991.22H1340.87M1392.61 991.22H1439.61M1340.87 991.22L1357.11 966.324M1439.76 997.247L1439.61 997.439M1428.74 940.091H1374.22M1428.74 940.091H1439.61M1428.74 940.091L1439.61 924.702M1357.11 966.324L1374.22 940.091M1374.22 940.091L1392.28 912.407M1392.28 912.407L1411.36 883.155M1392.28 912.407H1439.61M1431.56 852.191L1411.36 883.155M1431.56 852.191H1439.61M1431.56 852.191L1439.61 839.841M1411.36 883.155H1439.61M1369.74 1278.97L1381.51 1266.95M1369.74 1278.97H1333.65M1369.74 1278.97H1405.84M1322.93 1290.58L1312.57 1301.78M1322.93 1290.58L1333.65 1278.97M1322.93 1290.58H1287.46M1312.57 1301.78H1277.71M1312.57 1301.78L1302.57 1312.61M1336.84 1312.61H1302.57M1336.84 1312.61L1326.6 1323.08M1336.84 1312.61H1371.1M1333.65 1278.97L1344.76 1266.95M1333.65 1278.97H1297.55M1287.46 1290.58L1277.71 1301.78M1287.46 1290.58L1297.55 1278.97M1277.71 1301.78L1268.3 1312.61M1302.57 1312.61H1268.3M1302.57 1312.61L1292.89 1323.08M1297.55 1278.97L1308.01 1266.95M1234.03 1312.61L1225.5 1323.08M1234.03 1312.61H1268.3M1268.3 1312.61L1259.2 1323.08M1381.51 1266.95H1344.76M1381.51 1266.95H1418.26M1356.28 1254.48L1344.76 1266.95M1356.28 1254.48L1368.23 1241.55M1356.28 1254.48H1318.85M1344.76 1266.95H1308.01M1418.26 1266.95L1405.84 1278.97M1418.26 1266.95H1439.61M1308.01 1266.95L1318.85 1254.48M1405.84 1278.97H1439.61M1368.23 1241.55L1380.64 1228.12M1368.23 1241.55H1330.1M1318.85 1254.48L1330.1 1241.55M1330.1 1241.55L1341.78 1228.12M1419.5 1228.12L1433.16 1214.16M1419.5 1228.12H1380.64M1419.5 1228.12H1439.61M1380.64 1228.12L1393.54 1214.16M1380.64 1228.12H1341.78M1341.78 1228.12L1353.92 1214.16M1406.95 1199.65L1393.54 1214.16M1406.95 1199.65L1420.9 1184.55M1406.95 1199.65H1366.54M1406.95 1199.65H1439.61M1393.54 1214.16H1433.16M1393.54 1214.16H1353.92M1433.16 1214.16L1439.61 1207.57M1433.16 1214.16H1439.61M1353.92 1214.16L1366.54 1199.65M1420.9 1184.55L1435.43 1168.83M1420.9 1184.55H1379.67M1420.9 1184.55H1439.61M1366.54 1199.65L1379.67 1184.55M1379.67 1184.55L1393.35 1168.83M1435.43 1168.83H1393.35M1435.43 1168.83L1439.61 1164.31M1435.43 1168.83H1439.61M1393.35 1168.83L1407.61 1152.44M1422.48 1135.34L1407.61 1152.44M1422.48 1135.34L1438.01 1117.48M1422.48 1135.34H1439.61M1407.61 1152.44H1439.61M1439.84 1152.44H1439.61M1438.01 1117.48H1439.61M1438.01 1117.48L1439.61 1115.64M1440 1115.19L1439.61 1115.64M1429.32 1290.58L1417.14 1301.78M1429.32 1290.58H1439.61M1429.32 1290.58L1439.61 1281.12M1417.14 1301.78L1405.37 1312.61M1417.14 1301.78H1439.61M1371.1 1312.61L1360.29 1323.08M1371.1 1312.61H1405.37M1405.37 1312.61L1393.99 1323.08M1405.37 1312.61H1439.61M248.204 1323.08H214.504M248.204 1323.08H281.904M222.76 1333.2L220.722 1330.7L214.504 1323.08M222.76 1333.2H189.61M214.504 1323.08H180.805M189.61 1333.2L187.437 1330.7L186.342 1329.44L180.805 1323.08M180.805 1323.08H147.105M147.105 1323.08H113.405M281.904 1323.08H315.603M113.405 1323.08H79.7052M79.7052 1323.08L90.1628 1333.2M79.7052 1323.08H46.0057M90.1628 1333.2H57.0134M383.003 1323.08H349.303M383.003 1323.08H416.703M355.357 1333.2L353.863 1330.7L353.11 1329.44L349.303 1323.08M355.357 1333.2H322.208M349.303 1323.08H315.603M322.208 1333.2L315.603 1323.08M416.703 1323.08H450.402M517.802 1323.08L484.102 1323.08M517.802 1323.08H551.501M487.955 1333.2L487.48 1331.95L487.004 1330.7L486.525 1329.44L484.102 1323.08M487.955 1333.2H454.806M484.102 1323.08H450.402M454.806 1333.2L450.402 1323.08M551.501 1323.08H585.202M652.601 1323.08H618.901M652.601 1323.08H686.3M620.552 1333.2L618.901 1323.08M620.552 1333.2H587.402M618.901 1323.08H585.202M587.402 1333.2L587.131 1331.95L586.859 1330.7L586.585 1329.44L585.202 1323.08M686.3 1323.08H720M787.399 1323.08H753.7M787.399 1323.08H821.099M753.149 1333.2L753.7 1323.08M753.149 1333.2H720M753.7 1323.08H720M720 1333.2V1323.08M821.099 1323.08H854.799M922.198 1323.08H888.499M922.198 1323.08H955.898M885.747 1333.2L886.426 1330.7L887.802 1325.64L888.499 1323.08M885.747 1333.2H852.598M888.499 1323.08H854.799M852.598 1333.2L852.869 1331.95L853.141 1330.7L853.415 1329.44L854.799 1323.08M955.898 1323.08H989.598M1057 1323.08H1023.3M1057 1323.08H1090.7M1018.34 1333.2L1019.57 1330.7L1020.18 1329.44L1023.3 1323.08M1018.34 1333.2H985.194M1023.3 1323.08H989.598M985.194 1333.2L985.737 1331.95L989.598 1323.08M1090.7 1323.08H1124.4M1191.8 1323.08H1158.1M1191.8 1323.08H1225.5M1150.94 1333.2L1152.71 1330.7L1153.6 1329.44L1158.1 1323.08M1150.94 1333.2H1117.79M1158.1 1323.08H1124.4M1117.79 1333.2L1118.61 1331.95L1124.4 1323.08M1225.5 1323.08H1259.2M1326.6 1323.08H1292.89M1326.6 1323.08H1360.29M1283.54 1333.2L1292.89 1323.08M1283.54 1333.2H1250.39M1292.89 1323.08H1259.2M1250.39 1333.2L1252.56 1330.7L1253.66 1329.44L1259.2 1323.08M1360.29 1323.08H1393.99M1416.14 1333.2L1427.69 1323.08M1416.14 1333.2H1382.99M1416.14 1333.2H1439.61M1427.69 1323.08H1393.99M1427.69 1323.08L1439.61 1312.63M1427.69 1323.08H1439.61M1382.99 1333.2L1385.7 1330.7L1393.99 1323.08M57.0134 1333.2L54.2954 1330.7L46.0057 1323.08M46.0057 1323.08H12.306M12.306 1323.08L0.387451 1312.63M12.306 1323.08H0.387451M0.387451 839.841V852.191M0.387451 839.841V819.367M0.387451 852.191V883.155M0.387451 819.367V813.248V784.502M0.387451 784.502V747.407M0.387451 1079.29V1098.81M0.387451 1079.29V1060.48M0.387451 1333.2V1323.08M0.387451 1323.08V1312.63M0.387451 1312.63L0.358276 1312.61H0.387451M0.387451 1312.63V1312.61M0.387451 1312.61V1301.78M0.387451 1301.78V1290.58M0.387451 1290.58V1281.12M0.387451 1281.12V1278.97M0.387451 1278.97V1266.95M0.387451 1266.95V1254.48M0.387451 1254.48V1246.28M0.387451 1246.28V1241.55M0.387451 1241.55V1228.12M0.387451 1228.12V1214.16M0.387451 1214.16V1207.57M0.387451 1207.57V1199.65M0.387451 1199.65V1184.55M0.387451 1184.55V1168.83M0.387451 1168.83V1164.31M0.387451 1164.31V1152.44M0.387451 1152.44V1135.34M0.387451 1135.34V1117.48M0.387451 1117.48V1115.64M0.387451 1115.64V1098.81M0.387451 1058.83V1037.39M0.387451 1058.83V1060.48M0.387451 1037.39V1014.88M0.387451 1014.88V997.439M0.387451 997.439V991.22M0.387451 991.22V966.324M0.387451 966.324V940.091M0.387451 940.091V924.702M0.387451 924.702V912.407M0.387451 912.407V883.155M0.387451 747.407V739.551M0.387451 739.551V707.858M0.387451 707.858V665.602M0.387451 665.602V620.353M0.387451 620.353V619.205M0.387451 619.205V571.78M0.387451 571.78V519.504M0.387451 519.504V472.113M0.387451 472.113V463.083M0.387451 463.083L0.387451 402.006M0.387451 402.006V335.671M0.387451 335.671V288.248M0.387451 288.248V263.369M0.387451 263.369V184.255M0.387451 184.255V97.3188M0.387451 97.3188V51.8506M0.387451 51.8506V1.34277M0.387451 1.34277V1L1439.61 1V1.34277M1439.61 1058.83V1037.39M1439.61 1058.83V1060.48M1439.61 1060.48V1079.29M1439.61 1079.29V1098.81M1439.61 1098.81V1115.64M1439.61 1115.64V1117.48M1439.61 1117.48V1135.34M1439.61 1135.34V1152.44M1439.61 1152.44V1164.31M1439.61 1164.31V1168.83M1439.61 1168.83V1184.55M1439.61 1184.55V1199.65M1439.61 1199.65V1207.57M1439.61 1207.57V1214.16M1439.61 1214.16V1228.12M1439.61 1228.12V1241.55M1439.61 1241.55V1246.28M1439.61 1246.28V1254.48M1439.61 1254.48V1266.95M1439.61 1266.95V1278.97M1439.61 1278.97V1281.12M1439.61 1281.12V1290.58M1439.61 1290.58V1301.78M1439.61 1301.78V1312.61M1439.61 1312.61H1439.64L1439.61 1312.63M1439.61 1312.61V1312.63M1439.61 1312.63V1323.08M1439.61 1323.08V1333.2M1439.61 1.34277V51.8506M1439.61 51.8506V97.3188M1439.61 97.3188V184.253M1439.61 184.253V263.369M1439.61 263.369V288.248M1439.61 288.248V335.671M1439.61 335.671V402.006M1439.61 402.006L1439.61 463.083M1439.61 463.083V472.113M1439.61 472.113V519.504M1439.61 519.504V571.78M1439.61 571.78V619.205M1439.61 619.205V620.353M1439.61 620.353V665.602M1439.61 665.602V707.858M1439.61 707.858V739.551M1439.61 739.551V747.407M1439.61 747.407V784.502M1439.61 784.502V819.367M1439.61 819.367V839.841M1439.61 839.841V852.191M1439.61 852.191V883.155M1439.61 883.155V912.407M1439.61 912.407V924.702M1439.61 924.702V940.091M1439.61 940.091V966.324M1439.61 966.324V991.22M1439.61 991.22V997.439M1439.61 997.439V1014.88M1439.61 1014.88V1037.39" stroke="url(#paint0_linear_127_155)" stroke-miterlimit="10" stroke-linecap="round" stroke-linejoin="round"/>
<defs>
<linearGradient id="paint0_linear_127_155" x1="720" y1="1.00088" x2="720" y2="9828.64" gradientUnits="userSpaceOnUse">
<stop stop-color="#AFA4F1"/>
<stop offset="0.0480846" stop-color="#F7F3F0"/>
</linearGradient>
</defs>
</svg>
