<svg width="382" height="400" viewBox="0 0 382 400" fill="none" xmlns="http://www.w3.org/2000/svg">
<g clip-path="url(#clip0_240_539)">
<rect width="382" height="400" rx="6" fill="#F7F3F0"/>
<path d="M360.922 -7H372.565L375.607 -3.28722M360.922 -7H349.28M360.922 -7L363.774 -3.28722M349.28 -7H337.637M349.28 -7L351.942 -3.28722M337.637 -7H325.994M337.637 -7L340.109 -3.28722M325.994 -7H314.352M325.994 -7L328.276 -3.28722M314.352 -7H302.709M314.352 -7L316.443 -3.28722M302.709 -7H291.066M302.709 -7L304.61 -3.28722M291.066 -7H279.424M291.066 -7L291.489 -6.08276L292.129 -4.69409L292.777 -3.28722M279.424 -7H267.781M279.424 -7L279.799 -6.08276L280.945 -3.28722M267.781 -7H256.138M267.781 -7L269.112 -3.28722M256.138 -7H244.496M256.138 -7L256.562 -5.62158L256.991 -4.22709L257.135 -3.75788L257.279 -3.28722M244.496 -7H232.853M244.496 -7L244.848 -5.62158L244.967 -5.15894L245.086 -4.69409L245.446 -3.28722M232.853 -7H221.21M232.853 -7L233.614 -3.28722M221.21 -7L221.281 -6.54248L221.351 -6.08276L221.708 -3.75788L221.781 -3.28722M221.21 -7H209.568M209.568 -7H197.925M209.568 -7L209.948 -3.28722M197.925 -7H186.282M197.925 -7L197.996 -5.62158L198.115 -3.28722M186.282 -7H174.64M186.282 -7V-3.28722M174.64 -7H162.997M174.64 -7L174.569 -5.62158L174.45 -3.28722M162.997 -7H151.354M162.997 -7L162.617 -3.28722M151.354 -7L151.284 -6.54248L151.214 -6.08276L150.857 -3.75788L150.784 -3.28722M151.354 -7H139.712M139.712 -7H128.069M139.712 -7L139.048 -3.75788L138.951 -3.28722M128.069 -7H116.426M128.069 -7L127.716 -5.62158L127.598 -5.15894L127.359 -4.22709L127.239 -3.75788L127.118 -3.28722M116.426 -7H104.784M116.426 -7L116.003 -5.62158L115.574 -4.22709L115.43 -3.75788L115.286 -3.28722M104.784 -7H93.1413M104.784 -7L103.453 -3.28722M93.1413 -7H81.4985M93.1413 -7L92.7657 -6.08276L91.6202 -3.28722M81.4985 -7H69.8559M81.4985 -7L79.7874 -3.28722M69.8559 -7H58.2134M69.8559 -7L67.9546 -3.28722M58.2134 -7H46.5705M58.2134 -7L56.1218 -3.28722M46.5705 -7H34.928M46.5705 -7L44.289 -3.28722M34.928 -7H23.2854M34.928 -7L32.4561 -3.28722M23.2854 -7H11.6428M23.2854 -7L20.6233 -3.28722M11.6428 -7H0M11.6428 -7L8.79053 -3.28722M8.79053 -3.28722H20.6233M8.79053 -3.28722L8.06301 -2.34004L5.84376 0.548179M20.6233 -3.28722L17.873 0.548179M20.6233 -3.28722H32.4561M56.1218 -3.28722H67.9546M56.1218 -3.28722H44.289M56.1218 -3.28722L55.5882 -2.34004L55.3196 -1.86426L53.9606 0.548179M67.9546 -3.28722L67.7125 -2.81509L67.4695 -2.34004L65.9901 0.548179M67.9546 -3.28722H79.7874M103.453 -3.28722L103.283 -2.81509L102.078 0.548179M103.453 -3.28722H115.286M103.453 -3.28722H91.6202M115.286 -3.28722L114.995 -2.34004L114.848 -1.86426L114.701 -1.38556L114.107 0.548179M115.286 -3.28722H127.118M150.784 -3.28722H162.617M150.784 -3.28722H138.951M150.784 -3.28722L150.195 0.548179M162.617 -3.28722L162.568 -2.81509L162.52 -2.34004L162.471 -1.86426L162.323 -0.423069L162.224 0.548179M162.617 -3.28722H174.45M198.115 -3.28722H209.948M198.115 -3.28722H186.282M198.115 -3.28722L198.312 0.548179M209.948 -3.28722L209.996 -2.81509L210.045 -2.34004L210.094 -1.86426L210.341 0.548179M209.948 -3.28722H221.781M245.446 -3.28722H257.279M245.446 -3.28722H233.614M245.446 -3.28722L245.689 -2.34004L246.18 -0.423069L246.304 0.0614643L246.429 0.548179M257.279 -3.28722L257.57 -2.34004L257.717 -1.86426L257.864 -1.38556L258.458 0.548179M257.279 -3.28722H269.112M292.777 -3.28722H304.61M292.777 -3.28722H280.945M292.777 -3.28722L293.214 -2.34004L293.434 -1.86426L294.546 0.548179M304.61 -3.28722L304.852 -2.81509L305.095 -2.34004L306.575 0.548179M304.61 -3.28722H316.443M340.109 -3.28722H351.942M340.109 -3.28722H328.276M340.109 -3.28722L340.739 -2.34004L341.057 -1.86426L342.663 0.548179M351.942 -3.28722L354.692 0.548179M351.942 -3.28722H363.774M9.04498 12.8592L12.0886 8.61445M9.04498 12.8592L5.893 17.255M9.04498 12.8592H21.7049M9.04498 12.8592H0.0331769M12.0886 8.61445H24.5312M12.0886 8.61445L15.0298 4.51345M12.0886 8.61445H0.0331769L2.79747 4.51345M10.5568 108.775L14.7178 100.651M10.5568 108.775L6.18866 117.303M10.5568 108.775H28.1292M10.5568 108.775H0.0331769M14.7178 100.651L18.6864 92.9032M14.7178 100.651H31.8742M14.7178 100.651H0.0331769M10.0786 78.4344H26.097M10.0786 78.4344L13.8899 71.67M10.0786 78.4344L6.09474 85.5054M10.0786 78.4344H0.0331769M26.097 78.4344L29.5621 71.67M26.097 78.4344L22.4755 85.5054M26.097 78.4344H42.1155M13.8899 71.67H29.5621M13.8899 71.67L17.5398 65.1915M13.8899 71.67H0.0331769M29.5621 71.67L32.8803 65.1915M29.5621 71.67H45.234M24.395 53.0242H39.112M24.395 53.0242L27.6179 47.304M24.395 53.0242H9.67806M24.395 53.0242L21.0386 58.9817M39.112 53.0242L39.485 52.2967L42.0419 47.304M39.112 53.0242L36.0609 58.9817M39.112 53.0242H53.8292M27.6179 47.304H42.0419M27.6179 47.304H13.194M27.6179 47.304L30.7151 41.807M42.0419 47.304L44.8576 41.807M42.0419 47.304H56.4661M36.5599 31.4327H50.1712M36.5599 31.4327L39.321 26.5326M36.5599 31.4327H22.9488M36.5599 31.4327L33.6934 36.5203M50.1712 31.4327L52.6811 26.5326M50.1712 31.4327L49.2056 33.3183L47.5651 36.5203M50.1712 31.4327H63.7823M39.321 26.5326H52.6811M39.321 26.5326H25.9609M39.321 26.5326L41.9817 21.8099M52.6811 26.5326L55.0999 21.8099M52.6811 26.5326H66.0412M47.0243 12.8592H59.6842M47.0243 12.8592L49.4159 8.61445M47.0243 12.8592H34.3647M47.0243 12.8592L44.548 17.255M59.6842 12.8592L61.322 9.66232L61.5907 9.13693L61.8585 8.61445M59.6842 12.8592L57.4329 17.255M59.6842 12.8592H72.3441M49.4159 8.61445H61.8585M49.4159 8.61445L51.7266 4.51345M49.4159 8.61445H36.9736M61.8585 8.61445H74.3009M61.8585 8.61445L63.9589 4.51345M13.9857 326.342L20.554 304.967M13.9857 326.342L6.87498 349.479M13.9857 326.342H42.7017M13.9857 326.342H0.0331769M20.554 304.967L26.6402 285.164M20.554 304.967H48.1754M20.554 304.967H0.0331769M12.7765 249.621H37.563M12.7765 249.621L18.5159 233.613M12.7765 249.621L6.63042 266.762M12.7765 249.621H0.0331769M37.563 249.621L42.4826 233.613M37.563 249.621L32.2951 266.762M37.563 249.621H62.3495M18.5159 233.613H42.4826M18.5159 233.613L23.8877 218.63M18.5159 233.613H0.0331769M42.4826 233.613L47.087 218.63M42.4826 233.613H66.4492M33.6613 191.37H55.4644M33.6613 191.37L38.1201 178.935M33.6613 191.37H11.8585M33.6613 191.37L28.9261 204.578M55.4644 191.37L59.2861 178.935M55.4644 191.37L51.4056 204.578M55.4644 191.37H77.2674M38.1201 178.935H59.2861M38.1201 178.935H16.9539M38.1201 178.935L42.3255 167.204M59.2861 178.935L62.8908 167.204M59.2861 178.935H80.452M50.0586 145.635H69.5193M50.0586 145.635L53.6218 135.697M50.0586 145.635H30.5981M50.0586 145.635L46.2987 156.123M69.5193 145.635L72.5734 135.697M69.5193 145.635L66.2965 156.123M69.5193 145.635H88.9798M53.6218 135.697H72.5734M53.6218 135.697H34.6703M53.6218 135.697L57.0034 126.266M72.5734 135.697L75.4717 126.266M72.5734 135.697H91.525M63.2745 108.775H80.847M63.2745 108.775L66.1873 100.651M63.2745 108.775H45.7017M63.2745 108.775L60.2169 117.303M80.847 108.775L83.3437 100.651M80.847 108.775L78.2261 117.303M80.847 108.775H98.4195M66.1873 100.651H83.3437M66.1873 100.651H49.0306M66.1873 100.651L68.9652 92.9032M83.3437 100.651L85.7248 92.9032M83.3437 100.651H100.5M74.1526 78.4344H90.1713M74.1526 78.4344L76.5782 71.67M74.1526 78.4344H58.1342M74.1526 78.4344L71.6176 85.5054M90.1713 78.4344L92.2501 71.67M90.1713 78.4344L87.9984 85.5054M90.1713 78.4344H106.19M76.5782 71.67H92.2501M76.5782 71.67H60.9059M76.5782 71.67L78.901 65.1915M92.2501 71.67L94.2411 65.1915M92.2501 71.67H107.922M83.2632 53.0242H97.9804M83.2632 53.0242L85.3141 47.304M83.2632 53.0242H68.5462M83.2632 53.0242L81.1271 58.9817M97.9804 53.0242L97.7554 53.7554L96.1494 58.9817M97.9804 53.0242L99.7381 47.304M97.9804 53.0242H112.697M85.3141 47.304H99.7381M85.3141 47.304H70.8901M85.3141 47.304L87.285 41.807M99.7381 47.304L101.428 41.807M99.7381 47.304H114.162M91.0045 31.4327H104.616M91.0045 31.4327L92.7614 26.5326M91.0045 31.4327H77.3934M91.0045 31.4327L89.1805 36.5203M104.616 31.4327L106.122 26.5326M104.616 31.4327L104.036 33.3183L103.645 34.5902L103.052 36.5203M104.616 31.4327H118.227M92.7614 26.5326H106.122M92.7614 26.5326H79.4013M92.7614 26.5326L94.4546 21.8099M106.122 26.5326L106.672 24.7412L107.035 23.5605L107.573 21.8099M106.122 26.5326H119.482M97.6639 12.8592H110.323M97.6639 12.8592L98.8101 9.66232L99.1855 8.61445M97.6639 12.8592H85.004M97.6639 12.8592L96.2877 16.6968L96.0879 17.255M110.323 12.8592L111.306 9.66232L111.467 9.13693L111.628 8.61445M110.323 12.8592L109.654 15.0374L108.973 17.255M110.323 12.8592H122.983M99.1855 8.61445H111.628M99.1855 8.61445L100.656 4.51345M99.1855 8.61445H86.7432M111.628 8.61445H124.07M111.628 8.61445L112.888 4.51345M88.5084 402H121.1M88.5084 402H55.9171M88.5084 402L92.7173 374.609M121.1 402L123.906 374.609M121.1 402H153.691M100.134 326.342H128.85M100.134 326.342L103.418 304.967M100.134 326.342H71.4178M100.134 326.342L96.5786 349.479M128.85 326.342L131.04 304.967M128.85 326.342L126.48 349.479M128.85 326.342H157.566M103.418 304.967H131.04M103.418 304.967H75.7969M103.418 304.967L106.461 285.164M131.04 304.967L133.068 285.164M131.04 304.967H158.661M111.923 249.621H136.709M111.923 249.621L114.383 233.613M111.923 249.621H87.1363M111.923 249.621L109.289 266.762M136.709 249.621L138.349 233.613M136.709 249.621L134.953 266.762M136.709 249.621H161.496M114.383 233.613H138.349M114.383 233.613H90.4159M114.383 233.613L116.685 218.63M138.349 233.613L139.884 218.63M138.349 233.613H162.316M120.874 191.37H142.676M120.874 191.37L122.784 178.935M120.874 191.37H99.0705M120.874 191.37L118.844 204.578M142.676 191.37L143.95 178.935M142.676 191.37L141.323 204.578M142.676 191.37H164.479M122.784 178.935H143.95M122.784 178.935H101.618M122.784 178.935L124.587 167.204M143.95 178.935L145.152 167.204M143.95 178.935H165.116M127.901 145.635H147.361M127.901 145.635L129.428 135.697M127.901 145.635H108.44M127.901 145.635L126.289 156.123M147.361 145.635L148.379 135.697M147.361 145.635L146.287 156.123M147.361 145.635H166.822M129.428 135.697H148.379M129.428 135.697H110.477M129.428 135.697L130.877 126.266M148.379 135.697L149.346 126.266M148.379 135.697H167.331M133.565 108.775H151.137M133.565 108.775L134.813 100.651M133.565 108.775H115.992M133.565 108.775L132.254 117.303M151.137 108.775L151.97 100.651M151.137 108.775L150.264 117.303M151.137 108.775H168.71M134.813 100.651H151.97M134.813 100.651H117.657M134.813 100.651L135.266 97.7033L136.004 92.9032M151.97 100.651L152.763 92.9032M151.97 100.651H169.126M138.227 78.4344H154.245M138.227 78.4344L139.266 71.67M138.227 78.4344H122.208M138.227 78.4344L137.417 83.7081L137.14 85.5054M154.245 78.4344L154.509 75.8629L154.938 71.67M154.245 78.4344L153.521 85.5054M154.245 78.4344H170.264M139.266 71.67L139.393 70.8446L140.262 65.1915M139.266 71.67H154.938M139.266 71.67H123.594M154.938 71.67L155.191 69.2079L155.274 68.3957L155.357 67.5887L155.602 65.1915M154.938 71.67H170.611M142.131 53.0242H156.848M142.131 53.0242L142.575 50.1353L142.685 49.4224L142.794 48.7124L142.902 48.0067L143.01 47.304M142.131 53.0242H127.414M142.131 53.0242L141.216 58.9817M156.848 53.0242L157.29 48.7124L157.363 48.0067L157.434 47.304M156.848 53.0242L156.238 58.9817M156.848 53.0242H171.566M143.01 47.304H157.434M143.01 47.304H128.586M143.01 47.304L143.542 43.843L143.647 43.1607L143.855 41.807M157.434 47.304L157.789 43.843L157.859 43.1607L157.928 42.482L157.997 41.807M157.434 47.304H171.858M145.449 31.4327H159.06M145.449 31.4327L146.202 26.5326M145.449 31.4327H131.838M145.449 31.4327L145.256 32.6863L144.964 34.5902L144.667 36.5203M159.06 31.4327L158.996 32.058L158.605 35.8737L158.539 36.5203M159.06 31.4327L159.562 26.5326M159.06 31.4327H172.671M146.202 26.5326H159.562M146.202 26.5326H132.842M146.202 26.5326L146.928 21.8099M159.562 26.5326L159.746 24.7412L159.806 24.1494L159.867 23.5605L160.046 21.8099M159.562 26.5326H172.922M148.303 12.8592H160.963M148.303 12.8592L148.794 9.66232L148.955 8.61445M148.303 12.8592H135.643M148.303 12.8592L148.052 14.4894L147.968 15.0374L147.884 15.5884L147.627 17.255M160.963 12.8592L161.018 12.3207L161.128 11.2502L161.236 10.1892L161.398 8.61445M160.963 12.8592L160.74 15.0374L160.683 15.5884L160.57 16.6968L160.513 17.255M160.963 12.8592H173.623M148.955 8.61445H161.398M148.955 8.61445L149.508 5.01842L149.586 4.51345M148.955 8.61445H136.513M161.398 8.61445L161.451 8.09417L161.504 7.57606L161.557 7.06015L161.609 6.54645L161.766 5.01842L161.818 4.51345M161.398 8.61445H173.84M218.874 402H251.465M218.874 402H186.282M218.874 402L217.471 374.609M251.465 402L248.659 374.609M251.465 402H284.057M214.998 326.342H243.715M214.998 326.342L213.904 304.967M214.998 326.342H186.282M214.998 326.342L216.184 349.479M243.715 326.342L241.525 304.967M243.715 326.342L246.085 349.479M243.715 326.342H272.431M213.904 304.967H241.525M213.904 304.967H186.282M213.904 304.967L212.889 285.164M241.525 304.967L239.497 285.164M241.525 304.967H269.147M211.069 249.621H235.856M211.069 249.621L210.249 233.613M211.069 249.621H186.282M211.069 249.621L211.947 266.762M235.856 249.621L234.216 233.613M235.856 249.621L237.611 266.762M235.856 249.621H260.642M210.249 233.613H234.216M210.249 233.613H186.282M210.249 233.613L209.482 218.63M234.216 233.613L232.681 218.63M234.216 233.613H258.182M208.085 191.37H229.889M208.085 191.37L207.448 178.935M208.085 191.37H186.282M208.085 191.37L208.762 204.578M229.889 191.37L228.615 178.935M229.889 191.37L231.241 204.578M229.889 191.37H251.691M207.448 178.935H228.615M207.448 178.935H186.282M207.448 178.935L206.848 167.204M228.615 178.935L227.413 167.204M228.615 178.935H249.781M205.743 145.635H225.203M205.743 145.635L205.234 135.697M205.743 145.635H186.282M205.743 145.635L206.28 156.123M225.203 145.635L224.186 135.697M225.203 145.635L226.278 156.123M225.203 145.635H244.664M205.234 135.697H224.186M205.234 135.697H186.282M205.234 135.697L204.751 126.266M224.186 135.697L223.219 126.266M224.186 135.697H243.137M203.855 108.775H221.428M203.855 108.775L203.439 100.651M203.855 108.775H186.282M203.855 108.775L204.292 117.303M221.428 108.775L220.595 100.651M221.428 108.775L222.301 117.303M221.428 108.775H239M203.439 100.651H220.595M203.439 100.651H186.282M203.439 100.651L203.042 92.9032M220.595 100.651L219.802 92.9032M220.595 100.651H237.752M202.301 78.4344H218.32M202.301 78.4344L201.954 71.67M202.301 78.4344H186.282M202.301 78.4344L202.663 85.5054M218.32 78.4344L217.711 72.4996L217.627 71.67M218.32 78.4344L219.044 85.5054M218.32 78.4344H234.338M201.954 71.67L201.912 70.8446L201.623 65.1915M201.954 71.67H217.627M201.954 71.67H186.282M217.627 71.67L217.374 69.2079L217.291 68.3957L217.208 67.5887L216.963 65.1915M217.627 71.67H233.298M200.999 53.0242H215.717M200.999 53.0242L200.706 47.304M200.999 53.0242H186.282M200.999 53.0242L201.112 55.2295L201.151 55.9723L201.189 56.7188L201.266 58.2235L201.305 58.9817M215.717 53.0242L215.275 48.7124L215.13 47.304M215.717 53.0242L216.327 58.9817M215.717 53.0242H230.434M200.706 47.304H215.13M200.706 47.304H186.282M200.706 47.304L200.425 41.807M215.13 47.304L214.776 43.843L214.706 43.1607L214.637 42.482L214.567 41.807M215.13 47.304H229.555M199.894 31.4327H213.505M199.894 31.4327L199.643 26.5326M199.894 31.4327H186.282M199.894 31.4327L200.154 36.5203M213.505 31.4327L213.569 32.058L213.96 35.8737L214.026 36.5203M213.505 31.4327L213.003 26.5326M213.505 31.4327H227.116M199.643 26.5326H213.003M199.643 26.5326H186.282M199.643 26.5326L199.401 21.8099M213.003 26.5326L212.819 24.7412L212.759 24.1494L212.698 23.5605L212.519 21.8099M213.003 26.5326H226.363M198.942 12.8592H211.602M198.942 12.8592L198.725 8.61445M198.942 12.8592H186.282M198.942 12.8592L199.167 17.255M211.602 12.8592L211.547 12.3207L211.437 11.2502L211.383 10.7182L211.274 9.66232L211.221 9.13693L211.167 8.61445M211.602 12.8592L211.825 15.0374L211.882 15.5884L211.995 16.6968L212.052 17.255M211.602 12.8592H224.262M198.725 8.61445L198.698 8.09417L198.672 7.57606L198.645 7.06015L198.515 4.51345M198.725 8.61445H211.167M198.725 8.61445H186.282M211.167 8.61445H223.61M211.167 8.61445L211.061 7.57606L211.008 7.06015L210.955 6.54645L210.799 5.01842L210.747 4.51345M349.239 402H381.83L373.413 374.609M349.239 402H316.648M349.239 402L342.224 374.609M329.863 326.342H358.579M329.863 326.342L324.389 304.967M329.863 326.342H301.147M329.863 326.342L335.789 349.479M358.579 326.342L352.011 304.967M358.579 326.342L365.69 349.479M358.579 326.342H381.83M324.389 304.967H352.011M324.389 304.967H296.768M324.389 304.967L319.318 285.164M352.011 304.967L345.925 285.164M352.011 304.967H379.632M310.215 249.621H335.002M310.215 249.621L306.116 233.613M310.215 249.621H285.429M310.215 249.621L314.605 266.762M335.002 249.621L330.083 233.613M335.002 249.621L340.27 266.762M335.002 249.621H359.788M306.116 233.613H330.083M306.116 233.613H282.149M306.116 233.613L302.279 218.63M330.083 233.613L325.478 218.63M330.083 233.613H354.049M295.297 191.37H317.101M295.297 191.37L292.113 178.935M295.297 191.37H273.494M295.297 191.37L298.68 204.578M317.101 191.37L313.279 178.935M317.101 191.37L321.159 204.578M317.101 191.37H338.904M292.113 178.935H313.279M292.113 178.935H270.947M292.113 178.935L289.109 167.204M313.279 178.935L309.674 167.204M313.279 178.935H334.445M283.585 145.635H303.046M283.585 145.635L281.04 135.697M283.585 145.635H264.125M283.585 145.635L286.271 156.123M303.046 145.635L299.992 135.697M303.046 145.635L306.268 156.123M303.046 145.635H322.506M281.04 135.697H299.992M281.04 135.697H262.088M281.04 135.697L278.625 126.266M299.992 135.697L297.093 126.266M299.992 135.697H318.943M274.145 108.775H291.718M274.145 108.775L272.065 100.651M274.145 108.775H256.573M274.145 108.775L276.329 117.303M291.718 108.775L289.221 100.651M291.718 108.775L294.339 117.303M291.718 108.775H309.29M272.065 100.651H289.221M272.065 100.651H254.908M272.065 100.651L270.08 92.9032M289.221 100.651L286.84 92.9032M289.221 100.651H306.378M266.375 78.4344L266.597 79.3013L266.82 80.1726L268.186 85.5054M266.375 78.4344H282.394M266.375 78.4344L264.643 71.67M266.375 78.4344H250.357M282.394 78.4344L280.315 71.67M282.394 78.4344L284.567 85.5054M282.394 78.4344H298.412M264.643 71.67H280.315M264.643 71.67H248.971M264.643 71.67L262.984 65.1915M280.315 71.67L278.324 65.1915M280.315 71.67H295.987M259.868 53.0242H274.585M259.868 53.0242L258.403 47.304M259.868 53.0242H245.151M259.868 53.0242L261.393 58.9817M274.585 53.0242L273.478 49.4224L272.827 47.304M274.585 53.0242L276.415 58.9817M274.585 53.0242H289.302M258.403 47.304H272.827M258.403 47.304H243.979M258.403 47.304L257.168 42.482L256.995 41.807M272.827 47.304L271.137 41.807M272.827 47.304H287.251M254.338 31.4327H267.949M254.338 31.4327L254.02 30.19L253.083 26.5326M254.338 31.4327H240.727M254.338 31.4327L254.659 32.6863L255.311 35.2301L255.641 36.5203M267.949 31.4327L266.443 26.5326M267.949 31.4327L268.529 33.3183L268.919 34.5902L269.513 36.5203M267.949 31.4327H281.56M253.083 26.5326H266.443M253.083 26.5326H239.723M253.083 26.5326L252.172 22.9738L251.874 21.8099M266.443 26.5326L265.893 24.7412L265.53 23.5605L264.992 21.8099M266.443 26.5326H279.803M249.582 12.8592H262.241M249.582 12.8592L248.898 10.1892L248.494 8.61445M249.582 12.8592H236.922M249.582 12.8592L250.707 17.255M262.241 12.8592L261.259 9.66232L261.098 9.13693L260.937 8.61445M262.241 12.8592L262.911 15.0374L263.592 17.255M262.241 12.8592H274.901M248.494 8.61445H260.937M248.494 8.61445L247.965 6.54645L247.703 5.52556L247.573 5.01842L247.444 4.51345M248.494 8.61445H236.052M260.937 8.61445H273.379M260.937 8.61445L259.676 4.51345M376.777 178.935H355.611M376.777 178.935L371.37 167.204M376.777 178.935L381.83 191.37H360.706M376.777 178.935H381.83M361.427 145.635H380.888M361.427 145.635L356.846 135.697M361.427 145.635H341.967M361.427 145.635L366.261 156.123M380.888 145.635L375.797 135.697M380.888 145.635L381.83 148.297L375.797 135.697M356.846 135.697H375.797M356.846 135.697H337.895M356.846 135.697L352.498 126.266M375.797 135.697L370.967 126.266M375.797 135.697H381.83M344.436 108.775H362.008M344.436 108.775L340.691 100.651M344.436 108.775H326.863M344.436 108.775L348.367 117.303M362.008 108.775L357.847 100.651M362.008 108.775L366.376 117.303M362.008 108.775H379.581M340.691 100.651H357.847M340.691 100.651H323.534M340.691 100.651L337.119 92.9032M357.847 100.651L353.878 92.9032M357.847 100.651H375.004M330.449 78.4344H346.468M330.449 78.4344L327.331 71.67M330.449 78.4344H314.431M330.449 78.4344L333.709 85.5054M346.468 78.4344L343.003 71.67M346.468 78.4344L350.089 85.5054M346.468 78.4344H362.486M327.331 71.67H343.003M327.331 71.67H311.659M327.331 71.67L324.344 65.1915M343.003 71.67L339.685 65.1915M343.003 71.67H358.675M318.736 53.0242H333.453M318.736 53.0242L316.099 47.304M318.736 53.0242H304.019M318.736 53.0242L321.482 58.9817M333.453 53.0242L330.523 47.304M333.453 53.0242L336.504 58.9817M333.453 53.0242H348.17M316.099 47.304H330.523M316.099 47.304H301.675M316.099 47.304L313.565 41.807M330.523 47.304L327.707 41.807M330.523 47.304H344.947M308.783 31.4327H322.394M308.783 31.4327L306.524 26.5326M308.783 31.4327H295.171M308.783 31.4327L309.361 32.6863L309.652 33.3183L311.128 36.5203M322.394 31.4327L319.884 26.5326M322.394 31.4327L325 36.5203M322.394 31.4327H336.005M306.524 26.5326H319.884M306.524 26.5326H293.164M306.524 26.5326L304.347 21.8099M319.884 26.5326L317.465 21.8099M319.884 26.5326H333.244M300.221 12.8592H312.881M300.221 12.8592L298.264 8.61445M300.221 12.8592H287.561M300.221 12.8592L302.247 17.255M312.881 12.8592L311.243 9.66232L310.974 9.13693L310.706 8.61445M312.881 12.8592L315.132 17.255M312.881 12.8592H325.54M298.264 8.61445H310.706M298.264 8.61445L296.606 5.01842L296.373 4.51345M298.264 8.61445H285.822M310.706 8.61445H323.149M310.706 8.61445L308.606 4.51345M377.604 53.0242L373.795 47.304M377.604 53.0242H362.887M377.604 53.0242L381.571 58.9817H366.549M377.604 53.0242H381.571M373.795 47.304H359.371M373.795 47.304L370.135 41.807M373.795 47.304H381.83M363.227 31.4327H376.838M363.227 31.4327L359.964 26.5326M363.227 31.4327H349.616M363.227 31.4327L366.615 36.5203M376.838 31.4327L373.325 26.5326M376.838 31.4327L380.487 36.5203M376.838 31.4327H382M359.964 26.5326H373.325M359.964 26.5326H346.604M359.964 26.5326L356.82 21.8099M373.325 26.5326L369.938 21.8099M373.325 26.5326H381.83M350.86 12.8592H363.52M350.86 12.8592L348.034 8.61445M350.86 12.8592H338.2M350.86 12.8592L353.787 17.255M363.52 12.8592L360.476 8.61445M363.52 12.8592L366.672 17.255M363.52 12.8592H376.18M348.034 8.61445H360.476M348.034 8.61445L345.303 4.51345M348.034 8.61445H335.591M360.476 8.61445H372.919M360.476 8.61445L357.535 4.51345M366.672 17.255L369.938 21.8099M366.672 17.255H379.557M366.672 17.255H353.787M376.18 12.8592L372.919 8.61445M376.18 12.8592L379.557 17.255M376.18 12.8592H381.571M372.919 8.61445L369.767 4.51345M372.919 8.61445H382M357.535 4.51345H369.767M357.535 4.51345L354.692 0.548179M357.535 4.51345H345.303M379.557 17.255L381.571 21.8099H369.938M379.557 17.255H381.571M369.767 4.51345H382L378.75 0.548179M369.767 4.51345L366.721 0.548179M369.938 21.8099H356.82M356.82 21.8099H343.701M356.82 21.8099L353.787 17.255M353.787 17.255H340.902M380.487 36.5203H366.615M380.487 36.5203L381.83 38.6153M370.135 41.807H355.992M370.135 41.807L366.615 36.5203M370.135 41.807H382M366.615 36.5203H352.743M315.132 17.255L317.465 21.8099M315.132 17.255H328.017M315.132 17.255H302.247M325.54 12.8592L323.149 8.61445M325.54 12.8592L328.017 17.255M325.54 12.8592H338.2M323.149 8.61445H335.591M323.149 8.61445L320.838 4.51345M308.606 4.51345H320.838M308.606 4.51345L307.836 3.01097L306.575 0.548179M308.606 4.51345H296.373M328.017 17.255L330.583 21.8099M328.017 17.255H340.902M338.2 12.8592L335.591 8.61445M338.2 12.8592L340.902 17.255M335.591 8.61445L333.071 4.51345M320.838 4.51345H333.071M320.838 4.51345L318.604 0.548179M340.902 17.255L343.701 21.8099M345.303 4.51345L342.663 0.548179M345.303 4.51345H333.071M333.071 4.51345L332.761 4.00994L332.147 3.01097L330.633 0.548179M317.465 21.8099H330.583M317.465 21.8099H304.347M333.244 26.5326L330.583 21.8099M333.244 26.5326L336.005 31.4327M333.244 26.5326H346.604M330.583 21.8099H343.701M304.347 21.8099H291.229M304.347 21.8099L302.247 17.255M343.701 21.8099L346.604 26.5326M302.247 17.255H289.362M336.005 31.4327L338.872 36.5203M336.005 31.4327H349.616M346.604 26.5326L346.975 27.1346L349.616 31.4327M349.616 31.4327L352.743 36.5203M325 36.5203L325.332 37.1704L327.707 41.807M325 36.5203H338.872M325 36.5203H311.128M338.872 36.5203L341.85 41.807M338.872 36.5203H352.743M352.743 36.5203L355.992 41.807M327.707 41.807H341.85M327.707 41.807H313.565M344.947 47.304L341.85 41.807M344.947 47.304L348.17 53.0242M344.947 47.304H359.371M341.85 41.807H355.992M313.565 41.807H299.422M313.565 41.807L311.128 36.5203M355.992 41.807L359.371 47.304M311.128 36.5203H297.256M348.17 53.0242L351.526 58.9817M348.17 53.0242H362.887M359.371 47.304L362.887 53.0242M362.887 53.0242L366.549 58.9817M336.504 58.9817L339.685 65.1915M336.504 58.9817H351.526M336.504 58.9817H321.482M351.526 58.9817L355.025 65.1915M351.526 58.9817H366.549M366.549 58.9817L370.365 65.1915M339.685 65.1915H355.025M339.685 65.1915H324.344M358.675 71.67L355.025 65.1915M358.675 71.67L362.486 78.4344M358.675 71.67H374.347M355.025 65.1915H370.365M324.344 65.1915H309.004M324.344 65.1915L321.482 58.9817M370.365 65.1915L374.347 71.67M370.365 65.1915H381.83M321.482 58.9817H306.46M362.486 78.4344L366.47 85.5054M362.486 78.4344H378.505M374.347 71.67L378.505 78.4344M374.347 71.67H381.571M378.505 78.4344L381.83 85.5054H366.47M378.505 78.4344H381.83M350.089 85.5054L353.878 92.9032M350.089 85.5054H366.47M350.089 85.5054H333.709M366.47 85.5054L370.638 92.9032M353.878 92.9032H370.638M353.878 92.9032H337.119M375.004 100.651L370.638 92.9032M375.004 100.651L379.581 108.775M375.004 100.651H381.83M370.638 92.9032H381.83M337.119 92.9032H320.359M337.119 92.9032L333.709 85.5054M333.709 85.5054H317.328M379.581 108.775L381.83 112.42M366.376 117.303L370.967 126.266M366.376 117.303H348.367M366.376 117.303H381.571M370.967 126.266H352.498M370.967 126.266H381.571M352.498 126.266H334.03M352.498 126.266L348.367 117.303M348.367 117.303H330.357M371.37 167.204H350.805M371.37 167.204L366.261 156.123M371.37 167.204H381.83M366.261 156.123H346.264M366.261 156.123H381.83M263.592 17.255L264.111 18.9436L264.286 19.512L264.992 21.8099M263.592 17.255H276.477M263.592 17.255H250.707M274.901 12.8592L273.755 9.66232L273.379 8.61445M274.901 12.8592L276.277 16.6968L276.477 17.255M274.901 12.8592H287.561M273.379 8.61445H285.822M273.379 8.61445L271.909 4.51345M259.676 4.51345H271.909M259.676 4.51345L259.215 3.01097L258.458 0.548179M259.676 4.51345H247.444M276.477 17.255L276.88 18.3781L278.11 21.8099M276.477 17.255H289.362M287.561 12.8592L285.822 8.61445M287.561 12.8592L289.362 17.255M285.822 8.61445L284.556 5.52556L284.141 4.51345M271.909 4.51345H284.141M271.909 4.51345L270.487 0.548179M289.362 17.255L291.229 21.8099M296.373 4.51345L296.142 4.00994L294.546 0.548179M296.373 4.51345H284.141M284.141 4.51345L283.525 3.01097L282.516 0.548179M264.992 21.8099H278.11M264.992 21.8099H251.874M279.803 26.5326L278.11 21.8099M279.803 26.5326L281.56 31.4327M279.803 26.5326H293.164M278.11 21.8099H291.229M251.874 21.8099H238.755M251.874 21.8099L250.707 17.255M291.229 21.8099L293.164 26.5326M250.707 17.255H237.822M281.56 31.4327L282.692 34.5902L282.922 35.2301L283.384 36.5203M281.56 31.4327H295.171M293.164 26.5326L295.171 31.4327M295.171 31.4327L297.256 36.5203M269.513 36.5203L271.137 41.807M269.513 36.5203H283.384M269.513 36.5203H255.641M283.384 36.5203L285.28 41.807M283.384 36.5203H297.256M297.256 36.5203L299.422 41.807M271.137 41.807H285.28M271.137 41.807H256.995M287.251 47.304L286.01 43.843L285.766 43.1607L285.28 41.807M287.251 47.304L289.302 53.0242M287.251 47.304H301.675M285.28 41.807H299.422M256.995 41.807H242.852M256.995 41.807L255.641 36.5203M299.422 41.807L301.675 47.304M255.641 36.5203H241.769M289.302 53.0242L291.438 58.9817M289.302 53.0242H304.019M301.675 47.304L304.019 53.0242M304.019 53.0242L306.46 58.9817M276.415 58.9817L277.36 62.0537L277.599 62.8324L278.324 65.1915M276.415 58.9817H291.438M276.415 58.9817H261.393M291.438 58.9817L293.664 65.1915M291.438 58.9817H306.46M306.46 58.9817L309.004 65.1915M278.324 65.1915H293.664M278.324 65.1915H262.984M295.987 71.67L293.664 65.1915M295.987 71.67L298.412 78.4344M295.987 71.67H311.659M293.664 65.1915H309.004M262.984 65.1915H247.643M262.984 65.1915L262.58 63.6146L261.393 58.9817M309.004 65.1915L311.659 71.67M261.393 58.9817H246.371M298.412 78.4344L300.947 85.5054M298.412 78.4344H314.431M311.659 71.67L314.431 78.4344M314.431 78.4344L317.328 85.5054M284.567 85.5054L286.84 92.9032M284.567 85.5054H300.947M284.567 85.5054H268.186M300.947 85.5054L303.6 92.9032M300.947 85.5054H317.328M317.328 85.5054L320.359 92.9032M286.84 92.9032H303.6M286.84 92.9032H270.08M306.378 100.651L303.6 92.9032M306.378 100.651L309.29 108.775M306.378 100.651H323.534M303.6 92.9032H320.359M270.08 92.9032H253.321M270.08 92.9032L268.186 85.5054M320.359 92.9032L323.534 100.651M268.186 85.5054H251.805M309.29 108.775L312.348 117.303M309.29 108.775H326.863M323.534 100.651L326.863 108.775M326.863 108.775L330.357 117.303M294.339 117.303L297.093 126.266M294.339 117.303H312.348M294.339 117.303H276.329M312.348 117.303L315.561 126.266M312.348 117.303H330.357M330.357 117.303L334.03 126.266M297.093 126.266H315.561M297.093 126.266H278.625M318.943 135.697L315.561 126.266M318.943 135.697L322.506 145.635M318.943 135.697H337.895M315.561 126.266H334.03M278.625 126.266H260.156M278.625 126.266L276.329 117.303M334.03 126.266L337.895 135.697M276.329 117.303H258.32M322.506 145.635L326.266 156.123M322.506 145.635H341.967M337.895 135.697L341.967 145.635M341.967 145.635L346.264 156.123M306.268 156.123L309.674 167.204M306.268 156.123H326.266M306.268 156.123H286.271M326.266 156.123L330.239 167.204M326.266 156.123H346.264M346.264 156.123L350.805 167.204M309.674 167.204H330.239M309.674 167.204H289.109M334.445 178.935L330.239 167.204M334.445 178.935L338.904 191.37M334.445 178.935H355.611M330.239 167.204H350.805M289.109 167.204H268.544M289.109 167.204L286.271 156.123M350.805 167.204L355.611 178.935M286.271 156.123H266.273M338.904 191.37L343.639 204.578M338.904 191.37H360.706M355.611 178.935L360.706 191.37M360.706 191.37L366.118 204.578M321.159 204.578L325.478 218.63M321.159 204.578H343.639M321.159 204.578H298.68M343.639 204.578L348.677 218.63M343.639 204.578H366.118M366.118 204.578L371.876 218.63M366.118 204.578H381.83M325.478 218.63H348.677M325.478 218.63H302.279M354.049 233.613L348.677 218.63M354.049 233.613L359.788 249.621M354.049 233.613H378.016M348.677 218.63H371.876M302.279 218.63H279.079M302.279 218.63L298.68 204.578M371.876 218.63L378.016 233.613M371.876 218.63H381.83M298.68 204.578H276.2M359.788 249.621L365.934 266.762M359.788 249.621H381.83M378.016 233.613H381.83M378.016 233.613L384 249.621M340.27 266.762L345.925 285.164M340.27 266.762H365.934M340.27 266.762H314.605M365.934 266.762L372.532 285.164M365.934 266.762H381.83M345.925 285.164H372.532M345.925 285.164H319.318M379.632 304.967L372.532 285.164M379.632 304.967H381.83M372.532 285.164H381.83M319.318 285.164H292.711M319.318 285.164L314.605 266.762M314.605 266.762H288.941M365.69 349.479L373.413 374.609M365.69 349.479H335.789M365.69 349.479H381.83M373.413 374.609H342.224M373.413 374.609H381.83M342.224 374.609H311.036M342.224 374.609L335.789 349.479M335.789 349.479H305.887M212.052 17.255L212.11 17.8154L212.167 18.3781L212.225 18.9436L212.283 19.512L212.46 21.2312L212.519 21.8099M212.052 17.255H224.937M212.052 17.255H199.167M224.262 12.8592L223.771 9.66232L223.61 8.61445M224.262 12.8592L224.681 15.5884L224.937 17.255M224.262 12.8592H236.922M223.61 8.61445H236.052M223.61 8.61445L223.135 5.52556L222.979 4.51345M210.747 4.51345L210.696 4.00994L210.492 2.01928L210.341 0.548179M210.747 4.51345H222.979M210.747 4.51345H198.515M224.937 17.255L225.023 17.8154L225.11 18.3781L225.197 18.9436L225.284 19.512L225.637 21.8099M224.937 17.255H237.822M236.922 12.8592L236.267 9.66232L236.052 8.61445M236.922 12.8592L237.822 17.255M236.052 8.61445L235.628 6.54645L235.315 5.01842L235.212 4.51345M222.979 4.51345L222.902 4.00994L222.749 3.01097L222.596 2.01928L222.521 1.52673L222.37 0.548179M222.979 4.51345H235.212M237.822 17.255L238.519 20.6555L238.755 21.8099M247.444 4.51345L246.679 1.52673L246.429 0.548179M247.444 4.51345H235.212M235.212 4.51345L234.5 1.03636L234.399 0.548179M212.519 21.8099H225.637M212.519 21.8099H199.401M226.363 26.5326L225.637 21.8099M226.363 26.5326L227.116 31.4327M226.363 26.5326H239.723M225.637 21.8099H238.755M199.401 21.8099H186.282M199.401 21.8099L199.167 17.255M238.755 21.8099L239.723 26.5326M199.167 17.255H186.282M227.116 31.4327L227.309 32.6863L227.601 34.5902L227.898 36.5203M227.116 31.4327H240.727M239.723 26.5326L239.846 27.1346L240.727 31.4327M240.727 31.4327L240.855 32.058L240.984 32.6863L241.113 33.3183L241.769 36.5203M214.026 36.5203L214.567 41.807M214.026 36.5203H227.898M214.026 36.5203H200.154M227.898 36.5203L228.71 41.807M227.898 36.5203H241.769M241.769 36.5203L242.578 40.4658L242.715 41.135L242.852 41.807M214.567 41.807H228.71M214.567 41.807H200.425M229.555 47.304L229.662 48.0067L229.771 48.7124L229.88 49.4224L230.434 53.0242M229.555 47.304L229.128 44.5282L229.023 43.843L228.918 43.1607L228.71 41.807M229.555 47.304H243.979M228.71 41.807H242.852M200.425 41.807H186.282M200.425 41.807L200.154 36.5203M242.852 41.807L243.979 47.304M200.154 36.5203H186.282M230.434 53.0242L231.233 58.2235L231.349 58.9817M230.434 53.0242H245.151M243.979 47.304L244.267 48.7124L245.151 53.0242M245.151 53.0242L245.602 55.2295L246.371 58.9817M216.327 58.9817L216.642 62.0537L216.721 62.8324L216.963 65.1915M216.327 58.9817H231.349M216.327 58.9817H201.305M231.349 58.9817L232.303 65.1915M231.349 58.9817H246.371M246.371 58.9817L247.643 65.1915M216.963 65.1915H232.303M216.963 65.1915H201.623M233.298 71.67L232.303 65.1915M233.298 71.67L234.338 78.4344M233.298 71.67H248.971M232.303 65.1915H247.643M201.623 65.1915H186.282M201.623 65.1915L201.542 63.6146L201.383 60.5097L201.305 58.9817M247.643 65.1915L248.971 71.67M201.305 58.9817H186.282M234.338 78.4344L235.148 83.7081L235.425 85.5054M234.338 78.4344H250.357M248.971 71.67L250.357 78.4344M250.357 78.4344L251.073 81.9305L251.805 85.5054M219.044 85.5054L219.802 92.9032M219.044 85.5054H235.425M219.044 85.5054H202.663M235.425 85.5054L236.561 92.9032M235.425 85.5054H251.805M251.805 85.5054L253.321 92.9032M219.802 92.9032H236.561M219.802 92.9032H203.042M237.752 100.651L237.449 98.6804L236.561 92.9032M237.752 100.651L239 108.775M237.752 100.651H254.908M236.561 92.9032H253.321M203.042 92.9032H186.282M203.042 92.9032L202.663 85.5054M253.321 92.9032L254.908 100.651M202.663 85.5054H186.282M239 108.775L240.31 117.303M239 108.775H256.573M254.908 100.651L256.573 108.775M256.573 108.775L258.32 117.303M222.301 117.303L223.219 126.266M222.301 117.303H240.31M222.301 117.303H204.292M240.31 117.303L241.688 126.266M240.31 117.303H258.32M258.32 117.303L260.156 126.266M223.219 126.266H241.688M223.219 126.266H204.751M243.137 135.697L241.688 126.266M243.137 135.697L244.664 145.635M243.137 135.697H262.088M241.688 126.266H260.156M204.751 126.266H186.282M204.751 126.266L204.348 118.4L204.292 117.303M260.156 126.266L262.088 135.697M204.292 117.303H186.282M244.664 145.635L246.275 156.123M244.664 145.635H264.125M262.088 135.697L263.605 143.102L264.125 145.635M264.125 145.635L266.273 156.123M226.278 156.123L227.413 167.204M226.278 156.123H246.275M226.278 156.123H206.28M246.275 156.123L247.978 167.204M246.275 156.123H266.273M266.273 156.123L268.544 167.204M227.413 167.204H247.978M227.413 167.204H206.848M249.781 178.935L247.978 167.204M249.781 178.935L251.691 191.37M249.781 178.935H270.947M247.978 167.204H268.544M206.848 167.204H186.282M206.848 167.204L206.28 156.123M268.544 167.204L270.947 178.935M206.28 156.123H186.282M251.691 191.37L253.721 204.578M251.691 191.37H273.494M270.947 178.935L273.494 191.37M273.494 191.37L276.2 204.578M231.241 204.578L232.681 218.63M231.241 204.578H253.721M231.241 204.578H208.762M253.721 204.578L255.88 218.63M253.721 204.578H276.2M276.2 204.578L279.079 218.63M232.681 218.63H255.88M232.681 218.63H209.482M258.182 233.613L255.88 218.63M258.182 233.613L260.642 249.621M258.182 233.613H282.149M255.88 218.63H279.079M209.482 218.63H186.282M209.482 218.63L208.762 204.578M279.079 218.63L282.149 233.613M208.762 204.578H186.282M260.642 249.621L263.276 266.762M260.642 249.621H285.429M282.149 233.613L285.429 249.621M285.429 249.621L288.941 266.762M237.611 266.762L239.497 285.164M237.611 266.762H263.276M237.611 266.762H211.947M263.276 266.762L266.104 285.164M263.276 266.762H288.941M288.941 266.762L292.711 285.164M239.497 285.164H266.104M239.497 285.164H212.889M269.147 304.967L266.104 285.164M269.147 304.967L272.431 326.342M269.147 304.967H296.768M266.104 285.164H292.711M212.889 285.164H186.282M212.889 285.164L211.947 266.762M292.711 285.164L296.768 304.967M211.947 266.762H186.282M272.431 326.342L275.986 349.479M272.431 326.342H301.147M296.768 304.967L301.147 326.342M301.147 326.342L305.887 349.479M246.085 349.479L248.659 374.609M246.085 349.479H275.986M246.085 349.479H216.184M275.986 349.479L279.848 374.609M275.986 349.479H305.887M305.887 349.479L311.036 374.609M248.659 374.609H279.848M248.659 374.609H217.471M284.057 402L279.848 374.609M284.057 402H316.648M279.848 374.609H311.036M217.471 374.609H186.282M217.471 374.609L216.184 349.479M311.036 374.609L316.648 402M216.184 349.479H186.282M160.513 17.255L160.455 17.8154L160.398 18.3781L160.34 18.9436L160.281 19.512L160.164 20.6555L160.105 21.2312L160.046 21.8099M160.513 17.255H173.398M160.513 17.255H147.627M173.623 12.8592L173.84 8.61445M173.623 12.8592L173.398 17.255M173.623 12.8592H186.282M173.84 8.61445L173.867 8.09417L173.893 7.57606L173.92 7.06015L174.05 4.51345M173.84 8.61445H186.282M161.818 4.51345L161.869 4.00994L162.073 2.01928L162.224 0.548179M161.818 4.51345H174.05M161.818 4.51345H149.586M173.398 17.255L173.369 17.8154L173.34 18.3781L173.311 18.9436L173.164 21.8099M173.398 17.255H186.282M186.282 12.8592V8.61445M186.282 12.8592V17.255M186.282 8.61445V4.51345M174.05 4.51345H186.282M174.05 4.51345L174.127 3.01097L174.153 2.51403L174.253 0.548179M186.282 17.255V21.8099M198.515 4.51345L198.438 3.01097L198.412 2.51403L198.387 2.01928L198.362 1.52673L198.337 1.03636L198.312 0.548179M198.515 4.51345H186.282M186.282 4.51345V0.548179M160.046 21.8099H173.164M160.046 21.8099H146.928M172.922 26.5326L172.891 27.1346L172.861 27.7403L172.671 31.4327M172.922 26.5326L173.164 21.8099M172.922 26.5326H186.282M173.164 21.8099H186.282M146.928 21.8099H133.81M146.928 21.8099L147.105 20.6555L147.193 20.0827L147.281 19.512L147.368 18.9436L147.455 18.3781L147.542 17.8154L147.627 17.255M186.282 21.8099V26.5326M147.627 17.255H134.743M172.671 31.4327L172.411 36.5203M172.671 31.4327H186.282M186.282 26.5326V31.4327M186.282 31.4327V36.5203M158.539 36.5203L157.997 41.807M158.539 36.5203H172.411M158.539 36.5203H144.667M172.411 36.5203L172.14 41.807M172.411 36.5203H186.282M186.282 36.5203V41.807M157.997 41.807H172.14M157.997 41.807H143.855M171.858 47.304L172.14 41.807M171.858 47.304L171.566 53.0242M171.858 47.304H186.282M172.14 41.807H186.282M143.855 41.807H129.712M143.855 41.807L144.667 36.5203M186.282 41.807V47.304M144.667 36.5203H130.796M171.566 53.0242L171.453 55.2295L171.338 57.4689L171.26 58.9817M171.566 53.0242H186.282M186.282 47.304V53.0242M186.282 53.0242V58.9817M156.238 58.9817L155.923 62.0537L155.844 62.8324L155.602 65.1915M156.238 58.9817H171.26M156.238 58.9817H141.216M171.26 58.9817L171.182 60.5097L171.023 63.6146L170.942 65.1915M171.26 58.9817H186.282M186.282 58.9817V65.1915M155.602 65.1915H170.942M155.602 65.1915H140.262M170.611 71.67L170.653 70.8446L170.942 65.1915M170.611 71.67L170.264 78.4344M170.611 71.67H186.282M170.942 65.1915H186.282M140.262 65.1915H124.922M140.262 65.1915L141.216 58.9817M186.282 65.1915V71.67M141.216 58.9817H126.194M170.264 78.4344L169.902 85.5054M170.264 78.4344H186.282M186.282 71.67V78.4344M186.282 78.4344V85.5054M153.521 85.5054L152.763 92.9032M153.521 85.5054H169.902M153.521 85.5054H137.14M169.902 85.5054L169.523 92.9032M169.902 85.5054H186.282M186.282 85.5054V92.9032M152.763 92.9032H169.523M152.763 92.9032H136.004M169.126 100.651L169.523 92.9032M169.126 100.651L168.71 108.775M169.126 100.651H186.282M169.523 92.9032H186.282M136.004 92.9032H119.244M136.004 92.9032L137.14 85.5054M186.282 92.9032V100.651M137.14 85.5054H120.76M168.71 108.775L168.273 117.303M168.71 108.775H186.282M186.282 100.651V108.775M186.282 108.775V117.303M150.264 117.303L149.346 126.266M150.264 117.303H168.273M150.264 117.303H132.254M168.273 117.303L167.814 126.266M168.273 117.303H186.282M186.282 117.303V126.266M149.346 126.266H167.814M149.346 126.266H130.877M167.331 135.697L167.814 126.266M167.331 135.697L166.822 145.635M167.331 135.697H186.282M167.814 126.266H186.282M130.877 126.266H112.409M130.877 126.266L132.254 117.303M186.282 126.266V135.697M132.254 117.303H114.245M166.822 145.635L166.285 156.123M166.822 145.635H186.282M186.282 135.697V145.635M186.282 145.635V156.123M146.287 156.123L145.152 167.204M146.287 156.123H166.285M146.287 156.123H126.289M166.285 156.123L165.717 167.204M166.285 156.123H186.282M186.282 156.123V167.204M145.152 167.204H165.717M145.152 167.204H124.587M165.116 178.935L165.717 167.204M165.116 178.935L164.479 191.37M165.116 178.935H186.282M165.717 167.204H186.282M124.587 167.204H104.021M124.587 167.204L126.289 156.123M186.282 167.204V178.935M126.289 156.123H106.292M164.479 191.37L163.803 204.578M164.479 191.37H186.282M186.282 178.935V191.37M186.282 191.37V204.578M141.323 204.578L139.884 218.63M141.323 204.578H163.803M141.323 204.578H118.844M163.803 204.578L163.083 218.63M163.803 204.578H186.282M186.282 204.578V218.63M139.884 218.63H163.083M139.884 218.63H116.685M162.316 233.613L163.083 218.63M162.316 233.613L161.496 249.621M162.316 233.613H186.282M163.083 218.63H186.282M116.685 218.63H93.4855M116.685 218.63L118.844 204.578M186.282 218.63V233.613M118.844 204.578H96.3645M161.496 249.621L160.618 266.762M161.496 249.621H186.282M186.282 233.613V249.621M186.282 249.621V266.762M134.953 266.762L133.068 285.164M134.953 266.762H160.618M134.953 266.762H109.289M160.618 266.762L159.675 285.164M160.618 266.762H186.282M186.282 266.762V285.164M133.068 285.164H159.675M133.068 285.164H106.461M158.661 304.967L159.675 285.164M158.661 304.967L157.566 326.342M158.661 304.967H186.282M159.675 285.164H186.282M106.461 285.164H79.8543M106.461 285.164L109.289 266.762M186.282 285.164V304.967M109.289 266.762H83.6241M157.566 326.342L156.381 349.479M157.566 326.342H186.282M186.282 304.967V326.342M186.282 326.342V349.479M126.48 349.479L123.906 374.609M126.48 349.479H156.381M126.48 349.479H96.5786M156.381 349.479L155.094 374.609M156.381 349.479H186.282M186.282 349.479V374.609M123.906 374.609H155.094M123.906 374.609H92.7173M153.691 402L155.094 374.609M153.691 402H186.282M155.094 374.609H186.282M92.7173 374.609H61.5289M92.7173 374.609L96.5786 349.479M186.282 374.609V402M96.5786 349.479H66.6775M108.973 17.255L108.279 19.512L107.573 21.8099M108.973 17.255H121.858M108.973 17.255H96.0879M122.983 12.8592L124.07 8.61445M122.983 12.8592L121.858 17.255M122.983 12.8592H135.643M124.07 8.61445H136.513M124.07 8.61445L124.861 5.52556L125.121 4.51345M112.888 4.51345H125.121M112.888 4.51345L113.35 3.01097L114.107 0.548179M112.888 4.51345H100.656M121.858 17.255L120.691 21.8099M121.858 17.255H134.743M135.643 12.8592L136.513 8.61445M135.643 12.8592L134.743 17.255M136.513 8.61445L136.937 6.54645L137.25 5.01842L137.353 4.51345M125.121 4.51345H137.353M125.121 4.51345L125.885 1.52673L126.136 0.548179M134.743 17.255L134.046 20.6555L133.81 21.8099M149.586 4.51345L149.663 4.00994L149.816 3.01097L150.044 1.52673L150.195 0.548179M149.586 4.51345H137.353M137.353 4.51345L137.456 4.00994L137.661 3.01097L138.165 0.548179M107.573 21.8099H120.691M107.573 21.8099H94.4546M119.482 26.5326L119.635 25.9328L119.788 25.3352L120.393 22.9738L120.691 21.8099M119.482 26.5326L118.545 30.19L118.227 31.4327M119.482 26.5326H132.842M120.691 21.8099H133.81M94.4546 21.8099H81.3364M94.4546 21.8099L95.6849 18.3781L96.0879 17.255M133.81 21.8099L132.842 26.5326M96.0879 17.255H83.2027M118.227 31.4327L118.067 32.058L117.906 32.6863L117.418 34.5902L117.254 35.2301L116.924 36.5203M118.227 31.4327H131.838M132.842 26.5326L132.718 27.1346L131.838 31.4327M131.838 31.4327L131.71 32.058L131.581 32.6863L131.452 33.3183L130.796 36.5203M103.052 36.5203L101.428 41.807M103.052 36.5203H116.924M103.052 36.5203H89.1805M116.924 36.5203L115.57 41.807M116.924 36.5203H130.796M130.796 36.5203L129.712 41.807M101.428 41.807H115.57M101.428 41.807H87.285M114.162 47.304L115.57 41.807M114.162 47.304L112.697 53.0242M114.162 47.304H128.586M115.57 41.807H129.712M87.285 41.807H73.1425M87.285 41.807L89.1805 36.5203M129.712 41.807L128.586 47.304M89.1805 36.5203H75.3085M112.697 53.0242L111.172 58.9817M112.697 53.0242H127.414M128.586 47.304L128.298 48.7124L127.414 53.0242M127.414 53.0242L126.962 55.2295L126.503 57.4689L126.194 58.9817M96.1494 58.9817L95.2051 62.0537L94.2411 65.1915M96.1494 58.9817H111.172M96.1494 58.9817H81.1271M111.172 58.9817L109.581 65.1915M111.172 58.9817H126.194M126.194 58.9817L124.922 65.1915M94.2411 65.1915H109.581M94.2411 65.1915H78.901M107.922 71.67L109.581 65.1915M107.922 71.67L106.19 78.4344M107.922 71.67H123.594M109.581 65.1915H124.922M78.901 65.1915H63.5605M78.901 65.1915L81.1271 58.9817M124.922 65.1915L123.594 71.67M81.1271 58.9817H66.1051M106.19 78.4344L105.745 80.1726L104.379 85.5054M106.19 78.4344H122.208M123.594 71.67L122.208 78.4344M122.208 78.4344L122.031 79.3013L121.492 81.9305L120.76 85.5054M87.9984 85.5054L85.7248 92.9032M87.9984 85.5054H104.379M87.9984 85.5054H71.6176M104.379 85.5054L102.484 92.9032M104.379 85.5054H120.76M120.76 85.5054L119.244 92.9032M85.7248 92.9032H102.484M85.7248 92.9032H68.9652M100.5 100.651L101.751 95.7666L102.484 92.9032M100.5 100.651L98.4195 108.775M100.5 100.651H117.657M102.484 92.9032H119.244M68.9652 92.9032H52.2056M68.9652 92.9032L71.6176 85.5054M119.244 92.9032L117.657 100.651M71.6176 85.5054H55.2369M98.4195 108.775L96.2356 117.303M98.4195 108.775H115.992M117.657 100.651L115.992 108.775M115.992 108.775L114.245 117.303M78.2261 117.303L75.4717 126.266M78.2261 117.303H96.2356M78.2261 117.303H60.2169M96.2356 117.303L93.9403 126.266M96.2356 117.303H114.245M114.245 117.303L112.409 126.266M75.4717 126.266H93.9403M75.4717 126.266H57.0034M91.525 135.697L93.9403 126.266M91.525 135.697L88.9798 145.635M91.525 135.697H110.477M93.9403 126.266H112.409M57.0034 126.266H38.5351M57.0034 126.266L60.2169 117.303M112.409 126.266L110.477 135.697M60.2169 117.303H42.2075M88.9798 145.635L86.2942 156.123M88.9798 145.635H108.44M110.477 135.697L108.44 145.635M108.44 145.635L106.292 156.123M66.2965 156.123L62.8908 167.204M66.2965 156.123H86.2942M66.2965 156.123H46.2987M86.2942 156.123L83.4561 167.204M86.2942 156.123H106.292M106.292 156.123L104.021 167.204M62.8908 167.204H83.4561M62.8908 167.204H42.3255M80.452 178.935L83.4561 167.204M80.452 178.935L77.2674 191.37M80.452 178.935H101.618M83.4561 167.204H104.021M42.3255 167.204H21.7602M42.3255 167.204L46.2987 156.123M104.021 167.204L101.618 178.935M46.2987 156.123H26.3012M77.2674 191.37L73.885 204.578M77.2674 191.37H99.0705M101.618 178.935L99.0705 191.37M99.0705 191.37L96.3645 204.578M51.4056 204.578L47.087 218.63M51.4056 204.578H73.885M51.4056 204.578H28.9261M73.885 204.578L70.2862 218.63M73.885 204.578H96.3645M96.3645 204.578L93.4855 218.63M47.087 218.63H70.2862M47.087 218.63H23.8877M66.4492 233.613L70.2862 218.63M66.4492 233.613L62.3495 249.621M66.4492 233.613H90.4159M70.2862 218.63H93.4855M23.8877 218.63H0.688464M23.8877 218.63L28.9261 204.578M93.4855 218.63L90.4159 233.613M28.9261 204.578H6.4466M62.3495 249.621L57.9597 266.762M62.3495 249.621H87.1363M90.4159 233.613L87.1363 249.621M87.1363 249.621L83.6241 266.762M32.2951 266.762L26.6402 285.164M32.2951 266.762H57.9597M32.2951 266.762H6.63042M57.9597 266.762L53.2472 285.164M57.9597 266.762H83.6241M83.6241 266.762L79.8543 285.164M26.6402 285.164H53.2472M26.6402 285.164H0.0331769L6.63042 266.762M48.1754 304.967L53.2472 285.164M48.1754 304.967L42.7017 326.342M48.1754 304.967H75.7969M53.2472 285.164H79.8543M79.8543 285.164L75.7969 304.967M6.63042 266.762H0.0331769M42.7017 326.342L36.7761 349.479M42.7017 326.342H71.4178M75.7969 304.967L71.4178 326.342M71.4178 326.342L66.6775 349.479M6.87498 349.479H36.7761M6.87498 349.479L0.0331769 374.609H30.3405M6.87498 349.479H0.688464M36.7761 349.479L30.3405 374.609M36.7761 349.479H66.6775M66.6775 349.479L61.5289 374.609M23.3258 402L30.3405 374.609M23.3258 402H55.9171M23.3258 402H3M30.3405 374.609H61.5289M61.5289 374.609L55.9171 402M57.4329 17.255L55.0999 21.8099M57.4329 17.255H70.3178M57.4329 17.255H44.548M72.3441 12.8592L74.3009 8.61445M72.3441 12.8592L70.3178 17.255M72.3441 12.8592H85.004M74.3009 8.61445H86.7432M74.3009 8.61445L76.1915 4.51345M63.9589 4.51345H76.1915M63.9589 4.51345L64.7287 3.01097L65.9901 0.548179M63.9589 4.51345H51.7266M70.3178 17.255L68.2181 21.8099M70.3178 17.255H83.2027M85.004 12.8592L86.7432 8.61445M85.004 12.8592L83.2027 17.255M86.7432 8.61445L88.0091 5.52556L88.4238 4.51345M76.1915 4.51345L76.4232 4.00994L78.0193 0.548179M76.1915 4.51345H88.4238M83.2027 17.255L81.3364 21.8099M100.656 4.51345L102.078 0.548179M100.656 4.51345H88.4238M88.4238 4.51345L89.0395 3.01097L90.0485 0.548179M55.0999 21.8099H68.2181M55.0999 21.8099H41.9817M66.0412 26.5326L68.2181 21.8099M66.0412 26.5326L63.7823 31.4327M66.0412 26.5326H79.4013M68.2181 21.8099H81.3364M41.9817 21.8099H28.8635M41.9817 21.8099L44.548 17.255M81.3364 21.8099L79.4013 26.5326M44.548 17.255H31.6631M63.7823 31.4327L63.2041 32.6863L61.4368 36.5203M63.7823 31.4327H77.3934M79.4013 26.5326L77.3934 31.4327M77.3934 31.4327L75.3085 36.5203M47.5651 36.5203L47.2325 37.1704L44.8576 41.807M47.5651 36.5203H61.4368M47.5651 36.5203H33.6934M61.4368 36.5203L59 41.807M61.4368 36.5203H75.3085M75.3085 36.5203L75.0425 37.1704L73.1425 41.807M44.8576 41.807H59M44.8576 41.807H30.7151M56.4661 47.304L59 41.807M56.4661 47.304L53.8292 53.0242M56.4661 47.304H70.8901M59 41.807H73.1425M30.7151 41.807H16.5726M30.7151 41.807L33.6934 36.5203M73.1425 41.807L70.8901 47.304M33.6934 36.5203H19.8217M53.8292 53.0242L51.0829 58.9817M53.8292 53.0242H68.5462M70.8901 47.304L68.5462 53.0242M68.5462 53.0242L66.1051 58.9817M36.0609 58.9817L32.8803 65.1915M36.0609 58.9817H51.0829M36.0609 58.9817H21.0386M51.0829 58.9817L48.2204 65.1915M51.0829 58.9817H66.1051M66.1051 58.9817L63.5605 65.1915M32.8803 65.1915H48.2204M32.8803 65.1915H17.5398M45.234 71.67L48.2204 65.1915M45.234 71.67L42.1155 78.4344M45.234 71.67H60.9059M48.2204 65.1915H63.5605M17.5398 65.1915H2.19971M17.5398 65.1915L21.0386 58.9817M63.5605 65.1915L60.9059 71.67M21.0386 58.9817H6.01634M42.1155 78.4344L38.8562 85.5054M42.1155 78.4344H58.1342M60.9059 71.67L58.1342 78.4344M58.1342 78.4344L55.2369 85.5054M22.4755 85.5054L18.6864 92.9032M22.4755 85.5054H38.8562M22.4755 85.5054H6.09474M38.8562 85.5054L35.446 92.9032M38.8562 85.5054H55.2369M55.2369 85.5054L52.2056 92.9032M18.6864 92.9032H35.446M18.6864 92.9032H1.92678M31.8742 100.651L35.446 92.9032M31.8742 100.651L28.1292 108.775M31.8742 100.651H49.0306M35.446 92.9032H52.2056M1.92678 92.9032L6.09474 85.5054M1.92678 92.9032H0.0331769M1.92678 92.9032L0.0331769 96M52.2056 92.9032L49.0306 100.651M6.09474 85.5054H0.0331769M28.1292 108.775L24.1981 117.303M28.1292 108.775H45.7017M49.0306 100.651L45.7017 108.775M45.7017 108.775L42.2075 117.303M6.18866 117.303L1.59821 126.266M6.18866 117.303H24.1981M6.18866 117.303H0.0331769M24.1981 117.303L20.0665 126.266M24.1981 117.303H42.2075M42.2075 117.303L38.5351 126.266M1.59821 126.266H20.0665M1.59821 126.266L0.0331769 129.846M1.59821 126.266H0.0331769M15.7188 135.697L20.0665 126.266M15.7188 135.697L11.1377 145.635M15.7188 135.697H34.6703M15.7188 135.697H0.0331769M20.0665 126.266H38.5351M38.5351 126.266L34.6703 135.697M11.1377 145.635L6.30345 156.123M11.1377 145.635H30.5981M11.1377 145.635H0.0331769M34.6703 135.697L30.5981 145.635M30.5981 145.635L26.3012 156.123M6.30345 156.123L1.19498 167.204M6.30345 156.123H26.3012M6.30345 156.123H0.688464H0.0331769M26.3012 156.123L21.7602 167.204M1.19498 167.204H21.7602M1.19498 167.204H0.0331769M21.7602 167.204L16.9539 178.935M16.9539 178.935L11.8585 191.37M16.9539 178.935H0.0331769M11.8585 191.37L6.4466 204.578M11.8585 191.37H0.0331769M6.4466 204.578L0.688464 218.63M6.4466 204.578H0.0331769M0.688464 218.63L0.0331769 220.564M5.893 17.255L2.62702 21.8099M5.893 17.255H18.7782M5.893 17.255H0.0331769M21.7049 12.8592L24.5312 8.61445M21.7049 12.8592L18.7782 17.255M21.7049 12.8592H34.3647M24.5312 8.61445H36.9736M24.5312 8.61445L27.2621 4.51345M15.0298 4.51345H27.2621M15.0298 4.51345L17.873 0.548179M15.0298 4.51345H2.79747M18.7782 17.255L15.7452 21.8099M18.7782 17.255H31.6631M34.3647 12.8592L36.9736 8.61445M34.3647 12.8592L31.6631 17.255M36.9736 8.61445L39.4944 4.51345M27.2621 4.51345L27.5968 4.00994L29.9022 0.548179M27.2621 4.51345H39.4944M31.6631 17.255L28.8635 21.8099M51.7266 4.51345L53.9606 0.548179M51.7266 4.51345H39.4944M39.4944 4.51345L39.8034 4.00994L41.9314 0.548179M2.62702 21.8099H15.7452M2.62702 21.8099L0.0331769 26.5326H12.6005M2.62702 21.8099H0.0331769M12.6005 26.5326L15.7452 21.8099M12.6005 26.5326L9.33771 31.4327M12.6005 26.5326H25.9609M15.7452 21.8099H28.8635M28.8635 21.8099L25.9609 26.5326M9.33771 31.4327L5.94999 36.5203M9.33771 31.4327H22.9488M9.33771 31.4327H0M25.9609 26.5326L25.5903 27.1346L22.9488 31.4327M22.9488 31.4327L19.8217 36.5203M5.94999 36.5203L2.43009 41.807M5.94999 36.5203H19.8217M5.94999 36.5203H0.0331769M19.8217 36.5203L16.5726 41.807M2.43009 41.807H16.5726M2.43009 41.807L0 46.3033M2.43009 41.807H0M16.5726 41.807L13.194 47.304M13.194 47.304L9.67806 53.0242M13.194 47.304H0.0331769M9.67806 53.0242L6.01634 58.9817M9.67806 53.0242H0.0331769M6.01634 58.9817L2.19971 65.1915M6.01634 58.9817H0M2.19971 65.1915H0.0331769M2.19971 65.1915L0.0331769 69M2.79747 4.51345L5.84376 0.548179M2.79747 4.51345H0.0331769M354.692 0.548179H366.721M354.692 0.548179H342.663M363.774 -3.28722L364.502 -2.34004L366.721 0.548179M363.774 -3.28722H375.607M366.721 0.548179H378.75M375.607 -3.28722L376.383 -2.34004L376.774 -1.86426L378.75 0.548179M342.663 0.548179H330.633M306.575 0.548179H318.604M306.575 0.548179H294.546M316.443 -3.28722L316.977 -2.34004L317.245 -1.86426L318.604 0.548179M316.443 -3.28722H328.276M318.604 0.548179H330.633M328.276 -3.28722L330.633 0.548179M294.546 0.548179H282.516M258.458 0.548179H270.487M258.458 0.548179H246.429M269.112 -3.28722L269.281 -2.81509L269.451 -2.34004L269.622 -1.86426L270.487 0.548179M269.112 -3.28722H280.945M270.487 0.548179H282.516M280.945 -3.28722L282.516 0.548179M246.429 0.548179H234.399M210.341 0.548179H222.37M210.341 0.548179H198.312M221.781 -3.28722L222.37 0.548179M221.781 -3.28722H233.614M222.37 0.548179H234.399M233.614 -3.28722L233.711 -2.81509L233.808 -2.34004L233.905 -1.86426L234.399 0.548179M198.312 0.548179H186.282M162.224 0.548179H174.253M162.224 0.548179H150.195M174.45 -3.28722L174.253 0.548179M174.45 -3.28722H186.282M174.253 0.548179H186.282M186.282 -3.28722V0.548179M150.195 0.548179H138.165M114.107 0.548179H126.136M114.107 0.548179H102.078M127.118 -3.28722L126.876 -2.34004L126.385 -0.423069L126.136 0.548179M127.118 -3.28722H138.951M126.136 0.548179H138.165M138.951 -3.28722L138.854 -2.81509L138.757 -2.34004L138.66 -1.86426L138.165 0.548179M102.078 0.548179H90.0485M65.9901 0.548179H78.0193M65.9901 0.548179H53.9606M79.7874 -3.28722L79.3507 -2.34004L79.1311 -1.86426L78.0193 0.548179M79.7874 -3.28722H91.6202M78.0193 0.548179H90.0485M91.6202 -3.28722L91.4265 -2.81509L90.0485 0.548179M53.9606 0.548179H41.9314M17.873 0.548179H29.9022M17.873 0.548179H5.84376M32.4561 -3.28722L31.8255 -2.34004L31.5081 -1.86426L29.9022 0.548179M32.4561 -3.28722H44.289M29.9022 0.548179H41.9314M44.289 -3.28722L43.9984 -2.81509L41.9314 0.548179M5.84376 0.548179H0.0331769" stroke="#AFA4F1" stroke-width="0.2" stroke-miterlimit="10" stroke-linecap="round" stroke-linejoin="round"/>
</g>
<defs>
<clipPath id="clip0_240_539">
<rect width="382" height="400" rx="6" fill="white"/>
</clipPath>
</defs>
</svg>
