<svg width="382" height="400" viewBox="0 0 382 400" fill="none" xmlns="http://www.w3.org/2000/svg">
<g clip-path="url(#clip0_240_513)">
<path d="M0 5.99999C0 2.68629 2.68629 0 6 0H376C379.314 0 382 2.68629 382 6V394C382 397.314 379.314 400 376 400H5.99999C2.68628 400 0 397.314 0 394V5.99999Z" fill="#F7F3F0"/>
<path opacity="0.2" d="M-6.90527 3.99093V-18.2001H15.2857M-6.90527 3.99093V26.1819M-6.90527 3.99093H15.2857M-6.90527 26.1819V48.3729M-6.90527 26.1819H15.2857M-6.90527 48.3729V70.5639M-6.90527 48.3729H15.2857M-6.90527 70.5639V92.7549M-6.90527 70.5639H15.2857M-6.90527 92.7549V114.946M-6.90527 92.7549H15.2857M-6.90527 114.946V137.137M-6.90527 114.946H15.2857M-6.90527 137.137V159.328M-6.90527 137.137H15.2857M-6.90527 159.328V181.519M-6.90527 159.328H15.2857M-6.90527 181.519V203.71M-6.90527 181.519H15.2857M-6.90527 203.71V225.901M-6.90527 203.71H15.2857M-6.90527 225.901V248.092M-6.90527 225.901H15.2857M-6.90527 248.092V270.283M-6.90527 248.092H15.2857M-6.90527 270.283V292.474M-6.90527 270.283H15.2857M-6.90527 292.474V314.665M-6.90527 292.474H15.2857M-6.90527 314.665V336.856M-6.90527 314.665H15.2857M-6.90527 336.856V359.047M-6.90527 336.856H15.2857M-6.90527 359.047V381.238M-6.90527 359.047H15.2857M-6.90527 381.238V403.429M-6.90527 381.238H15.2857M-6.90527 403.429V425.62H15.2857M-6.90527 403.429H15.2857M15.2857 -18.2001V3.99093M15.2857 -18.2001H37.4767M15.2857 3.99093V26.1819M15.2857 3.99093H37.4767M15.2857 26.1819V48.3729M15.2857 26.1819H37.4767M15.2857 48.3729V70.5639M15.2857 48.3729H37.4767M15.2857 70.5639V92.7549M15.2857 70.5639H37.4767M15.2857 92.7549V114.946M15.2857 92.7549H37.4767M15.2857 114.946V137.137M15.2857 114.946H37.4767M15.2857 137.137V159.328M15.2857 137.137H37.4767M15.2857 159.328V181.519M15.2857 159.328H37.4767M15.2857 181.519V203.71M15.2857 181.519H37.4767M15.2857 203.71V225.901M15.2857 203.71H37.4767M15.2857 225.901V248.092M15.2857 225.901H37.4767M15.2857 248.092V270.283M15.2857 248.092H37.4767M15.2857 270.283V292.474M15.2857 270.283H37.4767M15.2857 292.474V314.665M15.2857 292.474H37.4767M15.2857 314.665V336.856M15.2857 314.665H37.4767M15.2857 336.856V359.047M15.2857 336.856H37.4767M15.2857 359.047V381.238M15.2857 359.047H37.4767M15.2857 381.238V403.429M15.2857 381.238H37.4767M15.2857 403.429V425.62M15.2857 403.429H37.4767M15.2857 425.62H37.4767M37.4767 -18.2001V3.99093M37.4767 -18.2001H59.6677M37.4767 3.99093V26.1819M37.4767 3.99093H59.6677M37.4767 26.1819V48.3729M37.4767 26.1819H59.6677M37.4767 48.3729V70.5639M37.4767 48.3729H59.6677M37.4767 70.5639V92.7549M37.4767 70.5639H59.6677M37.4767 92.7549V114.946M37.4767 92.7549H59.6677M37.4767 114.946V137.137M37.4767 114.946H59.6677M37.4767 137.137V159.328M37.4767 137.137H59.6677M37.4767 159.328V181.519M37.4767 159.328H59.6677M37.4767 181.519V203.71M37.4767 181.519H59.6677M37.4767 203.71V225.901M37.4767 203.71H59.6677M37.4767 225.901V248.092M37.4767 225.901H59.6677M37.4767 248.092V270.283M37.4767 248.092H59.6677M37.4767 270.283V292.474M37.4767 270.283H59.6677M37.4767 292.474V314.665M37.4767 292.474H59.6677M37.4767 314.665V336.856M37.4767 314.665H59.6677M37.4767 336.856V359.047M37.4767 336.856H59.6677M37.4767 359.047V381.238M37.4767 359.047H59.6677M37.4767 381.238V403.429M37.4767 381.238H59.6677M37.4767 403.429V425.62M37.4767 403.429H59.6677M37.4767 425.62H59.6677M59.6677 -18.2001V3.99093M59.6677 -18.2001H81.8587M59.6677 3.99093V26.1819M59.6677 3.99093H81.8587M59.6677 26.1819V48.3729M59.6677 26.1819H81.8587M59.6677 48.3729V70.5639M59.6677 48.3729H81.8587M59.6677 70.5639V92.7549M59.6677 70.5639H81.8587M59.6677 92.7549V114.946M59.6677 92.7549H81.8587M59.6677 114.946V137.137M59.6677 114.946H81.8587M59.6677 137.137V159.328M59.6677 137.137H81.8587M59.6677 159.328V181.519M59.6677 159.328H81.8587M59.6677 181.519V203.71M59.6677 181.519H81.8587M59.6677 203.71V225.901M59.6677 203.71H81.8587M59.6677 225.901V248.092M59.6677 225.901H81.8587M59.6677 248.092V270.283M59.6677 248.092H81.8587M59.6677 270.283V292.474M59.6677 270.283H81.8587M59.6677 292.474V314.665M59.6677 292.474H81.8587M59.6677 314.665V336.856M59.6677 314.665H81.8587M59.6677 336.856V359.047M59.6677 336.856H81.8587M59.6677 359.047V381.238M59.6677 359.047H81.8587M59.6677 381.238V403.429M59.6677 381.238H81.8587M59.6677 403.429V425.62M59.6677 403.429H81.8587M59.6677 425.62H81.8587M81.8587 -18.2001V3.99093M81.8587 -18.2001H104.05M81.8587 3.99093V26.1819M81.8587 3.99093H104.05M81.8587 26.1819V48.3729M81.8587 26.1819H104.05M81.8587 48.3729V70.5639M81.8587 48.3729H104.05M81.8587 70.5639V92.7549M81.8587 70.5639H104.05M81.8587 92.7549V114.946M81.8587 92.7549H104.05M81.8587 114.946V137.137M81.8587 114.946H104.05M81.8587 137.137V159.328M81.8587 137.137H104.05M81.8587 159.328V181.519M81.8587 159.328H104.05M81.8587 181.519V203.71M81.8587 181.519H104.05M81.8587 203.71V225.901M81.8587 203.71H104.05M81.8587 225.901V248.092M81.8587 225.901H104.05M81.8587 248.092V270.283M81.8587 248.092H104.05M81.8587 270.283V292.474M81.8587 270.283H104.05M81.8587 292.474V314.665M81.8587 292.474H104.05M81.8587 314.665V336.856M81.8587 314.665H104.05M81.8587 336.856V359.047M81.8587 336.856H104.05M81.8587 359.047V381.238M81.8587 359.047H104.05M81.8587 381.238V403.429M81.8587 381.238H104.05M81.8587 403.429V425.62M81.8587 403.429H104.05M81.8587 425.62H104.05M104.05 -18.2001V3.99093M104.05 -18.2001H126.241M104.05 3.99093V26.1819M104.05 3.99093H126.241M104.05 26.1819V48.3729M104.05 26.1819H126.241M104.05 48.3729V70.5639M104.05 48.3729H126.241M104.05 70.5639V92.7549M104.05 70.5639H126.241M104.05 92.7549V114.946M104.05 92.7549H126.241M104.05 114.946V137.137M104.05 114.946H126.241M104.05 137.137V159.328M104.05 137.137H126.241M104.05 159.328V181.519M104.05 159.328H126.241M104.05 181.519V203.71M104.05 181.519H126.241M104.05 203.71V225.901M104.05 203.71H126.241M104.05 225.901V248.092M104.05 225.901H126.241M104.05 248.092V270.283M104.05 248.092H126.241M104.05 270.283V292.474M104.05 270.283H126.241M104.05 292.474V314.665M104.05 292.474H126.241M104.05 314.665V336.856M104.05 314.665H126.241M104.05 336.856V359.047M104.05 336.856H126.241M104.05 359.047V381.238M104.05 359.047H126.241M104.05 381.238V403.429M104.05 381.238H126.241M104.05 403.429V425.62M104.05 403.429H126.241M104.05 425.62H126.241M126.241 -18.2001V3.99093M126.241 -18.2001H148.432M126.241 3.99093V26.1819M126.241 3.99093H148.432M126.241 26.1819V48.3729M126.241 26.1819H148.432M126.241 48.3729V70.5639M126.241 48.3729H148.432M126.241 70.5639V92.7549M126.241 70.5639H148.432M126.241 92.7549V114.946M126.241 92.7549H148.432M126.241 114.946V137.137M126.241 114.946H148.432M126.241 137.137V159.328M126.241 137.137H148.432M126.241 159.328V181.519M126.241 159.328H148.432M126.241 181.519V203.71M126.241 181.519H148.432M126.241 203.71V225.901M126.241 203.71H148.432M126.241 225.901V248.092M126.241 225.901H148.432M126.241 248.092V270.283M126.241 248.092H148.432M126.241 270.283V292.474M126.241 270.283H148.432M126.241 292.474V314.665M126.241 292.474H148.432M126.241 314.665V336.856M126.241 314.665H148.432M126.241 336.856V359.047M126.241 336.856H148.432M126.241 359.047V381.238M126.241 359.047H148.432M126.241 381.238V403.429M126.241 381.238H148.432M126.241 403.429V425.62M126.241 403.429H148.432M126.241 425.62H148.432M148.432 -18.2001V3.99093M148.432 -18.2001H170.623M148.432 3.99093V26.1819M148.432 3.99093H170.623M148.432 26.1819V48.3729M148.432 26.1819H170.623M148.432 48.3729V70.5639M148.432 48.3729H170.623M148.432 70.5639V92.7549M148.432 70.5639H170.623M148.432 92.7549V114.946M148.432 92.7549H170.623M148.432 114.946V137.137M148.432 114.946H170.623M148.432 137.137V159.328M148.432 137.137H170.623M148.432 159.328V181.519M148.432 159.328H170.623M148.432 181.519V203.71M148.432 181.519H170.623M148.432 203.71V225.901M148.432 203.71H170.623M148.432 225.901V248.092M148.432 225.901H170.623M148.432 248.092V270.283M148.432 248.092H170.623M148.432 270.283V292.474M148.432 270.283H170.623M148.432 292.474V314.665M148.432 292.474H170.623M148.432 314.665V336.856M148.432 314.665H170.623M148.432 336.856V359.047M148.432 336.856H170.623M148.432 359.047V381.238M148.432 359.047H170.623M148.432 381.238V403.429M148.432 381.238H170.623M148.432 403.429V425.62M148.432 403.429H170.623M148.432 425.62H170.623M170.623 -18.2001V3.99093M170.623 -18.2001H192.814M170.623 3.99093V26.1819M170.623 3.99093H192.814M170.623 26.1819V48.3729M170.623 26.1819H192.814M170.623 48.3729V70.5639M170.623 48.3729H192.814M170.623 70.5639V92.7549M170.623 70.5639H192.814M170.623 92.7549V114.946M170.623 92.7549H192.814M170.623 114.946V137.137M170.623 114.946H192.814M170.623 137.137V159.328M170.623 137.137H192.814M170.623 159.328V181.519M170.623 159.328H192.814M170.623 181.519V203.71M170.623 181.519H192.814M170.623 203.71V225.901M170.623 203.71H192.814M170.623 225.901V248.092M170.623 225.901H192.814M170.623 248.092V270.283M170.623 248.092H192.814M170.623 270.283V292.474M170.623 270.283H192.814M170.623 292.474V314.665M170.623 292.474H192.814M170.623 314.665V336.856M170.623 314.665H192.814M170.623 336.856V359.047M170.623 336.856H192.814M170.623 359.047V381.238M170.623 359.047H192.814M170.623 381.238V403.429M170.623 381.238H192.814M170.623 403.429V425.62M170.623 403.429H192.814M170.623 425.62H192.814M192.814 -18.2001V3.99093M192.814 -18.2001H215.005M192.814 3.99093V26.1819M192.814 3.99093H215.005M192.814 26.1819V48.3729M192.814 26.1819H215.005M192.814 48.3729V70.5639M192.814 48.3729H215.005M192.814 70.5639V92.7549M192.814 70.5639H215.005M192.814 92.7549V114.946M192.814 92.7549H215.005M192.814 114.946V137.137M192.814 114.946H215.005M192.814 137.137V159.328M192.814 137.137H215.005M192.814 159.328V181.519M192.814 159.328H215.005M192.814 181.519V203.71M192.814 181.519H215.005M192.814 203.71V225.901M192.814 203.71H215.005M192.814 225.901V248.092M192.814 225.901H215.005M192.814 248.092V270.283M192.814 248.092H215.005M192.814 270.283V292.474M192.814 270.283H215.005M192.814 292.474V314.665M192.814 292.474H215.005M192.814 314.665V336.856M192.814 314.665H215.005M192.814 336.856V359.047M192.814 336.856H215.005M192.814 359.047V381.238M192.814 359.047H215.005M192.814 381.238V403.429M192.814 381.238H215.005M192.814 403.429V425.62M192.814 403.429H215.005M192.814 425.62H215.005M215.005 -18.2001V3.99093M215.005 -18.2001H237.196M215.005 3.99093V26.1819M215.005 3.99093H237.196M215.005 26.1819V48.3729M215.005 26.1819H237.196M215.005 48.3729V70.5639M215.005 48.3729H237.196M215.005 70.5639V92.7549M215.005 70.5639H237.196M215.005 92.7549V114.946M215.005 92.7549H237.196M215.005 114.946V137.137M215.005 114.946H237.196M215.005 137.137V159.328M215.005 137.137H237.196M215.005 159.328V181.519M215.005 159.328H237.196M215.005 181.519V203.71M215.005 181.519H237.196M215.005 203.71V225.901M215.005 203.71H237.196M215.005 225.901V248.092M215.005 225.901H237.196M215.005 248.092V270.283M215.005 248.092H237.196M215.005 270.283V292.474M215.005 270.283H237.196M215.005 292.474V314.665M215.005 292.474H237.196M215.005 314.665V336.856M215.005 314.665H237.196M215.005 336.856V359.047M215.005 336.856H237.196M215.005 359.047V381.238M215.005 359.047H237.196M215.005 381.238V403.429M215.005 381.238H237.196M215.005 403.429V425.62M215.005 403.429H237.196M215.005 425.62H237.196M237.196 -18.2001V3.99093M237.196 -18.2001H259.387M237.196 3.99093V26.1819M237.196 3.99093H259.387M237.196 26.1819V48.3729M237.196 26.1819H259.387M237.196 48.3729V70.5639M237.196 48.3729H259.387M237.196 70.5639V92.7549M237.196 70.5639H259.387M237.196 92.7549V114.946M237.196 92.7549H259.387M237.196 114.946V137.137M237.196 114.946H259.387M237.196 137.137V159.328M237.196 137.137H259.387M237.196 159.328V181.519M237.196 159.328H259.387M237.196 181.519V203.71M237.196 181.519H259.387M237.196 203.71V225.901M237.196 203.71H259.387M237.196 225.901V248.092M237.196 225.901H259.387M237.196 248.092V270.283M237.196 248.092H259.387M237.196 270.283V292.474M237.196 270.283H259.387M237.196 292.474V314.665M237.196 292.474H259.387M237.196 314.665V336.856M237.196 314.665H259.387M237.196 336.856V359.047M237.196 336.856H259.387M237.196 359.047V381.238M237.196 359.047H259.387M237.196 381.238V403.429M237.196 381.238H259.387M237.196 403.429V425.62M237.196 403.429H259.387M237.196 425.62H259.387M259.387 -18.2001V3.99093M259.387 -18.2001H281.578M259.387 3.99093V26.1819M259.387 3.99093H281.578M259.387 26.1819V48.3729M259.387 26.1819H281.578M259.387 48.3729V70.5639M259.387 48.3729H281.578M259.387 70.5639V92.7549M259.387 70.5639H281.578M259.387 92.7549V114.946M259.387 92.7549H281.578M259.387 114.946V137.137M259.387 114.946H281.578M259.387 137.137V159.328M259.387 137.137H281.578M259.387 159.328V181.519M259.387 159.328H281.578M259.387 181.519V203.71M259.387 181.519H281.578M259.387 203.71V225.901M259.387 203.71H281.578M259.387 225.901V248.092M259.387 225.901H281.578M259.387 248.092V270.283M259.387 248.092H281.578M259.387 270.283V292.474M259.387 270.283H281.578M259.387 292.474V314.665M259.387 292.474H281.578M259.387 314.665V336.856M259.387 314.665H281.578M259.387 336.856V359.047M259.387 336.856H281.578M259.387 359.047V381.238M259.387 359.047H281.578M259.387 381.238V403.429M259.387 381.238H281.578M259.387 403.429V425.62M259.387 403.429H281.578M259.387 425.62H281.578M281.578 -18.2001V3.99093M281.578 -18.2001H303.769M281.578 3.99093V26.1819M281.578 3.99093H303.769M281.578 26.1819V48.3729M281.578 26.1819H303.769M281.578 48.3729V70.5639M281.578 48.3729H303.769M281.578 70.5639V92.7549M281.578 70.5639H303.769M281.578 92.7549V114.946M281.578 92.7549H303.769M281.578 114.946V137.137M281.578 114.946H303.769M281.578 137.137V159.328M281.578 137.137H303.769M281.578 159.328V181.519M281.578 159.328H303.769M281.578 181.519V203.71M281.578 181.519H303.769M281.578 203.71V225.901M281.578 203.71H303.769M281.578 225.901V248.092M281.578 225.901H303.769M281.578 248.092V270.283M281.578 248.092H303.769M281.578 270.283V292.474M281.578 270.283H303.769M281.578 292.474V314.665M281.578 292.474H303.769M281.578 314.665V336.856M281.578 314.665H303.769M281.578 336.856V359.047M281.578 336.856H303.769M281.578 359.047V381.238M281.578 359.047H303.769M281.578 381.238V403.429M281.578 381.238H303.769M281.578 403.429V425.62M281.578 403.429H303.769M281.578 425.62H303.769M303.769 -18.2001V3.99093M303.769 -18.2001H325.96M303.769 3.99093V26.1819M303.769 3.99093H325.96M303.769 26.1819V48.3729M303.769 26.1819H325.96M303.769 48.3729V70.5639M303.769 48.3729H325.96M303.769 70.5639V92.7549M303.769 70.5639H325.96M303.769 92.7549V114.946M303.769 92.7549H325.96M303.769 114.946V137.137M303.769 114.946H325.96M303.769 137.137V159.328M303.769 137.137H325.96M303.769 159.328V181.519M303.769 159.328H325.96M303.769 181.519V203.71M303.769 181.519H325.96M303.769 203.71V225.901M303.769 203.71H325.96M303.769 225.901V248.092M303.769 225.901H325.96M303.769 248.092V270.283M303.769 248.092H325.96M303.769 270.283V292.474M303.769 270.283H325.96M303.769 292.474V314.665M303.769 292.474H325.96M303.769 314.665V336.856M303.769 314.665H325.96M303.769 336.856V359.047M303.769 336.856H325.96M303.769 359.047V381.238M303.769 359.047H325.96M303.769 381.238V403.429M303.769 381.238H325.96M303.769 403.429V425.62M303.769 403.429H325.96M303.769 425.62H325.96M325.96 -18.2001V3.99093M325.96 -18.2001C325.96 -18.2001 339.484 -18.2001 348.151 -18.2001M325.96 3.99093V26.1819M325.96 3.99093H348.151M325.96 26.1819V48.3729M325.96 26.1819H348.151M325.96 48.3729V70.5639M325.96 48.3729H348.151M325.96 70.5639V92.7549M325.96 70.5639H348.151M325.96 92.7549V114.946M325.96 92.7549H348.151M325.96 114.946V137.137M325.96 114.946H348.151M325.96 137.137V159.328M325.96 137.137H348.151M325.96 159.328V181.519M325.96 159.328H348.151M325.96 181.519V203.71M325.96 181.519H348.151M325.96 203.71V225.901M325.96 203.71H348.151M325.96 225.901V248.092M325.96 225.901H348.151M325.96 248.092V270.283M325.96 248.092H348.151M325.96 270.283V292.474M325.96 270.283H348.151M325.96 292.474V314.665M325.96 292.474H348.151M325.96 314.665V336.856M325.96 314.665H348.151M325.96 336.856V359.047M325.96 336.856H348.151M325.96 359.047V381.238M325.96 359.047H348.151M325.96 381.238V403.429M325.96 381.238H348.151M325.96 403.429V425.62M325.96 403.429H348.151M325.96 425.62H348.151M348.151 -18.2001C348.151 -9.53394 348.151 3.99093 348.151 3.99093M348.151 -18.2001C356.817 -18.2001 361.675 -18.2001 370.342 -18.2001M348.151 3.99093V26.1819M348.151 3.99093H370.342M348.151 26.1819V48.3729M348.151 26.1819H370.342M348.151 48.3729V70.5639M348.151 48.3729H370.342M348.151 70.5639V92.7549M348.151 70.5639H370.342M348.151 92.7549V114.946M348.151 92.7549H370.342M348.151 114.946V137.137M348.151 114.946H370.342M348.151 137.137V159.328M348.151 137.137H370.342M348.151 159.328V181.519M348.151 159.328H370.342M348.151 181.519V203.71M348.151 181.519H370.342M348.151 203.71V225.901M348.151 203.71H370.342M348.151 225.901V248.092M348.151 225.901H370.342M348.151 248.092V270.283M348.151 248.092H370.342M348.151 270.283V292.474M348.151 270.283H370.342M348.151 292.474V314.665M348.151 292.474H370.342M348.151 314.665V336.856M348.151 314.665H370.342M348.151 336.856V359.047M348.151 336.856H370.342M348.151 359.047V381.238M348.151 359.047H370.342M348.151 381.238V403.429M348.151 381.238H370.342M348.151 403.429V425.62M348.151 403.429H370.342M348.151 425.62H370.342M370.342 -18.2001C370.342 -9.53394 370.342 3.99093 370.342 3.99093M370.342 -18.2001C378.617 -18.2001 391.533 -18.2001 391.533 -18.2001C391.533 -18.2001 391.533 -4.67519 391.533 3.99093M370.342 3.99093V26.1819M370.342 3.99093C370.342 3.99093 383.257 3.99093 391.533 3.99093M370.342 26.1819V48.3729M370.342 26.1819H391.533M370.342 48.3729V70.5639M370.342 48.3729H391.533M370.342 70.5639V92.7549M370.342 70.5639H391.533M370.342 92.7549V114.946M370.342 92.7549H391.533M370.342 114.946V137.137M370.342 114.946H391.533M370.342 137.137V159.328M370.342 137.137H391.533M370.342 159.328V181.519M370.342 159.328H391.533M370.342 181.519V203.71M370.342 181.519H391.533M370.342 203.71V225.901M370.342 203.71H391.533M370.342 225.901V248.092M370.342 225.901H391.533M370.342 248.092V270.283M370.342 248.092H391.533M370.342 270.283V292.474M370.342 270.283H391.533M370.342 292.474V314.665M370.342 292.474H391.533M370.342 314.665V336.856M370.342 314.665H391.533M370.342 336.856V359.047M370.342 336.856H391.533M370.342 359.047V381.238M370.342 359.047H391.533M370.342 381.238V403.429M370.342 381.238H391.533M370.342 403.429V425.62M370.342 403.429H391.533M370.342 425.62H391.533V403.429M391.533 3.99093C391.533 12.657 391.533 26.1819 391.533 26.1819M391.533 26.1819V48.3729M391.533 48.3729V70.5639M391.533 70.5639V92.7549M391.533 92.7549V114.946M391.533 114.946V137.137M391.533 137.137V159.328M391.533 159.328V181.519M391.533 181.519V203.71M391.533 203.71V225.901M391.533 225.901V248.092M391.533 248.092V270.283M391.533 270.283V292.474M391.533 292.474V314.665M391.533 314.665V336.856M391.533 336.856V359.047M391.533 359.047V381.238M391.533 381.238V403.429" stroke="#AFA4F1" stroke-width="0.804612"/>
<path d="M104.05 63.9066V77.2212M97.3926 70.5639H110.707" stroke="#AFA4F1" stroke-width="2"/>
<path d="M104.05 241.435V254.749M97.3926 248.092H110.707" stroke="#AFA4F1" stroke-width="2"/>
<path d="M281.577 63.9066V77.2212M274.92 70.5639H288.235" stroke="#AFA4F1" stroke-width="2"/>
<path d="M281.577 241.435V254.749M274.92 248.092H288.235" stroke="#121CD6" stroke-width="2"/>
<path d="M104.05 152.671V165.985M97.3926 159.328H110.707" stroke="#121CD6" stroke-width="2"/>
<path d="M104.05 330.199V343.513M97.3926 336.856H110.707" stroke="#AFA4F1" stroke-width="2"/>
<path d="M281.577 152.671V165.985M274.92 159.328H288.235" stroke="#AFA4F1" stroke-width="2"/>
<path d="M281.577 330.199V343.513M274.92 336.856H288.235" stroke="#AFA4F1" stroke-width="2"/>
<path d="M15.2852 63.9066V77.2212M8.62793 70.5639H21.9425" stroke="#AFA4F1" stroke-width="2"/>
<path d="M15.2852 241.435V254.749M8.62793 248.092H21.9425" stroke="#AFA4F1" stroke-width="2"/>
<path d="M192.814 63.9066V77.2212M186.156 70.5639H199.471" stroke="#121CD6" stroke-width="2"/>
<path d="M192.814 241.435V254.749M186.156 248.092H199.471" stroke="#AFA4F1" stroke-width="2"/>
<path d="M370.341 63.9066V77.2212M363.684 70.5639H376.998" stroke="#AFA4F1" stroke-width="2"/>
<path d="M370.341 241.435V254.749M363.684 248.092H376.998" stroke="#AFA4F1" stroke-width="2"/>
<path d="M15.2852 152.671V165.985M8.62793 159.328H21.9425" stroke="#AFA4F1" stroke-width="2"/>
<path d="M15.2852 330.199V343.513M8.62793 336.856H21.9425" stroke="#121CD6" stroke-width="2"/>
<path d="M192.814 152.671V165.985M186.156 159.328H199.471" stroke="#AFA4F1" stroke-width="2"/>
<path d="M192.814 330.199V343.513M186.156 336.856H199.471" stroke="#121CD6" stroke-width="2"/>
<path d="M370.341 152.671V165.985M363.684 159.328H376.998" stroke="#121CD6" stroke-width="2"/>
<path d="M370.341 330.199V343.513M363.684 336.856H376.998" stroke="#AFA4F1" stroke-width="2"/>
</g>
<defs>
<clipPath id="clip0_240_513">
<path d="M0 5.99999C0 2.68629 2.68629 0 6 0H376C379.314 0 382 2.68629 382 6V394C382 397.314 379.314 400 376 400H5.99999C2.68628 400 0 397.314 0 394V5.99999Z" fill="white"/>
</clipPath>
</defs>
</svg>
