<svg width="680" height="921" viewBox="0 0 680 921" fill="none" xmlns="http://www.w3.org/2000/svg">
<path d="M678.999 154.298L430.999 378.235V542.895L678.999 767.183" stroke="#AFA4F1" stroke-width="0.6" stroke-linecap="round" stroke-linejoin="round"/>
<path d="M678.999 690.145L461.43 542.898V378.239L678.999 230.737" stroke="#AFA4F1" stroke-width="0.6" stroke-linecap="round" stroke-linejoin="round"/>
<path d="M1 1.81152L279.332 378.237V542.897L1.05879 920" stroke="#AFA4F1" stroke-width="0.6" stroke-linecap="round" stroke-linejoin="round"/>
<path d="M170.073 1L309.667 378.236V542.896L170.439 919.919" stroke="#AFA4F1" stroke-width="0.6" stroke-linecap="round" stroke-linejoin="round"/>
<path d="M509.425 1L370.332 378.236V542.896L509.079 919.919" stroke="#AFA4F1" stroke-width="0.6" stroke-linecap="round" stroke-linejoin="round"/>
<path d="M339.75 1L340 378.236V542.683L339.76 919.919" stroke="#AFA4F1" stroke-width="0.6" stroke-linecap="round" stroke-linejoin="round"/>
<path d="M679 1.13306L400.667 378.236V542.897L678.404 919.919" stroke="#AFA4F1" stroke-width="0.6" stroke-linecap="round" stroke-linejoin="round"/>
<path d="M1 230.721L218.457 378.235V542.895L1 690.156" stroke="#AFA4F1" stroke-width="0.6" stroke-linecap="round" stroke-linejoin="round"/>
<path d="M1 154.567L249 378.237V542.897L1 766.928" stroke="#AFA4F1" stroke-width="0.6" stroke-linecap="round" stroke-linejoin="round"/>
<path d="M1 230.721L218.457 378.235V542.895L1 690.156" stroke="#AFA4F1" stroke-width="0.6" stroke-linecap="round" stroke-linejoin="round"/>
<path d="M678.999 230.737L461.43 378.239V542.898L678.999 690.145" stroke="#AFA4F1" stroke-width="0.6" stroke-linecap="round" stroke-linejoin="round"/>
<path d="M679 575.662L461.431 501.571H218.456L1.00049 575.568" stroke="#AFA4F1" stroke-width="0.6" stroke-linecap="round" stroke-linejoin="round"/>
<path d="M679 345.831L461.431 419.348H218.456L1.00049 345.943" stroke="#AFA4F1" stroke-width="0.6" stroke-linecap="round" stroke-linejoin="round"/>
<path d="M679 460.747L461.431 460.461H218.456L1.00049 460.755" stroke="#AFA4F1" stroke-width="0.6" stroke-linecap="round" stroke-linejoin="round"/>
<path d="M679 229.643H1.00049" stroke="#AFA4F1" stroke-width="0.6" stroke-linecap="round" stroke-linejoin="round"/>
<path d="M679 197.952H1.00049" stroke="#AFA4F1" stroke-width="0.6" stroke-linecap="round" stroke-linejoin="round"/>
<path d="M679 723.662H1.00049" stroke="#AFA4F1" stroke-width="0.6" stroke-linecap="round" stroke-linejoin="round"/>
<path d="M679 765.553H1.00049" stroke="#AFA4F1" stroke-width="0.6" stroke-linecap="round" stroke-linejoin="round"/>
<path d="M679 823.305H1.00049" stroke="#AFA4F1" stroke-width="0.6" stroke-linecap="round" stroke-linejoin="round"/>
<path d="M679 908.026H1.00049" stroke="#AFA4F1" stroke-width="0.6" stroke-linecap="round" stroke-linejoin="round"/>
<path d="M679 156.175H1.00049" stroke="#AFA4F1" stroke-width="0.6" stroke-linecap="round" stroke-linejoin="round"/>
<path d="M679 98.5816H1.00049" stroke="#AFA4F1" stroke-width="0.6" stroke-linecap="round" stroke-linejoin="round"/>
<path d="M679 14.1048H1.00049" stroke="#AFA4F1" stroke-width="0.6" stroke-linecap="round" stroke-linejoin="round"/>
<path d="M679 691.888H1.00049" stroke="#AFA4F1" stroke-width="0.6" stroke-linecap="round" stroke-linejoin="round"/>
<path fill-rule="evenodd" clip-rule="evenodd" d="M218.457 542.895H461.432V378.236H218.457V542.895Z" stroke="#AFA4F1" stroke-width="0.6" stroke-linecap="round" stroke-linejoin="round"/>
<path fill-rule="evenodd" clip-rule="evenodd" d="M213.166 546.481H466.743V374.646H213.166V546.481Z" stroke="#AFA4F1" stroke-width="0.6" stroke-linecap="round" stroke-linejoin="round"/>
<path fill-rule="evenodd" clip-rule="evenodd" d="M207.207 550.528H472.714V370.604H207.207V550.528Z" stroke="#AFA4F1" stroke-width="0.6" stroke-linecap="round" stroke-linejoin="round"/>
<path fill-rule="evenodd" clip-rule="evenodd" d="M200.659 554.968H479.275V366.165H200.659V554.968Z" stroke="#AFA4F1" stroke-width="0.6" stroke-linecap="round" stroke-linejoin="round"/>
<path fill-rule="evenodd" clip-rule="evenodd" d="M193.435 559.84H486.479V361.258H193.435V559.84Z" stroke="#AFA4F1" stroke-width="0.6" stroke-linecap="round" stroke-linejoin="round"/>
<path fill-rule="evenodd" clip-rule="evenodd" d="M185.417 565.27H494.499V355.823H185.417V565.27Z" stroke="#AFA4F1" stroke-width="0.6" stroke-linecap="round" stroke-linejoin="round"/>
<path fill-rule="evenodd" clip-rule="evenodd" d="M176.473 571.328H503.447V349.758H176.473V571.328Z" stroke="#AFA4F1" stroke-width="0.6" stroke-linecap="round" stroke-linejoin="round"/>
<path fill-rule="evenodd" clip-rule="evenodd" d="M166.43 578.129H513.496V342.943H166.43V578.129Z" stroke="#AFA4F1" stroke-width="0.6" stroke-linecap="round" stroke-linejoin="round"/>
<path fill-rule="evenodd" clip-rule="evenodd" d="M155.073 585.821H524.862V335.241H155.073V585.821Z" stroke="#AFA4F1" stroke-width="0.6" stroke-linecap="round" stroke-linejoin="round"/>
<path fill-rule="evenodd" clip-rule="evenodd" d="M142.126 594.585H537.816V326.453H142.126V594.585Z" stroke="#AFA4F1" stroke-width="0.6" stroke-linecap="round" stroke-linejoin="round"/>
<path fill-rule="evenodd" clip-rule="evenodd" d="M127.229 604.675H552.721V316.354H127.229V604.675Z" stroke="#AFA4F1" stroke-width="0.6" stroke-linecap="round" stroke-linejoin="round"/>
<path fill-rule="evenodd" clip-rule="evenodd" d="M109.906 616.403H570.055V304.599H109.906V616.403Z" stroke="#AFA4F1" stroke-width="0.6" stroke-linecap="round" stroke-linejoin="round"/>
<path fill-rule="evenodd" clip-rule="evenodd" d="M89.5068 630.219H590.462V290.76H89.5068V630.219Z" stroke="#AFA4F1" stroke-width="0.6" stroke-linecap="round" stroke-linejoin="round"/>
<path fill-rule="evenodd" clip-rule="evenodd" d="M65.1533 646.872H615.066V274.24H65.1533V646.872Z" stroke="#AFA4F1" stroke-width="0.6" stroke-linecap="round" stroke-linejoin="round"/>
<path fill-rule="evenodd" clip-rule="evenodd" d="M35.6753 666.674H644.322V254.246H35.6753V666.674Z" stroke="#AFA4F1" stroke-width="0.6" stroke-linecap="round" stroke-linejoin="round"/>
</svg>
