<svg width="50" height="50" viewBox="0 0 50 50" fill="none" xmlns="http://www.w3.org/2000/svg">
<path d="M37 22C35.343 22 34 23.343 34 25V8C34 6.343 32.657 5 31 5C29.343 5 28 6.343 28 8V23V6C28 4.343 26.657 3 25 3C23.343 3 22 4.343 22 6V7V22V8C22 6.343 20.657 5 19 5C17.343 5 16 6.343 16 8V31V24C16 22 14.657 21 13 21C11.343 21 10 22.343 10 24V32C10 40.284 16.716 47 25 47C33.284 47 40 40.284 40 32V25C40 23.343 38.657 22 37 22Z" stroke="#121CD6" stroke-width="2" stroke-miterlimit="10" stroke-linecap="round" stroke-linejoin="round"/>
</svg>
