<svg width="720" height="390" viewBox="0 0 720 390" fill="none" xmlns="http://www.w3.org/2000/svg">
<path d="M299.209 4.5563C324.882 -2.60932 352.995 -0.0655518 379.07 3.64712L478.662 187.841L713.846 118.263C713.837 118.177 713.833 118.089 713.833 118C713.833 116.527 715.027 115.333 716.5 115.333C717.973 115.333 719.167 116.527 719.167 118C719.167 119.472 717.973 120.667 716.5 120.667C715.468 120.667 714.574 120.079 714.131 119.221L479.148 188.741L529.753 282.332C530.531 287.576 529.539 285.681 525.837 286.174C516.126 287.473 508.078 283.786 499.091 283.449C428.189 280.905 356.67 285.578 285.715 283.552C283.474 281.65 301.082 254.76 316.219 234.816L252.803 248.565L175.728 390H87.1738L153.084 270.185L48.1631 292.933C48.1636 292.955 48.167 292.978 48.167 293C48.167 294.472 46.9728 295.667 45.5 295.667C44.0272 295.667 42.833 294.472 42.833 293C42.8332 291.527 44.0273 290.333 45.5 290.333C46.6021 290.333 47.5478 291.002 47.9541 291.956L153.723 269.024L211.044 164.824L5.13379 64.5934C4.64747 65.2435 3.87429 65.6666 3 65.6666C1.52724 65.6666 0.333008 64.4724 0.333008 62.9997C0.33315 61.527 1.52733 60.3327 3 60.3327C4.47267 60.3327 5.66685 61.527 5.66699 62.9997C5.66699 63.2405 5.63112 63.4731 5.57129 63.695L211.526 163.947L299.209 4.5563ZM583.19 390H469.95C442.4 368.888 410.292 353.756 384.101 330.954C382.315 329.42 379.011 331.162 380.689 325H551.216L583.19 390ZM253.435 247.406L317.152 233.591C320.724 228.922 324.131 224.683 327.071 221.301L280.116 198.446L253.435 247.406ZM280.596 197.567L327.755 220.522C331.122 216.711 333.813 214.131 335.344 213.479H392.005L402.134 210.482L344.411 103.449L334.137 99.32L280.596 197.567ZM395.532 213.479H403.75L402.619 211.382L395.532 213.479Z" fill="#121CD6"/>
</svg>
