<svg width="720" height="236" viewBox="0 0 720 236" fill="none" xmlns="http://www.w3.org/2000/svg">
<circle cx="342.5" cy="168.5" r="2.5" fill="#AFA4F1"/>
<path d="M343 168.5L343.105 168.989L343.124 168.985L343.141 168.979L343 168.5ZM42.8333 233C42.8333 234.473 44.0272 235.667 45.5 235.667C46.9728 235.667 48.1667 234.473 48.1667 233C48.1667 231.527 46.9728 230.333 45.5 230.333C44.0272 230.333 42.8333 231.527 42.8333 233ZM713.833 58C713.833 59.4728 715.027 60.6667 716.5 60.6667C717.973 60.6667 719.167 59.4728 719.167 58C719.167 56.5272 717.973 55.3333 716.5 55.3333C715.027 55.3333 713.833 56.5272 713.833 58ZM0.333333 3C0.333333 4.47276 1.52724 5.66667 3 5.66667C4.47276 5.66667 5.66667 4.47276 5.66667 3C5.66667 1.52724 4.47276 0.333333 3 0.333333C1.52724 0.333333 0.333333 1.52724 0.333333 3ZM343 168.5L342.894 168.011L45.3941 232.511L45.5 233L45.6059 233.489L343.105 168.989L343 168.5ZM343 168.5L343.141 168.979L716.642 58.4795L716.5 58L716.358 57.5205L342.858 168.021L343 168.5ZM343 168.5L343.218 168.05L3.21883 2.55043L3 3L2.78117 3.44957L342.781 168.95L343 168.5Z" fill="#AFA4F1"/>
</svg>
