<svg width="117" height="18" viewBox="0 0 117 18" fill="none" xmlns="http://www.w3.org/2000/svg">
<g clip-path="url(#clip0_2007_164)">
<path d="M0 17.9064L9.52387 0.209199C10.677 -0.119807 11.9398 -0.00298282 13.111 0.167481L19.8792 12.963C19.9141 13.2038 19.8695 13.1168 19.7032 13.1394C19.267 13.199 18.9056 13.0297 18.5019 13.0142C15.3172 12.8974 12.1049 13.112 8.91779 13.019C8.76114 12.8831 10.7638 9.96854 11.1469 9.80165H14.2195L11.5542 4.74974L11.0927 4.5602L3.97752 17.9064H0.00120612H0Z" fill="#1E1E1E"/>
<path d="M80.8516 15.4028H78.9237V8.54858C78.9237 8.46514 78.6177 7.61997 78.5442 7.49362C77.5706 5.82713 74.5678 6.11799 73.769 7.86077C73.6617 8.09441 73.381 9.05878 73.381 9.26501V15.404H71.4531V8.66898C71.4531 8.50448 71.1313 7.60686 71.0205 7.42805C70.024 5.82355 67.0815 6.15375 66.2983 7.86077C66.1911 8.09441 65.9103 9.05878 65.9103 9.26501V15.404H63.9824V4.91401H65.9103L65.9718 6.10726C66.3646 5.84143 66.6369 5.41348 67.0743 5.1715C68.9733 4.11772 71.8206 4.66368 72.9605 6.5817C74.3835 4.17017 78.6755 3.98421 80.2299 6.30633C80.3444 6.47799 80.8528 7.6009 80.8528 7.71653V15.4052L80.8516 15.4028Z" fill="#1E1E1E"/>
<path d="M24.822 15.4032L30.4985 1.8281L33.2036 1.80664L39.0403 15.4032H36.7509L35.7075 12.8939L28.0621 12.9726L27.1102 15.402H24.8208L24.822 15.4032ZM34.9435 11.1118L31.8119 3.72108L28.9188 11.1118H34.9435Z" fill="#1E1E1E"/>
<path d="M50.0051 1.81372V15.4031H48.0772V13.9739C47.5085 14.1932 47.2313 14.7213 46.6698 15.0253C45.2492 15.7953 42.8899 15.7035 41.4633 14.974C39.01 13.7176 38.2991 10.6862 39.0473 8.19956C40.2065 4.34327 45.4167 3.48857 48.0772 6.34473V1.81492H50.0051V1.81372ZM43.4671 6.49134C39.9185 7.03372 39.7715 13.5042 44.0418 13.8523C46.9747 14.0907 48.5543 11.6148 47.9025 8.96128C47.3855 6.85492 45.4793 6.18498 43.4671 6.49253V6.49134Z" fill="#1E1E1E"/>
<path d="M62.0544 15.4031H60.1264V13.615C58.5552 15.2779 56.4261 15.7667 54.1752 15.5092C52.6317 15.3328 51.4352 14.3338 51.4424 12.721C51.4593 9.14833 56.99 9.82662 59.2251 8.84914C60.6675 8.21854 60.0795 6.92873 58.7793 6.5437C56.8683 5.97866 53.7294 6.42211 53.8607 8.96595H51.9328C51.5027 4.83548 56.6911 4.03204 59.7385 4.9988C60.8494 5.35164 62.0544 6.49244 62.0544 7.71429V15.4031ZM60.1252 9.68118C58.748 10.8697 56.7634 10.7207 55.085 11.1903C54.1957 11.4395 53.386 11.7363 53.5077 12.8271C53.5993 13.6424 54.3837 13.9118 55.1211 13.9774C57.9178 14.2289 60.4409 12.7043 60.1252 9.68118Z" fill="#1E1E1E"/>
<path d="M92.901 15.4031H90.9731V13.615C89.4019 15.2779 87.2727 15.7667 85.0219 15.5092C83.4784 15.3328 82.2819 14.3338 82.2891 12.721C82.306 9.14833 87.8367 9.82662 90.0718 8.84914C91.5141 8.21854 90.9261 6.92873 89.626 6.5437C87.715 5.97866 84.5761 6.42211 84.7074 8.96595H82.7795C82.3493 4.83548 87.5378 4.03204 90.5851 4.9988C91.6961 5.35164 92.901 6.49244 92.901 7.71429V15.4031ZM90.9719 9.68118C89.5947 10.8697 87.6101 10.7207 85.9316 11.1903C85.0424 11.4395 84.2327 11.7363 84.3544 12.8271C84.4459 13.6424 85.2304 13.9118 85.9678 13.9774C88.7645 14.2289 91.2876 12.7043 90.9719 9.68118Z" fill="#1E1E1E"/>
<path d="M104.589 8.36994H102.54C102.575 6.07881 98.8952 6.03114 97.3973 6.67962C96.3141 7.14809 96.3323 8.14465 97.4468 8.58094C99.3675 9.33313 104.406 8.90398 104.822 11.536C105.454 15.5354 101.446 15.7178 98.4976 15.5282C96.0069 15.3673 93.9091 14.2289 94.1055 11.4693H96.1539C96.1106 11.9747 96.2889 12.6959 96.6347 13.0798C97.489 14.0298 100.77 14.0549 101.882 13.621C103.057 13.162 103.233 11.8627 102.058 11.2905C100.127 10.3476 94.9044 11.0783 94.5863 8.19233C94.2381 5.02862 97.6143 4.53392 100.074 4.66982C102.533 4.80571 104.54 5.69259 104.587 8.36994H104.589Z" fill="#1E1E1E"/>
<path d="M108.204 1.81372V9.14485C108.474 9.4512 109.003 9.3618 109.333 9.18895L114.289 4.91306H117L110.855 10.2141L117 15.4031H114.409C114.072 15.4031 110.037 11.4288 109.283 11.0569L108.204 10.9925V15.4031H106.276V1.81372H108.204Z" fill="#1E1E1E"/>
<path d="M20.9659 14.9263L22.4119 17.9064H17.2908C16.0449 16.9385 14.593 16.2447 13.4085 15.1992C13.3278 15.1289 13.1784 15.2088 13.2543 14.9263H20.9659Z" fill="#1E1E1E"/>
</g>
<defs>
<clipPath id="clip0_2007_164">
<rect width="117" height="18" fill="white"/>
</clipPath>
</defs>
</svg>
