<svg width="678" height="417" viewBox="0 0 678 417" fill="none" xmlns="http://www.w3.org/2000/svg">
<g clip-path="url(#clip0_201_694)">
<path d="M-149 -229.171C-120.836 -258.296 -69.683 -259.848 -39.5234 -232.497C-8.03316 -203.89 -2.78479 -154.511 26.5617 -123.686C54.7255 -94.1176 99.2258 -87.9082 139.513 -91.1608C179.799 -94.4133 219.495 -105.427 259.856 -103.432C300.216 -101.436 343.682 -82.2164 358.835 -44.0733C371.919 -11.0307 360.757 25.9297 354.252 60.8202C347.821 95.7108 349.152 138.215 377.759 158.839C411.393 183.159 453.971 162.24 490.636 160.17C552.877 156.769 615.34 185.525 649.714 238.156C684.826 291.823 687.487 365.521 656.366 421.332" stroke="#AFA4F1" stroke-miterlimit="10"/>
<path d="M-140.795 -234.567C-112.188 -262.435 -61.6263 -263.396 -31.4667 -236.341C-6.85105 -214.313 2.38904 -180.014 18.8734 -151.258C23.6043 -143.053 28.8526 -135.291 35.2098 -128.417C62.9301 -98.6268 105.656 -91.0129 144.021 -92.4914C170.263 -93.5263 196.061 -97.9615 221.86 -99.6617C233.835 -100.475 245.736 -100.623 257.785 -99.4399C273.087 -97.9615 289.054 -93.8219 303.912 -87.0951C326.088 -77.0419 345.455 -61.4447 355.065 -39.4163C357.578 -33.7244 359.278 -27.9586 360.461 -22.0449C365.857 5.15792 358.687 34.7262 354.104 63.2596C353.365 67.7688 352.773 72.4258 352.256 77.1567C349.225 108.721 352.625 142.724 376.058 161.131C380.124 164.309 384.263 166.749 388.625 168.597C405.109 175.767 423.368 174.658 441.922 171.997C456.78 169.853 471.86 166.601 486.126 165.935C489.6 165.788 493.075 165.714 496.549 165.714C515.399 165.788 534.175 168.523 552.064 173.919C589.615 185.377 623.175 208.957 645.351 242.296C652.152 252.497 657.77 263.511 662.132 274.969C680.612 323.165 677.507 379.862 652.3 424.732" stroke="#AFA4F1" stroke-miterlimit="10"/>
<path d="M-132.515 -239.963C-103.538 -266.501 -53.5678 -266.944 -23.3342 -240.185C1.35532 -218.452 11.1868 -184.67 27.745 -155.989C32.4759 -147.858 37.6504 -140.096 43.9337 -133.148C71.1365 -103.062 112.236 -94.1174 148.679 -93.8218C173.591 -93.6739 197.911 -96.7047 222.083 -97.296C233.319 -97.5917 244.481 -97.2221 255.864 -95.5958C270.279 -93.5261 285.433 -88.7951 299.995 -81.7727C321.654 -71.202 341.317 -56.1222 351.518 -34.9069C354.179 -29.4368 356.101 -23.8188 357.431 -18.1269C363.789 8.18886 358.023 37.1658 354.105 65.6253C353.514 70.1344 352.922 74.7914 352.553 79.5224C349.965 111.087 352.479 144.72 374.655 163.496C378.425 166.749 382.417 169.262 386.556 171.258C402.227 178.946 419.821 178.65 437.931 176.802C452.493 175.25 467.573 172.367 481.84 171.775C485.314 171.628 488.789 171.554 492.263 171.554C511.039 171.628 529.741 174.067 547.629 179.315C585.107 190.256 618.815 213.541 641.139 246.583C648.014 256.71 653.632 267.577 658.067 279.034C676.769 327.009 673.738 383.632 648.383 428.28" stroke="#AFA4F1" stroke-miterlimit="10"/>
<path d="M-124.237 -245.359C-94.8164 -270.566 -45.5112 -270.419 -15.2037 -244.029C9.5597 -222.518 20.0564 -189.328 36.5408 -160.794C41.2717 -152.663 46.4461 -144.901 52.5815 -137.953C79.2669 -107.645 118.667 -97.2962 153.188 -95.2264C176.768 -93.8959 199.61 -95.5221 222.156 -94.9308C232.652 -94.709 243.075 -93.8219 253.72 -91.6782C267.247 -88.9432 281.662 -83.6948 295.855 -76.3766C317.07 -65.3625 336.881 -50.8001 347.673 -30.3241C350.482 -25.0757 352.552 -19.6795 354.104 -14.2093C361.422 11.2194 356.987 39.605 353.809 67.9905C353.291 72.4997 352.848 77.0828 352.552 81.8137C350.482 113.304 352.108 146.568 372.88 165.788C376.428 169.114 380.198 171.701 384.042 173.845C398.826 181.976 415.754 182.642 433.569 181.459C447.836 180.572 462.916 177.985 477.108 177.467C480.583 177.319 484.057 177.319 487.457 177.319C506.233 177.393 524.861 179.611 542.676 184.564C580.154 194.986 614.009 217.976 636.407 250.649C643.282 260.702 649.048 271.494 653.483 282.878C672.333 330.557 669.376 387.18 644.021 431.68" stroke="#AFA4F1" stroke-miterlimit="10"/>
<path d="M-115.957 -250.755C-86.1665 -274.631 -37.4527 -273.966 -6.99738 -247.872C17.84 -226.583 28.9281 -193.984 45.4863 -165.524C50.2173 -157.393 55.3178 -149.705 61.3793 -142.683C87.6211 -112.154 125.247 -100.4 157.846 -96.5564C180.17 -94.0431 201.533 -94.191 222.379 -92.5647C232.136 -91.8255 241.746 -90.4949 251.799 -87.8338C264.513 -84.5073 278.115 -78.6676 292.012 -71.0538C312.784 -59.5961 332.816 -45.4772 344.126 -25.8143C347.083 -20.7138 349.301 -15.5393 351.075 -10.291C359.354 14.2507 356.323 42.1189 353.81 70.3566C353.366 74.7918 353.07 79.3749 352.849 84.1058C351.296 115.596 351.962 148.417 371.477 168.08C374.803 171.406 378.351 174.215 381.973 176.433C395.945 185.008 412.207 186.56 429.578 186.19C443.476 185.895 458.629 183.677 472.822 183.307C476.296 183.234 479.771 183.16 483.171 183.16C501.873 183.307 520.427 185.156 538.316 189.886C575.794 199.792 609.723 222.412 632.269 254.863C639.218 264.842 644.983 275.561 649.493 286.87C668.564 334.328 665.607 390.803 640.179 435.155" stroke="#AFA4F1" stroke-miterlimit="10"/>
<path d="M-107.678 -256.151C-77.4446 -278.771 -29.3962 -277.44 1.1331 -251.716C26.0444 -230.722 37.7978 -198.641 54.356 -170.329C59.087 -162.272 64.1875 -154.584 70.1011 -147.488C95.8256 -116.663 131.825 -103.505 162.502 -97.9607C183.496 -94.1907 203.38 -93.008 222.674 -90.199C231.692 -88.9423 240.562 -87.0943 249.876 -83.9157C261.704 -79.924 274.492 -73.5668 288.093 -65.6573C308.348 -53.756 328.602 -40.0807 340.577 -21.2309C343.682 -16.3522 346.121 -11.3995 348.117 -6.37285C357.357 17.2818 355.731 44.5585 353.883 72.7223C353.587 77.1576 353.365 81.7407 353.144 86.3977C352.109 117.814 351.887 150.265 370.071 170.298C373.176 173.698 376.429 176.581 379.903 178.946C393.061 187.965 408.584 190.404 425.66 190.774C439.261 191.069 454.415 189.221 468.608 188.926C472.082 188.852 475.482 188.852 478.957 188.852C497.585 189 516.139 190.626 533.954 195.061C571.358 204.449 605.435 226.773 628.203 258.929C635.225 268.834 640.991 279.479 645.574 290.715C664.867 337.95 661.911 394.351 636.408 438.482" stroke="#AFA4F1" stroke-miterlimit="10"/>
<path d="M-99.4731 -261.548C-68.87 -282.837 -21.4129 -280.989 9.19032 -255.561C34.2495 -234.789 46.5942 -203.299 63.1525 -175.061C67.8834 -167.003 72.91 -159.316 78.7497 -152.219C103.957 -121.173 138.256 -106.61 167.011 -99.366C186.674 -94.3394 205.006 -91.7522 222.747 -87.9083C231.026 -86.0603 239.158 -83.7687 247.732 -80.1466C258.673 -75.4896 270.722 -68.615 283.954 -60.3359C303.764 -47.9172 324.167 -34.7593 336.733 -16.7226C339.986 -12.0656 342.573 -7.26078 344.79 -2.45593C354.991 20.3117 354.77 47.071 353.661 75.013C353.513 79.4482 353.291 83.9574 353.217 88.6144C352.626 119.957 351.517 152.038 368.371 172.514C371.254 175.989 374.285 178.946 377.537 181.459C389.882 190.995 404.74 194.321 421.372 195.43C434.678 196.317 449.758 194.838 463.951 194.691C467.425 194.617 470.825 194.617 474.226 194.691C492.78 194.838 511.26 196.169 529.075 200.383C566.479 209.253 600.704 231.281 623.545 263.141C630.568 272.973 636.482 283.543 641.065 294.705C660.506 341.645 657.623 398.047 632.046 441.956" stroke="#AFA4F1" stroke-miterlimit="10"/>
<path d="M-91.1948 -267.018C-60.1481 -286.977 -13.2824 -284.538 17.3208 -259.478C42.4539 -239.002 55.39 -208.03 72.0221 -179.94C76.7531 -171.956 81.7797 -164.195 87.4716 -157.098C112.235 -125.756 144.76 -109.863 171.667 -100.844C190 -94.6351 206.854 -90.6434 222.968 -85.6168C230.508 -83.2513 237.9 -80.4424 245.81 -76.3028C255.863 -71.0544 267.099 -63.5884 280.035 -55.0136C299.402 -42.1514 320.026 -29.437 333.11 -12.2135C336.511 -7.77827 339.32 -3.19519 341.685 1.46182C352.921 23.3424 354.03 49.5103 353.586 77.3784C353.512 81.7397 353.438 86.3228 353.438 90.9059C353.364 122.248 351.369 153.812 366.892 174.806C369.553 178.354 372.362 181.385 375.393 184.046C386.851 194.025 401.043 198.239 417.38 200.087C430.39 201.565 445.47 200.456 459.662 200.382C463.137 200.382 466.537 200.382 469.937 200.382C488.492 200.53 506.898 201.639 524.639 205.631C562.043 213.984 596.342 235.717 619.331 267.281C626.428 276.964 632.341 287.535 637.072 298.623C656.735 345.341 653.852 401.669 628.202 445.356" stroke="#AFA4F1" stroke-miterlimit="10"/>
<path d="M-82.9146 -272.414C-51.4982 -291.116 -5.22385 -288.086 25.5272 -263.322C50.7341 -243.068 64.3356 -212.687 80.9677 -184.744C85.6986 -176.761 90.6513 -168.999 96.1954 -161.829C120.441 -130.265 151.266 -112.967 176.252 -102.175C193.253 -94.783 208.555 -89.3867 223.191 -83.2513C229.918 -80.4423 236.645 -77.042 243.815 -72.4589C252.981 -66.5452 263.478 -58.5618 276.118 -49.6913C295.042 -36.3856 315.814 -24.1148 329.563 -7.70435C333.111 -3.41695 336.068 0.870483 338.655 5.30573C350.852 26.3731 353.366 51.8758 353.587 79.67C353.661 84.0313 353.661 88.5405 353.661 93.1235C354.031 124.392 351.222 155.587 365.341 177.024C367.706 180.646 370.367 183.824 373.176 186.559C383.821 196.982 397.348 202.083 413.241 204.744C425.956 206.814 441.036 206.074 455.228 206.074C458.703 206.074 462.103 206.074 465.429 206.148C483.91 206.296 502.242 207.109 520.057 210.879C557.387 218.789 591.834 240.152 615.045 271.346C622.215 280.956 628.203 291.453 632.934 302.467C652.819 348.963 649.936 405.143 624.285 448.682" stroke="#AFA4F1" stroke-miterlimit="10"/>
<path d="M-74.6362 -277.81C-42.7764 -295.181 2.83271 -291.559 33.6577 -267.165C58.9385 -247.207 73.2052 -217.343 89.8374 -189.475C94.5683 -181.491 99.521 -173.804 104.917 -166.559C128.646 -134.773 157.771 -116.071 180.908 -103.505C196.653 -94.9301 210.328 -88.1294 223.412 -80.8852C229.4 -77.5587 235.387 -73.7149 241.818 -68.5404C250.098 -61.9615 259.781 -53.4606 272.126 -44.2944C290.532 -30.5452 311.6 -18.7178 325.866 -3.19448C329.562 0.871165 332.741 5.01072 335.476 9.2242C348.708 29.4046 352.478 54.3898 353.439 82.0361C353.587 86.3975 353.66 90.8327 353.808 95.4897C354.695 126.758 350.925 157.509 363.788 179.39C365.931 183.086 368.297 186.338 370.958 189.221C380.789 200.088 393.652 206.075 409.101 209.549C421.52 212.284 436.6 211.841 450.792 211.989C454.193 211.989 457.667 212.063 460.993 212.063C479.4 212.284 497.732 212.802 515.473 216.276C552.803 223.668 587.398 244.662 610.683 275.635C617.853 285.17 623.915 295.593 628.719 306.533C648.826 352.734 645.943 408.914 620.219 452.231" stroke="#AFA4F1" stroke-miterlimit="10"/>
<path d="M-66.4302 -283.206C-34.2007 -299.247 10.817 -295.108 41.7159 -271.01C67.0707 -251.273 81.9287 -222 98.6348 -194.28C103.44 -186.37 108.245 -178.609 113.567 -171.364C136.852 -139.283 164.203 -119.25 185.418 -104.91C199.832 -95.1521 211.955 -87.0208 223.487 -78.52C228.661 -74.6761 233.984 -70.3147 239.75 -64.6968C247.142 -57.5265 256.086 -48.4342 268.061 -38.9724C286.024 -24.7057 307.239 -13.4697 322.097 1.31443C325.941 5.15831 329.341 9.07612 332.298 13.0678C346.565 32.3612 351.666 56.755 353.366 84.3274C353.587 88.6148 353.809 93.124 354.031 97.7071C355.362 128.902 350.778 159.209 362.236 181.533C364.158 185.303 366.302 188.63 368.741 191.66C377.686 202.97 389.882 209.919 405.036 214.058C417.159 217.385 432.239 217.311 446.358 217.533C449.758 217.606 453.159 217.606 456.485 217.68C474.817 217.902 493.076 218.124 510.817 221.376C548.147 228.251 582.816 248.949 606.249 279.626C613.493 289.088 619.628 299.363 624.433 310.303C644.687 356.282 641.878 412.388 616.08 455.483" stroke="#AFA4F1" stroke-miterlimit="10"/>
<path d="M-58.1514 -288.603C-25.4784 -303.387 18.874 -298.582 49.8468 -274.854C75.2756 -255.412 90.7989 -226.657 107.505 -199.011C112.31 -191.101 117.115 -183.414 122.289 -176.096C145.057 -143.792 170.781 -122.429 190.001 -106.24C203.085 -95.2262 213.729 -85.8383 223.708 -76.1547C228.144 -71.8672 232.653 -66.9146 237.753 -60.7791C244.332 -52.9436 252.464 -43.3338 264.069 -33.5763C281.588 -18.8661 303.025 -8.07366 318.475 5.89736C322.467 9.51948 326.015 13.2894 329.193 17.0594C344.495 35.4656 350.926 59.3421 353.291 86.7667C353.661 91.0541 353.957 95.4893 354.179 100.072C356.027 131.267 350.556 161.131 360.684 183.898C362.384 187.668 364.306 191.143 366.523 194.321C374.655 206.075 386.186 213.91 400.896 218.863C412.724 222.781 427.73 223.076 441.922 223.446C445.323 223.52 448.723 223.594 452.05 223.594C470.382 223.816 488.566 223.816 506.307 226.773C543.563 233.13 578.38 253.532 601.961 283.913C609.279 293.301 615.414 303.502 620.293 314.369C640.769 360.126 637.96 416.084 612.088 459.031" stroke="#AFA4F1" stroke-miterlimit="10"/>
<path d="M-49.8726 -293.999C-16.83 -307.452 26.9311 -302.13 58.0517 -278.697C83.6283 -259.478 99.743 -231.314 116.449 -203.816C121.254 -195.98 125.985 -188.218 131.085 -180.9C153.336 -148.375 177.36 -125.607 194.731 -107.645C206.485 -95.4478 215.577 -84.7293 224.004 -73.789C227.7 -69.0581 231.47 -63.514 235.905 -56.9351C241.597 -48.4342 248.915 -38.3071 260.299 -28.2539C277.375 -13.1001 299.033 -2.75121 315 10.4067C319.214 13.881 322.91 17.3553 326.236 20.9774C342.573 38.4966 350.334 61.7816 353.365 89.1323C353.809 93.4197 354.178 97.781 354.548 102.364C356.913 133.485 350.556 162.905 359.279 186.19C360.757 190.034 362.457 193.582 364.453 196.909C371.771 209.032 382.564 217.828 396.978 223.52C408.51 228.029 423.516 228.695 437.709 229.138C441.109 229.212 444.509 229.286 447.836 229.36C466.094 229.582 484.205 229.286 501.946 232.095C539.202 237.935 574.166 258.041 597.895 288.127C605.213 297.441 611.422 307.568 616.375 318.361C637.073 363.822 634.264 419.78 608.392 462.506" stroke="#AFA4F1" stroke-miterlimit="10"/>
<path d="M-41.5942 -299.396C-8.10815 -311.519 35.0616 -305.605 66.1822 -282.542C91.8327 -263.544 108.539 -235.972 125.319 -208.621C130.124 -200.785 134.855 -193.098 139.807 -185.706C161.614 -152.885 183.864 -128.787 199.313 -109.05C209.81 -95.6702 217.276 -83.6951 224.151 -71.4982C227.108 -66.2498 230.138 -60.1883 233.834 -53.0919C238.639 -43.9257 245.218 -33.2811 256.232 -22.9322C272.791 -7.33495 294.671 2.57043 311.229 14.9152C315.591 18.1677 319.435 21.4941 322.983 24.8205C340.354 41.3788 349.373 64.1464 353.142 91.3492C353.734 95.5627 354.177 99.998 354.621 104.507C357.504 135.554 350.26 164.605 357.652 188.333C358.908 192.251 360.313 195.873 362.087 199.347C368.592 211.914 378.719 221.671 392.69 228.103C403.852 233.203 418.932 234.238 433.051 234.829C436.451 234.977 439.851 235.051 443.104 235.051C461.288 235.273 479.399 234.755 497.066 237.269C534.322 242.591 569.361 262.402 593.237 292.192C600.629 301.432 606.912 311.485 611.865 322.278C632.785 367.517 630.05 423.401 604.029 465.906" stroke="#AFA4F1" stroke-miterlimit="10"/>
<path d="M-33.3882 -304.792C0.467509 -315.584 43.0459 -309.153 74.2404 -286.385C99.9648 -267.683 117.336 -240.628 134.116 -213.352C138.921 -205.516 143.578 -197.828 148.457 -190.436C169.746 -157.394 190.296 -131.891 203.897 -110.38C213.064 -95.8176 219.125 -82.5858 224.373 -69.0583C226.591 -63.4403 228.883 -56.7135 231.839 -49.1736C235.757 -39.3422 241.523 -28.1062 252.242 -17.5356C268.356 -1.42084 290.459 7.8932 307.534 19.4988C312.043 22.5295 316.109 25.6342 319.805 28.8127C338.211 44.4839 348.56 66.7341 352.995 93.7891C353.661 98.0026 354.252 102.364 354.77 106.873C358.096 137.92 350.039 166.453 356.026 190.625C356.987 194.617 358.244 198.313 359.796 201.935C365.488 214.945 374.95 225.59 388.551 232.76C399.418 238.526 414.497 239.856 428.616 240.522C432.017 240.67 435.417 240.743 438.67 240.817C456.78 241.113 474.817 240.226 492.558 242.518C529.74 247.322 564.926 266.764 588.95 296.258C596.416 305.35 602.7 315.403 607.726 326.122C628.794 371.14 626.133 426.95 600.039 469.233" stroke="#AFA4F1" stroke-miterlimit="10"/>
<path d="M-25.1084 -310.188C9.19082 -319.724 51.1039 -312.627 82.3723 -290.229C108.171 -271.749 126.207 -245.286 142.987 -218.157C147.792 -210.395 152.449 -202.633 157.106 -195.167C177.878 -161.903 196.802 -135.07 208.407 -111.711C216.243 -95.9658 220.826 -81.4773 224.448 -66.6931C225.926 -60.5577 227.405 -53.3135 229.77 -45.2561C232.801 -34.8333 237.828 -23.006 248.25 -12.1397C263.922 4.41859 286.172 13.2891 303.913 24.0815C308.57 26.8905 312.857 29.7734 316.775 32.7302C336.216 47.5144 347.822 69.1731 353.07 96.1542C353.883 100.368 354.548 104.729 355.066 109.164C358.91 140.137 349.965 168.301 354.622 192.916C355.362 196.982 356.396 200.826 357.727 204.522C362.606 217.976 371.328 229.507 384.56 237.491C395.131 243.848 410.137 245.548 424.33 246.287C427.73 246.435 431.056 246.583 434.309 246.583C452.346 246.879 470.308 245.77 488.049 247.766C525.231 252.053 560.565 271.199 584.664 300.397C592.13 309.416 598.561 319.395 603.587 330.039C624.877 374.761 622.215 430.498 596.047 472.633" stroke="#AFA4F1" stroke-miterlimit="10"/>
<path d="M-16.8296 -315.584C17.8392 -323.789 59.1609 -316.175 90.5772 -294.073C116.449 -275.888 135.078 -249.942 151.858 -222.887C156.662 -215.125 161.245 -207.438 165.829 -199.898C186.157 -166.338 203.306 -138.174 213.064 -113.041C219.643 -96.1131 222.821 -80.368 224.669 -64.2532C225.409 -57.6743 226.148 -49.8387 227.774 -41.3378C229.918 -30.2497 234.131 -17.905 244.258 -6.669C259.486 10.3328 281.958 18.7598 300.216 28.739C305.021 31.4002 309.457 34.0613 313.596 36.7964C334.072 50.6196 347.008 71.7609 352.922 98.6681C353.809 102.808 354.548 107.169 355.213 111.678C359.575 142.651 349.743 170.297 353.07 195.43C353.587 199.496 354.4 203.488 355.509 207.332C359.575 221.229 367.632 233.647 380.494 242.37C390.769 249.319 405.775 251.388 419.894 252.275C423.294 252.497 426.621 252.571 429.873 252.645C447.91 252.941 465.799 251.536 483.466 253.31C520.648 257.08 556.056 275.93 580.376 304.833C587.916 313.777 594.347 323.683 599.447 334.253C620.958 378.754 618.297 434.416 592.055 476.329" stroke="#AFA4F1" stroke-miterlimit="10"/>
<path d="M-8.55078 -320.98C26.5616 -327.855 67.218 -319.65 98.7082 -297.917C124.728 -279.954 143.948 -254.6 160.728 -227.692C165.533 -220.005 170.116 -212.243 174.551 -204.703C194.362 -170.921 209.811 -141.353 217.647 -114.446C222.895 -96.3353 224.669 -79.2596 224.817 -61.9621C224.891 -54.9397 224.817 -46.5127 225.778 -37.4944C227.035 -25.741 230.509 -12.8788 240.266 -1.34713C254.977 16.0982 277.744 24.0816 296.52 33.2478C301.473 35.6872 306.13 38.1265 310.417 40.7137C332.002 53.6499 346.195 74.2738 352.774 101.033C353.809 105.173 354.622 109.46 355.361 113.969C360.314 144.868 349.521 172.145 351.443 197.721C351.739 201.861 352.33 205.927 353.217 209.918C356.47 224.259 363.788 237.639 376.281 247.1C386.26 254.64 401.266 257.08 415.385 258.041C418.785 258.262 422.111 258.41 425.364 258.41C443.327 258.706 461.142 257.08 478.883 258.632C515.991 261.885 551.547 280.439 576.014 309.046C583.628 317.916 590.133 327.748 595.234 338.245C616.966 382.449 614.305 438.112 588.063 479.803" stroke="#AFA4F1" stroke-miterlimit="10"/>
<path d="M-0.270996 -326.376C35.211 -331.994 75.3499 -323.197 106.84 -301.76C132.934 -284.093 152.819 -259.256 169.599 -232.422C174.404 -224.735 178.913 -217.047 183.274 -209.433C202.567 -175.356 216.391 -144.531 222.23 -115.776C226.148 -96.4822 226.592 -78.076 225.039 -59.5219C224.448 -52.0559 223.487 -43.0376 223.783 -33.5757C224.152 -21.157 226.887 -7.77737 236.275 4.04995C250.542 22.0127 273.458 29.4048 292.899 37.8317C297.999 40.0493 302.878 42.267 307.313 44.6324C329.933 56.6076 345.382 76.714 352.701 103.399C353.809 107.539 354.77 111.826 355.509 116.262C360.906 147.087 349.3 173.92 349.892 199.94C349.965 204.153 350.335 208.293 351 212.359C353.44 227.143 360.093 241.409 372.216 251.61C381.899 259.742 396.905 262.551 411.024 263.66C414.424 263.881 417.751 264.029 420.929 264.103C438.818 264.473 456.633 262.477 474.3 263.807C511.408 266.542 547.112 284.801 571.654 313.112C579.268 321.909 585.846 331.593 591.021 342.089C612.901 386.072 610.314 441.661 583.998 483.13" stroke="#AFA4F1" stroke-miterlimit="10"/>
<path d="M7.93359 -331.847C43.8591 -336.134 83.3328 -326.82 114.897 -305.679C141.065 -288.233 161.541 -263.987 178.395 -237.302C183.274 -229.614 187.709 -221.926 191.922 -214.313C210.772 -180.013 222.821 -147.784 226.813 -117.255C229.474 -96.7786 228.439 -77.0418 225.187 -57.3049C223.856 -49.3215 222.156 -39.7857 221.712 -29.8064C221.121 -16.7224 223.117 -2.82538 232.283 9.29762C246.106 27.7039 269.243 34.6525 289.202 42.2663C294.45 44.2622 299.477 46.3319 304.134 48.4756C327.789 59.4898 344.495 79.1528 352.552 105.616C353.809 109.682 354.844 113.969 355.657 118.405C361.57 149.23 349.152 175.619 348.265 202.083C348.117 206.37 348.265 210.584 348.708 214.797C350.408 229.951 356.322 245.179 368.002 256.193C377.389 264.989 392.395 268.168 406.44 269.277C409.841 269.573 413.167 269.72 416.346 269.794C434.161 270.164 451.902 267.946 469.569 268.981C506.677 271.199 542.454 289.088 567.218 317.104C574.906 325.826 581.485 335.436 586.807 345.859C608.909 389.62 606.322 445.06 579.932 486.382" stroke="#AFA4F1" stroke-miterlimit="10"/>
<path d="M16.2124 -337.243C52.5075 -340.199 91.3898 -330.294 123.102 -309.522C149.344 -292.373 170.485 -268.644 187.339 -242.107C192.218 -234.493 196.579 -226.805 200.719 -219.117C219.051 -184.596 229.548 -150.962 231.47 -118.659C232.874 -97.0001 230.435 -75.8588 225.408 -55.0131C223.412 -46.5862 220.899 -36.4591 219.79 -26.0362C218.312 -12.3609 219.568 2.12758 228.365 14.5463C241.745 33.3961 265.103 39.8272 285.58 46.7018C291.05 48.4759 296.224 50.3239 301.029 52.2458C325.719 62.2991 343.755 81.4445 352.552 107.834C353.882 111.9 354.991 116.113 355.952 120.549C362.383 151.3 349.077 177.246 346.86 204.227C346.49 208.588 346.342 212.876 346.638 217.237C347.525 232.834 352.7 249.023 364.083 260.702C373.176 270.09 388.108 273.638 402.226 274.895C405.553 275.191 408.879 275.339 412.058 275.413C429.873 275.782 447.54 273.269 465.207 274.082C502.241 275.856 538.167 293.375 563.078 321.096C570.84 329.744 577.492 339.28 582.815 349.629C605.139 393.094 602.552 448.535 576.088 489.635" stroke="#AFA4F1" stroke-miterlimit="10"/>
<path d="M24.4922 -342.639C61.2308 -344.265 99.4478 -333.768 131.234 -313.366C157.55 -296.438 179.356 -273.301 196.21 -246.838C201.089 -239.224 205.45 -231.536 209.442 -223.848C227.257 -189.032 236.053 -154.067 236.127 -119.99C236.201 -97.1482 232.357 -74.6763 225.704 -52.574C222.969 -43.6296 219.643 -32.985 217.869 -22.0447C215.503 -7.70411 215.947 7.30178 224.448 20.0161C237.31 39.3095 260.891 45.297 282.032 51.3585C287.65 52.9848 293.046 54.5371 298.073 56.3112C323.871 65.4035 343.164 84.1054 352.626 110.347C354.105 114.413 355.287 118.626 356.248 122.988C363.197 153.739 349.078 179.241 345.382 206.666C344.791 211.101 344.421 215.463 344.495 219.972C344.569 236.012 349.078 253.088 360.018 265.581C368.741 275.56 383.747 279.478 397.866 280.808C401.192 281.104 404.519 281.326 407.697 281.4C425.438 281.769 443.031 279.034 460.698 279.552C497.733 280.808 533.806 298.032 558.791 325.457C566.553 333.957 573.28 343.493 578.676 353.768C601.148 397.012 598.634 452.379 572.171 493.331" stroke="#AFA4F1" stroke-miterlimit="10"/>
<path d="M32.771 -348.035C69.9531 -348.405 107.505 -337.316 139.365 -317.21C165.754 -300.504 188.152 -277.958 205.08 -251.642C209.959 -244.102 214.246 -236.415 218.164 -228.579C235.536 -193.541 242.558 -157.172 240.71 -121.32C239.453 -97.2959 234.205 -73.4195 225.852 -50.2084C222.452 -40.7465 218.312 -29.6584 215.799 -18.2007C212.546 -3.19479 212.251 12.3285 220.382 25.3386C232.8 45.1493 256.603 50.6195 278.262 55.8679C284.028 57.2724 289.572 58.6029 294.82 60.2292C321.653 68.3605 342.203 86.545 352.404 112.713C353.957 116.705 355.287 120.918 356.322 125.279C363.714 155.957 348.856 181.09 343.756 208.958C342.942 213.393 342.351 217.976 342.203 222.559C341.538 239.043 345.234 257.006 355.878 270.312C364.305 280.883 379.311 285.17 393.356 286.574C396.683 286.944 400.009 287.092 403.188 287.166C420.855 287.535 438.448 284.505 456.041 284.874C493.075 285.614 529.223 302.541 554.356 329.67C562.191 338.097 568.992 347.559 574.388 357.76C597.082 400.782 594.569 456.075 568.031 496.805" stroke="#AFA4F1" stroke-miterlimit="10"/>
<path d="M40.9761 -353.432C109.722 -351.658 176.547 -314.18 213.877 -256.448C255.568 -191.915 254.385 -116.737 225.926 -47.9173C216.464 -24.9279 202.493 7.22757 216.316 30.6604C231.47 56.3109 265.843 57.4937 291.567 64.0726C323.649 72.3517 347.895 94.6019 356.396 127.497C365.562 163.052 342.868 190.551 339.838 224.998C338.359 241.926 341.39 260.776 351.591 274.821C361.644 288.644 382.194 292.414 398.531 292.857C416.124 293.301 433.643 289.974 451.31 290.048C499.802 290.344 547.185 318.877 570.027 361.603C592.942 404.33 590.429 459.548 563.817 500.131" stroke="#AFA4F1" stroke-miterlimit="10"/>
<path d="M34.4722 -350.4C69.5845 -349.809 104.253 -340.495 135.078 -323.863C165.238 -307.6 191.775 -284.315 210.773 -255.634C225.262 -233.827 234.723 -210.542 239.454 -186.518C243.964 -163.824 244.259 -140.687 241.007 -117.846C238.567 -100.696 234.058 -83.7683 227.997 -67.0623C225.483 -60.1137 222.674 -53.2391 219.644 -46.3645C215.874 -37.9375 211.512 -28.2538 208.26 -18.2006C202.642 -1.05102 199.907 17.6509 208.629 32.6568C218.091 48.8455 235.537 55.4983 253.425 59.6379C263.996 62.0773 274.715 63.6296 284.398 65.8472C293.121 67.917 301.326 70.8738 308.792 74.7916C325.646 83.6621 339.026 97.1896 347.009 115.152C348.561 118.553 349.892 122.175 351.001 125.871C357.062 146.051 352.553 164.088 347.083 182.494C343.165 195.578 338.804 208.736 337.621 223.151C337.547 223.668 337.547 224.185 337.473 224.703C336.364 241.335 339.321 259.667 349.301 273.343C356.101 282.657 367.559 287.535 379.312 289.827C385.374 291.01 391.583 291.453 397.275 291.453C403.706 291.527 410.137 291.01 416.568 290.344C428.026 289.162 439.336 287.462 450.72 287.092C464.173 286.648 477.553 288.275 490.415 291.675C514.144 297.958 536.32 310.599 553.47 328.561C560.936 336.323 567.367 345.12 572.615 354.582C574.611 358.278 576.459 362.048 578.085 365.891C595.9 407.509 591.465 458.218 566.184 495.77" stroke="#AFA4F1" stroke-miterlimit="10"/>
<path d="M27.8921 -347.444C63.448 -347.148 98.5603 -338.499 129.977 -322.459C160.654 -306.714 188.078 -283.724 207.593 -255.043C222.451 -233.236 232.209 -209.803 236.792 -185.262C241.153 -162.272 241.006 -138.84 237.014 -115.998C233.983 -98.8484 228.883 -82.0684 222.23 -65.5841C219.495 -58.7095 216.464 -51.9088 213.211 -45.1081C209.146 -36.6811 204.563 -27.0714 201.088 -17.0182C195.175 0.0575172 191.996 19.1291 200.793 34.3567C210.181 50.6932 227.922 57.4939 245.81 61.4857C256.455 63.8511 267.247 65.2556 277.005 67.2515C285.802 69.0995 294.007 71.8345 301.621 75.3827C318.696 83.514 332.372 96.2284 341.02 113.452C342.72 116.704 344.199 120.179 345.456 123.801C352.256 143.39 348.782 161.353 343.903 179.833C340.429 192.991 336.363 206.296 335.255 220.711C335.181 221.228 335.181 221.746 335.181 222.263C334.146 238.969 336.955 257.523 347.008 271.273C353.956 280.808 365.636 285.835 377.685 287.979C383.894 289.088 390.178 289.531 396.017 289.457C402.596 289.383 409.175 288.792 415.68 287.979C427.286 286.574 438.744 284.504 450.275 283.691C463.877 282.73 477.33 283.691 490.34 286.5C514.364 291.675 537.354 303.133 555.317 320.947C563.078 328.635 569.805 337.506 575.275 347.115C577.345 350.811 579.267 354.655 580.967 358.573C599.521 400.856 594.864 452.97 568.622 490.965" stroke="#AFA4F1" stroke-miterlimit="10"/>
<path d="M21.313 -344.413C57.2385 -344.413 92.8683 -336.429 124.876 -320.906C156.144 -305.752 184.308 -282.984 204.415 -254.303C219.642 -232.571 229.622 -208.842 234.131 -183.783C238.344 -160.498 237.679 -136.769 233.022 -113.928C229.474 -96.7782 223.708 -80.2199 216.464 -63.8834C213.433 -57.0827 210.254 -50.282 206.78 -43.5552C202.419 -35.1283 197.614 -25.5925 193.918 -15.4654C187.709 1.53641 184.16 21.0515 192.883 36.427C202.271 52.8374 220.234 59.8599 238.196 63.7038C248.915 65.9953 259.781 67.252 269.613 69.0261C278.483 70.6524 286.762 73.0917 294.376 76.4182C311.674 83.8842 325.719 95.6375 335.033 112.196C336.807 115.374 338.433 118.701 339.837 122.249C347.377 141.247 344.938 159.135 340.651 177.69C337.62 190.921 333.85 204.375 332.889 218.863C332.889 219.381 332.815 219.898 332.815 220.416C331.928 237.196 334.441 255.898 344.642 269.795C351.813 279.552 363.714 284.653 375.985 286.797C382.342 287.905 388.699 288.201 394.687 288.053C401.413 287.905 408.066 287.166 414.645 286.131C426.399 284.431 438.004 281.992 449.61 280.735C463.285 279.257 476.886 279.626 490.118 281.77C514.512 285.762 538.241 296.111 557.017 313.778C565.074 321.391 572.096 330.336 577.788 340.093C580.006 343.863 581.928 347.781 583.702 351.699C602.995 394.721 598.116 448.165 570.914 486.53" stroke="#AFA4F1" stroke-miterlimit="10"/>
<path d="M14.7344 -341.382C51.1034 -341.604 87.1028 -334.359 119.776 -319.427C151.562 -304.791 180.612 -282.319 201.31 -253.638C216.908 -231.905 227.183 -207.955 231.47 -182.452C235.536 -158.871 234.427 -134.847 229.031 -112.08C224.965 -94.9301 218.46 -78.5936 210.772 -62.4049C207.52 -55.6782 204.045 -48.9514 200.423 -42.2246C195.84 -33.7976 190.666 -24.3358 186.822 -14.2086C180.317 2.71921 176.325 22.6039 185.122 38.2012C194.436 54.6855 212.694 61.9297 230.657 65.6258C241.449 67.8434 252.316 68.9522 262.295 70.5046C271.165 71.9091 279.518 74.1267 287.28 77.0835C304.725 83.8103 319.14 94.7505 329.119 110.57C331.041 113.6 332.815 116.853 334.368 120.253C342.573 138.586 341.168 156.474 337.546 175.102C334.959 188.408 331.411 202.01 330.598 216.572C330.598 217.089 330.524 217.607 330.524 218.124C329.711 235.052 332.076 253.902 342.277 267.799C349.595 277.778 361.718 283.027 374.211 285.096C380.642 286.205 387.221 286.427 393.282 286.131C400.083 285.836 406.884 284.949 413.537 283.84C425.438 281.844 437.191 279.035 448.871 277.409C462.694 275.413 476.369 275.117 489.823 276.669C514.586 279.552 539.054 288.719 558.569 306.164C566.996 313.704 574.24 322.722 580.154 332.627C582.446 336.471 584.515 340.389 586.29 344.455C606.248 388.216 601.222 442.917 573.058 481.8" stroke="#AFA4F1" stroke-miterlimit="10"/>
<path d="M8.15527 -338.425C44.8939 -338.943 81.4107 -332.364 114.675 -317.949C146.978 -303.83 176.916 -281.654 198.132 -252.973C214.098 -231.24 224.669 -207.142 228.809 -181.122C232.726 -157.246 231.174 -132.926 225.039 -110.158C220.382 -93.0085 213.285 -76.8199 205.006 -60.853C201.532 -54.2001 197.836 -47.5473 193.918 -40.8944C189.039 -32.4674 183.643 -23.0795 179.577 -12.9524C172.851 3.90156 168.341 24.1558 177.138 39.9749C186.378 56.5331 204.932 63.9252 222.895 67.6213C233.687 69.765 244.702 70.7259 254.755 72.0565C263.699 73.2392 272.126 75.2351 279.962 77.8963C297.629 83.9578 312.413 93.937 322.984 109.091C325.053 111.974 326.975 115.078 328.602 118.405C337.546 136.146 337.103 153.961 334.146 172.663C332.002 186.042 328.749 199.792 328.01 214.428C328.01 214.945 327.936 215.463 327.936 215.98C327.271 232.982 329.415 251.98 339.69 266.025C347.156 276.152 359.5 281.622 372.289 283.618C378.868 284.653 385.521 284.874 391.73 284.505C398.678 284.135 405.553 283.1 412.354 281.77C424.477 279.478 436.304 276.373 448.131 274.23C462.102 271.79 475.852 270.829 489.527 271.79C514.66 273.491 539.941 281.622 560.195 298.845C568.918 306.311 576.458 315.404 582.593 325.383C584.959 329.227 587.102 333.292 589.024 337.358C609.722 381.784 604.474 437.89 575.349 477.142" stroke="#AFA4F1" stroke-miterlimit="10"/>
<path d="M1.57666 -335.394C38.7588 -336.207 75.6452 -330.294 109.575 -316.471C142.47 -302.943 173.147 -281.063 194.953 -252.233C211.29 -230.501 222.082 -206.181 226.148 -179.717C229.844 -155.545 227.848 -130.93 221.047 -108.162C215.873 -91.0124 208.111 -75.0455 199.241 -59.2265C195.545 -52.6475 191.627 -46.0686 187.487 -39.4157C182.313 -31.0627 176.695 -21.6008 172.407 -11.4737C165.385 5.2324 160.506 25.9302 169.303 41.8971C178.469 58.5292 197.319 66.1431 215.355 69.6913C226.222 71.761 237.31 72.5742 247.437 73.7569C256.381 74.7918 264.882 76.418 272.866 78.7835C290.681 84.1058 305.908 93.272 317.144 107.687C319.288 110.496 321.358 113.452 323.206 116.705C332.815 133.854 333.481 151.595 331.115 170.371C329.415 183.825 326.458 197.722 325.793 212.432C325.793 212.95 325.719 213.467 325.719 213.985C325.128 231.06 327.05 250.28 337.399 264.325C345.086 274.673 357.653 280.217 370.663 282.213C377.39 283.248 384.116 283.322 390.474 282.879C397.57 282.361 404.519 281.252 411.393 279.774C423.664 277.187 435.639 273.712 447.54 271.199C461.585 268.242 475.556 266.69 489.306 266.986C514.734 267.503 540.828 274.526 561.822 291.601C570.914 298.993 578.676 308.16 585.033 318.287C587.472 322.204 589.69 326.27 591.686 330.484C613.123 375.649 607.653 433.085 577.567 472.781" stroke="#AFA4F1" stroke-miterlimit="10"/>
<path d="M-4.92871 -332.438C32.623 -333.546 70.0269 -328.298 104.474 -314.992C137.886 -301.982 169.45 -280.397 191.774 -251.568C208.48 -229.836 219.495 -205.294 223.486 -178.313C227.035 -153.845 224.595 -128.934 217.129 -106.166C211.437 -89.0166 203.01 -73.1976 193.548 -57.6003C189.557 -51.0953 185.417 -44.5164 181.13 -38.0113C175.66 -29.6583 169.82 -20.2704 165.385 -10.1432C158.067 6.48894 152.744 27.5564 161.541 43.745C170.707 60.4511 189.778 68.2867 207.815 71.687C218.755 73.7568 229.844 74.3482 240.119 75.3092C249.137 76.1223 257.712 77.5268 265.695 79.5966C283.732 84.2536 299.255 92.4588 311.156 106.208C313.448 108.869 315.665 111.752 317.587 114.857C327.936 131.341 329.637 149.082 327.862 167.932C326.606 181.459 323.945 195.504 323.353 210.288C323.353 210.806 323.279 211.323 323.279 211.841C322.762 228.99 324.536 248.432 334.959 262.55C342.794 273.121 355.583 278.813 368.888 280.735C375.689 281.696 382.638 281.77 389.069 281.252C396.239 280.661 403.335 279.33 410.358 277.704C422.777 274.821 434.9 270.977 446.949 268.02C461.142 264.546 475.186 262.329 489.157 262.033C514.956 261.442 541.789 267.281 563.596 284.209C572.984 291.527 581.041 300.767 587.62 311.042C590.133 315.034 592.425 319.174 594.495 323.387C616.671 369.292 610.979 427.985 579.932 468.198" stroke="#AFA4F1" stroke-miterlimit="10"/>
<path d="M-11.5073 -329.407C26.4879 -330.811 64.3353 -326.302 99.3738 -313.514C133.377 -301.021 165.755 -279.732 188.596 -250.903C205.746 -229.244 216.982 -204.407 220.752 -176.982C224.152 -152.219 221.269 -127.012 213.064 -104.244C206.781 -87.0948 197.762 -71.4975 187.709 -56.0481C183.496 -49.617 179.134 -43.112 174.625 -36.607C168.859 -28.2539 162.798 -18.9399 158.141 -8.73885C150.527 7.81939 144.835 29.2564 153.558 45.6668C162.65 62.4468 181.943 70.5042 200.128 73.7567C211.142 75.7525 222.304 76.1961 232.653 76.9353C241.671 77.5266 250.32 78.6355 258.451 80.4095C276.636 84.3273 292.603 91.6455 305.095 104.729C307.535 107.243 309.9 109.978 311.97 113.009C322.984 128.902 325.719 146.643 324.61 165.566C323.797 179.168 321.432 193.286 320.914 208.145C320.914 208.662 320.914 209.179 320.84 209.771C320.471 226.994 321.949 246.583 332.52 260.85C340.503 271.642 353.587 277.408 367.041 279.33C373.989 280.291 381.012 280.291 387.591 279.626C394.909 278.887 402.153 277.482 409.176 275.708C421.816 272.53 434.013 268.39 446.136 264.99C460.476 260.998 474.595 258.189 488.788 257.228C514.956 255.454 542.529 260.185 565.148 276.965C574.832 284.209 583.185 293.523 589.986 303.946C592.573 307.938 594.938 312.151 597.082 316.438C619.997 363.008 614.084 423.106 582.076 463.689" stroke="#AFA4F1" stroke-miterlimit="10"/>
<path d="M-18.0864 -326.376C20.2784 -328.076 58.5694 -324.232 94.2731 -311.962C128.794 -300.06 161.984 -278.993 185.417 -250.164C202.937 -228.505 214.468 -203.446 218.09 -175.578C221.343 -150.519 217.942 -125.016 209.072 -102.322C202.271 -85.1727 192.588 -69.7233 182.017 -54.4956C177.582 -48.1385 172.999 -41.7073 168.268 -35.2762C162.206 -26.9232 155.923 -17.6831 151.044 -7.48202C143.209 9.00231 136.999 30.8828 145.796 47.4411C154.814 64.3689 174.403 72.5741 192.588 75.7527C203.676 77.6747 214.912 78.0443 225.261 78.4878C234.353 78.9313 243.075 79.7444 251.281 81.1489C269.687 84.3275 286.023 90.8326 299.181 103.251C301.695 105.691 304.208 108.278 306.426 111.161C318.105 126.462 321.949 144.129 321.431 163.127C321.062 176.802 318.918 191.069 318.549 206.001C318.549 206.519 318.549 207.036 318.549 207.627C318.253 224.925 319.583 244.736 330.154 259.002C338.285 269.943 351.591 275.93 365.34 277.778C372.437 278.739 379.533 278.591 386.334 277.852C393.8 277.039 401.118 275.487 408.288 273.565C421.077 270.09 433.421 265.581 445.618 261.737C460.033 257.228 474.3 253.754 488.714 252.202C515.252 249.319 543.637 252.867 566.922 269.425C576.975 276.595 585.55 285.983 592.573 296.554C595.234 300.62 597.673 304.907 599.891 309.268C623.545 356.578 617.336 418.006 584.441 459.032" stroke="#AFA4F1" stroke-miterlimit="10"/>
<path d="M-24.665 -323.42C14.1433 -325.415 52.8778 -322.237 89.1729 -310.557C124.285 -299.174 158.289 -278.402 182.239 -249.499C200.128 -227.84 211.955 -202.633 215.429 -174.248C218.534 -148.893 214.69 -123.094 205.081 -100.401C197.762 -83.2512 187.34 -68.0235 176.251 -52.9437C171.594 -46.6604 166.79 -40.3032 161.837 -33.8721C155.48 -25.5191 148.901 -16.3529 143.874 -6.15184C135.743 10.2586 129.164 32.5087 137.887 49.2887C146.831 66.2905 166.716 74.6435 184.9 77.7482C196.062 79.5962 207.298 79.8179 217.795 80.0397C226.961 80.2615 235.684 80.8529 244.037 81.9617C262.591 84.475 279.371 90.019 293.12 101.772C295.781 104.064 298.442 106.503 300.808 109.386C313.153 124.023 318.105 141.69 318.179 160.761C318.253 174.51 316.405 188.925 316.11 203.931C316.11 204.448 316.11 205.04 316.11 205.557C315.888 222.928 316.997 242.887 327.715 257.302C336.068 268.464 349.522 274.599 363.567 276.373C370.811 277.26 378.055 277.112 384.93 276.299C392.47 275.338 399.936 273.638 407.18 271.568C420.116 267.798 432.535 262.92 444.953 258.706C459.516 253.68 473.856 249.614 488.419 247.47C515.326 243.405 544.451 245.844 568.549 262.254C578.898 269.351 587.842 278.813 595.012 289.531C597.747 293.671 600.261 297.958 602.552 302.393C626.946 350.442 620.515 413.127 586.659 454.596" stroke="#AFA4F1" stroke-miterlimit="10"/>
<path d="M-31.2441 -320.389C7.93384 -322.68 47.1118 -320.167 84.0722 -309.005C119.702 -298.139 154.593 -277.737 179.134 -248.76C197.393 -227.101 209.442 -201.672 212.842 -172.843C215.799 -147.192 211.512 -121.098 201.163 -98.4048C193.253 -81.2552 182.239 -66.1754 170.559 -51.3173C165.607 -45.108 160.58 -38.8247 155.48 -32.3936C148.827 -24.1145 142.026 -14.8744 136.778 -4.67333C128.351 11.6631 121.328 34.2829 130.125 51.2847C139.069 68.3604 159.176 76.9351 177.434 79.892C188.67 81.666 199.98 81.5921 210.551 81.74C219.717 81.8878 228.587 82.0357 236.94 82.8488C255.716 84.6968 272.866 89.2799 287.206 100.368C290.015 102.512 292.75 104.877 295.338 107.612C308.348 121.657 314.335 139.25 315.074 158.396C315.592 172.219 314.04 186.781 313.818 201.861C313.818 202.379 313.818 202.97 313.818 203.487C313.744 220.933 314.631 241.113 325.349 255.528C333.85 266.911 347.6 273.121 361.866 274.821C369.184 275.708 376.576 275.486 383.599 274.525C391.287 273.49 398.827 271.642 406.219 269.425C419.303 265.433 431.869 260.185 444.362 255.454C459.072 249.91 473.561 245.253 488.271 242.444C515.474 237.269 545.411 238.6 570.323 254.788C581.041 261.811 590.207 271.347 597.599 282.213C600.408 286.426 602.996 290.788 605.361 295.223C630.494 343.937 623.841 408.026 588.951 449.939" stroke="#AFA4F1" stroke-miterlimit="10"/>
<path d="M-37.8242 -317.432C1.79729 -319.945 41.4188 -318.171 78.9705 -307.601C115.118 -297.252 150.895 -277.145 175.955 -248.168C194.583 -226.51 206.927 -200.859 210.106 -171.513C212.915 -145.566 208.184 -119.177 197.096 -96.4831C188.669 -79.3335 176.989 -64.4754 164.719 -49.7652C159.544 -43.6298 154.296 -37.3465 148.973 -31.0633C142.025 -22.7842 135.002 -13.618 129.532 -3.41692C120.81 12.8456 113.344 35.835 122.14 52.9846C131.011 70.1342 151.413 78.9307 169.671 81.7397C180.981 83.4399 192.291 83.366 203.01 83.2181C212.25 83.0703 221.12 83.0703 229.621 83.5877C248.545 84.6965 266.138 88.4665 281.144 98.8154C284.101 100.811 286.983 103.103 289.645 105.69C303.32 119.144 310.416 136.663 311.747 155.882C312.708 169.779 311.451 184.49 311.303 199.643C311.303 200.161 311.303 200.752 311.303 201.27C311.303 218.863 312.043 239.117 322.835 253.679C331.484 265.285 345.455 271.642 359.943 273.268C367.409 274.155 374.875 273.86 382.046 272.825C389.881 271.716 397.495 269.72 404.961 267.281C418.267 262.993 430.907 257.375 443.474 252.275C458.258 246.213 472.894 240.891 487.826 237.491C515.399 231.134 546.076 231.355 571.726 247.396C582.74 254.345 592.202 263.954 599.816 274.895C602.773 279.108 605.434 283.543 607.799 288.126C633.672 337.579 626.797 402.999 590.946 445.356" stroke="#AFA4F1" stroke-miterlimit="10"/>
<path d="M-44.3276 -314.401C-4.33652 -317.21 35.8024 -316.101 73.9455 -306.048C110.684 -296.29 147.201 -276.406 172.851 -247.429C191.849 -225.844 204.49 -199.898 207.52 -170.108C210.181 -143.866 204.933 -117.18 193.18 -94.4866C184.235 -77.337 171.891 -62.6268 159.102 -48.1383C153.706 -42.0768 148.162 -35.8675 142.692 -29.5842C135.448 -21.3051 128.203 -12.2128 122.511 -1.93783C113.567 14.2508 105.658 37.6098 114.454 54.9811C123.251 72.2047 143.948 81.223 162.207 83.958C173.591 85.5843 184.974 85.3625 195.767 84.9929C205.007 84.6233 214.025 84.4016 222.6 84.5494C241.746 84.993 259.708 87.8019 275.306 97.4856C278.336 99.4075 281.367 101.551 284.25 104.064C298.591 116.927 306.796 134.372 308.792 153.665C310.27 167.636 309.161 182.494 309.235 197.722C309.235 198.24 309.235 198.831 309.235 199.348C309.309 217.015 309.827 237.491 320.767 252.054C329.563 263.881 343.83 270.312 358.54 271.938C366.154 272.752 373.768 272.382 381.012 271.273C388.922 270.017 396.757 267.873 404.297 265.36C417.751 260.776 430.539 254.789 443.253 249.245C458.185 242.666 472.896 236.752 487.976 232.687C515.918 225.147 547.408 224.26 573.798 240.153C585.181 246.953 594.865 256.711 602.701 267.799C605.731 272.086 608.466 276.595 610.906 281.179C637.517 331.371 630.421 398.121 593.608 440.847" stroke="#AFA4F1" stroke-miterlimit="10"/>
<path d="M-50.9067 -311.371C-10.4721 -314.475 30.0364 -314.032 68.8448 -304.57C106.101 -295.33 143.505 -275.741 169.673 -246.764C189.04 -225.179 201.976 -199.085 204.859 -168.777C207.372 -142.24 201.68 -115.259 189.262 -92.6391C179.726 -75.4895 166.79 -61.001 153.41 -46.6604C147.792 -40.6728 142.026 -34.5374 136.334 -28.328C128.795 -20.0489 121.329 -11.0306 115.415 -0.755623C106.175 15.2852 97.8218 39.0877 106.618 56.6808C115.341 73.9782 136.334 83.1444 154.667 85.8055C166.124 87.4318 177.582 87.0622 188.449 86.3969C197.763 85.8795 206.781 85.2881 215.43 85.2142C234.797 84.9185 253.055 86.8405 269.318 95.8588C272.496 97.6329 275.675 99.6287 278.632 102.068C293.638 114.339 302.878 131.71 305.539 151.078C307.461 165.196 306.648 180.128 306.796 195.356C306.796 195.947 306.796 196.465 306.796 197.056C307.017 214.797 307.313 235.421 318.253 250.131C327.272 262.107 341.686 268.759 356.692 270.312C364.38 271.125 372.142 270.681 379.534 269.425C387.591 268.094 395.501 265.803 403.114 263.067C416.716 258.189 429.652 251.905 442.44 245.918C457.52 238.895 472.304 232.316 487.606 227.586C515.917 218.937 548.147 216.867 575.276 232.612C586.955 239.339 596.935 249.17 604.992 260.406C608.097 264.768 610.906 269.277 613.419 273.934C640.77 324.791 633.451 392.872 595.678 436.116" stroke="#AFA4F1" stroke-miterlimit="10"/>
<path d="M-57.4854 -308.414C-16.6072 -311.814 24.3449 -312.036 63.7447 -303.091C101.592 -294.369 139.809 -275.075 166.494 -246.024C186.231 -224.44 199.463 -198.124 202.198 -167.373C204.638 -140.54 198.428 -113.263 185.27 -90.6431C175.217 -73.4196 161.616 -59.2268 147.645 -45.034C141.731 -39.1203 135.817 -33.0588 129.904 -26.8495C122.068 -18.6443 114.38 -9.62595 108.319 0.649028C98.857 16.6159 90.0604 40.8619 98.857 58.6029C107.58 76.0481 128.795 85.3622 147.127 87.8755C158.659 89.4279 170.117 88.9104 181.131 88.0233C190.519 87.2841 199.611 86.471 208.334 86.0275C227.849 85.0665 246.551 86.1014 263.478 94.3805C266.805 96.0068 270.131 97.9287 273.236 100.22C288.907 111.9 299.256 129.197 302.509 148.638C304.874 162.831 304.357 177.837 304.578 193.213C304.578 193.804 304.578 194.321 304.578 194.913C304.874 212.728 304.948 233.573 316.036 248.357C325.202 260.554 339.913 267.281 355.14 268.833C362.976 269.647 370.811 269.129 378.351 267.799C386.557 266.394 394.54 263.955 402.302 261.072C416.125 255.897 429.135 249.244 441.997 242.813C457.151 235.273 472.083 228.029 487.606 222.781C516.287 212.949 549.256 209.771 577.198 225.294C589.173 231.947 599.448 241.852 607.727 253.236C610.906 257.597 613.789 262.255 616.376 266.985C644.466 318.582 636.926 387.994 598.192 431.607" stroke="#AFA4F1" stroke-miterlimit="10"/>
<path d="M-64.0654 -305.383C-22.8177 -309.079 18.5779 -310.04 58.5691 -301.613C96.9339 -293.482 135.964 -274.484 163.241 -245.359C183.347 -223.774 196.875 -197.237 199.388 -165.968C201.68 -138.84 194.953 -111.267 181.13 -88.6473C170.559 -71.4238 156.218 -57.3789 141.73 -43.4079C135.594 -37.4942 129.385 -31.5805 123.324 -25.3712C115.192 -17.166 107.283 -8.14765 101 2.12733C91.242 18.0203 82.0019 42.6359 90.7985 60.5986C99.4472 78.1178 120.958 87.6536 139.364 90.019C150.896 91.4974 162.502 90.8322 173.59 89.7234C182.978 88.7624 192.144 87.7275 201.014 86.9883C220.751 85.362 239.823 85.436 257.342 93.0498C260.816 94.5282 264.217 96.3762 267.469 98.5199C283.806 109.608 295.263 126.832 299.107 146.347C301.916 160.613 301.694 175.767 301.99 191.217C301.99 191.808 301.99 192.325 302.064 192.917C302.434 210.805 302.36 231.873 313.448 246.657C322.762 259.076 337.694 265.95 353.143 267.429C361.127 268.168 369.036 267.651 376.724 266.172C385.003 264.62 393.134 262.033 400.97 259.002C414.941 253.532 428.099 246.509 441.109 239.708C456.41 231.651 471.416 223.816 487.161 217.902C516.138 206.962 549.994 202.674 578.675 217.976C591.02 224.555 601.517 234.534 610.018 246.066C613.27 250.501 616.227 255.158 618.888 259.963C647.717 312.225 639.956 383.041 600.26 427.098" stroke="#AFA4F1" stroke-miterlimit="10"/>
<path d="M-70.6445 -302.426C-28.9532 -306.418 12.8859 -308.044 53.4684 -300.135C92.3507 -292.521 132.268 -273.819 160.062 -244.694C180.538 -223.183 194.361 -196.424 196.727 -164.638C198.87 -137.14 191.7 -109.345 177.138 -86.7257C165.976 -69.5021 151.044 -55.679 135.964 -41.8558C129.607 -36.016 123.176 -30.1763 116.892 -24.0409C108.465 -15.8357 100.334 -6.89129 93.8291 3.38369C83.7759 19.2027 74.1662 44.1879 82.9627 62.2985C91.5375 79.8917 113.344 89.6492 131.75 91.9407C143.356 93.3452 155.035 92.5321 166.197 91.2015C175.659 90.0927 184.899 88.7621 193.844 87.6533C213.729 85.2878 233.244 84.4747 251.354 91.4233C254.902 92.8278 258.524 94.454 261.925 96.5977C278.927 107.094 291.493 124.244 295.928 143.833C299.181 158.174 299.255 173.475 299.624 188.999C299.624 189.59 299.624 190.107 299.698 190.699C300.216 208.662 299.846 229.877 311.082 244.809C320.618 257.449 335.698 264.472 351.443 265.876C359.5 266.615 367.631 265.95 375.393 264.398C383.82 262.772 392.025 260.036 399.935 256.858C414.054 251.092 427.359 243.774 440.443 236.456C455.893 227.881 471.047 219.38 486.866 212.875C516.212 200.752 550.807 195.356 580.227 210.51C592.868 217.015 603.66 227.068 612.383 238.747C615.709 243.256 618.74 247.987 621.475 252.866C651.044 305.867 642.986 377.94 602.404 422.514" stroke="#AFA4F1" stroke-miterlimit="10"/>
<path d="M-77.2231 -299.395C-35.1622 -303.682 7.19433 -305.974 48.3682 -298.656C87.8418 -291.559 128.572 -273.153 156.958 -244.028C177.877 -222.517 191.848 -195.536 194.14 -163.307C196.136 -135.513 188.522 -107.423 173.22 -84.803C161.541 -67.5794 145.944 -53.9041 130.346 -40.3027C123.767 -34.5369 117.114 -28.771 110.609 -22.6356C101.887 -14.4304 93.5337 -5.55993 86.807 4.78897C76.532 20.5341 66.4048 45.8889 75.2014 64.2213C83.7023 81.8883 105.731 91.8676 124.211 94.0113C135.89 95.3419 147.57 94.4548 158.88 92.9025C168.342 91.5719 177.656 89.9456 186.674 88.5411C206.78 85.5104 226.665 83.7363 245.367 90.0196C249.063 91.2762 252.759 92.8285 256.307 94.8244C273.974 104.73 287.576 121.879 292.676 141.542C296.372 155.957 296.668 171.406 297.185 187.004C297.185 187.595 297.259 188.112 297.259 188.704C297.851 206.74 297.333 228.177 308.643 243.109C318.327 255.898 333.702 263.068 349.669 264.472C357.874 265.212 366.079 264.472 373.989 262.846C382.564 261.072 390.917 258.263 398.9 254.863C413.241 248.801 426.621 241.114 439.852 233.352C455.376 224.26 470.677 215.167 486.718 207.997C516.434 194.691 551.768 188.186 582.002 203.192C595.012 209.623 606.026 219.75 614.971 231.578C618.371 236.087 621.476 240.892 624.285 245.844C654.592 299.585 646.313 372.988 604.77 417.932" stroke="#AFA4F1" stroke-miterlimit="10"/>
<path d="M-83.8022 -296.364C-41.2978 -300.947 1.42837 -303.904 43.2675 -297.104C83.2586 -290.525 124.876 -272.414 153.779 -243.289C175.068 -221.778 189.335 -194.575 191.479 -161.903C193.327 -133.813 185.195 -105.427 169.228 -82.8813C157.031 -65.6577 140.769 -52.2041 124.58 -38.7506C117.706 -33.0587 110.831 -27.2928 104.178 -21.3053C95.1599 -13.174 86.585 -4.3035 79.6365 6.0454C69.0658 21.7166 58.4952 47.441 67.2917 65.9951C75.7926 83.7361 98.0427 93.8632 116.597 95.933C128.35 97.1897 140.104 96.1548 151.487 94.3807C161.023 92.9023 170.411 90.9803 179.503 89.2802C199.758 85.5102 220.086 82.8491 239.453 88.467C243.297 89.5759 247.141 91.0543 250.837 92.9023C269.169 102.216 283.953 119.292 289.571 139.029C293.785 153.517 294.302 169.115 294.894 184.786C294.894 185.377 294.968 185.968 294.968 186.486C295.633 204.67 294.968 226.181 306.277 241.261C316.109 254.271 331.706 261.589 347.969 262.92C356.322 263.585 364.601 262.846 372.732 261.072C381.381 259.224 389.882 256.267 397.939 252.719C412.428 246.362 425.955 238.304 439.261 230.173C454.932 220.563 470.308 210.88 486.57 203.044C516.656 188.63 552.729 180.942 583.702 195.8C597.008 202.157 608.318 212.358 617.484 224.333C620.958 228.916 624.137 233.795 627.02 238.748C658.066 293.154 649.565 367.961 607.061 413.349" stroke="#AFA4F1" stroke-miterlimit="10"/>
<path d="M-90.3071 -293.407C-47.4331 -298.286 -4.18948 -301.908 38.241 -295.699C78.8235 -289.711 121.18 -271.897 150.674 -242.624C172.333 -221.113 186.896 -193.688 188.891 -160.572C190.592 -132.186 182.017 -103.505 165.385 -80.9593C152.67 -63.7358 135.742 -50.43 118.962 -37.1982C111.866 -31.5802 104.77 -25.8883 97.8951 -19.9008C88.581 -11.7695 79.7845 -2.89899 72.6142 7.376C61.8217 22.9733 50.8075 49.0673 59.6041 67.8431C68.0311 85.658 90.5769 96.007 109.131 97.9289C120.958 99.1855 132.712 97.9289 144.243 95.933C153.853 94.2328 163.241 92.0891 172.481 90.0194C192.957 85.5841 213.655 81.962 233.614 86.9147C237.605 87.8757 241.523 89.2802 245.367 91.0543C264.365 99.7769 280.184 116.779 286.467 136.589C291.124 151.152 291.937 166.897 292.602 182.568C292.602 183.159 292.676 183.751 292.676 184.268C293.489 202.527 292.528 224.259 303.986 239.413C313.965 252.645 329.858 260.037 346.269 261.294C354.77 261.959 363.197 261.146 371.402 259.298C380.198 257.302 388.773 254.197 396.978 250.501C411.615 243.922 425.29 235.495 438.67 226.847C454.489 216.72 469.938 206.371 486.422 197.944C516.804 182.346 553.764 173.55 585.476 188.186C599.078 194.469 610.683 204.744 620.071 216.793C623.693 221.45 626.946 226.329 629.829 231.43C661.615 286.575 652.892 362.713 609.427 408.47" stroke="#AFA4F1" stroke-miterlimit="10"/>
<path d="M-96.8862 -290.377C-53.5687 -295.477 -9.95546 -299.839 33.1403 -294.147C74.2402 -288.677 117.484 -271.157 147.496 -241.885C169.524 -220.374 184.382 -192.801 186.156 -159.094C187.709 -130.412 178.69 -101.435 161.319 -78.8895C148.013 -61.666 130.494 -48.582 113.123 -35.498C105.804 -29.954 98.4123 -24.336 91.3898 -18.4224C81.7802 -10.365 72.7618 -1.49449 65.3698 8.85441C54.3556 24.4517 42.8239 50.9153 51.6205 69.839C59.9735 87.7278 82.815 98.2985 101.369 100.147C113.27 101.329 125.098 99.9987 136.703 97.7072C146.313 95.8591 155.849 93.3458 165.163 91.0543C185.787 85.8798 206.928 81.3707 227.478 85.6581C231.544 86.4712 235.683 87.7279 239.675 89.428C259.338 97.6332 276.266 114.487 283.14 134.372C288.241 149.008 289.35 164.901 290.089 180.646C290.089 181.238 290.163 181.829 290.163 182.42C291.05 200.753 289.941 222.633 301.473 237.861C311.674 251.314 327.714 258.854 344.421 260.037C352.995 260.628 361.57 259.741 369.923 257.819C378.868 255.75 387.516 252.497 395.795 248.653C410.58 241.779 424.329 232.982 437.93 223.964C453.823 213.319 469.42 202.379 486.053 193.361C516.804 176.654 554.503 166.749 587.028 181.164C600.999 187.373 612.827 197.722 622.436 209.919C626.132 214.576 629.459 219.602 632.416 224.703C664.941 280.587 655.996 357.982 611.57 404.256" stroke="#AFA4F1" stroke-miterlimit="10"/>
<path d="M-103.465 -287.42C-59.7777 -292.817 -15.647 -297.843 28.0402 -292.743C69.7315 -287.79 113.788 -270.566 144.317 -241.294C166.715 -219.857 181.795 -191.989 183.495 -157.837C184.9 -128.86 175.364 -99.5878 157.328 -77.042C143.504 -59.8185 125.246 -46.8823 107.357 -34.0201C99.8172 -28.55 92.2034 -23.0059 84.9591 -17.0923C75.0537 -9.03489 65.8136 -0.238336 58.2737 10.1106C46.9639 25.56 35.0626 52.4672 43.8592 71.6126C52.1383 89.6493 75.2755 100.368 93.9035 102.068C105.879 103.177 117.78 101.698 129.459 99.185C139.143 97.1152 148.679 94.3802 158.067 91.719C178.912 85.8793 200.423 80.4092 221.639 84.0313C225.852 84.7705 230.066 85.8793 234.205 87.4316C254.533 95.1194 272.57 111.825 280.036 131.784C285.58 146.494 286.911 162.461 287.872 178.354C287.872 178.945 287.945 179.537 287.945 180.128C288.98 198.534 287.576 220.637 299.181 235.938C309.53 249.614 325.793 257.228 342.795 258.41C351.517 259.002 360.166 258.041 368.667 255.971C377.685 253.827 386.482 250.427 394.909 246.361C409.915 239.191 423.738 230.025 437.413 220.563C453.454 209.401 469.199 197.869 485.979 188.186C517.1 170.297 555.538 159.283 588.803 173.549C603.07 179.685 615.193 190.108 625.024 202.452C628.794 207.183 632.194 212.21 635.225 217.384C668.489 273.934 659.323 352.733 613.936 399.451" stroke="#AFA4F1" stroke-miterlimit="10"/>
<path d="M-110.044 -284.389C-65.9133 -290.081 -21.3391 -295.773 22.9395 -291.19C96.0471 -283.576 177.212 -238.263 180.834 -156.432C182.091 -127.16 172.111 -97.5914 153.336 -75.1195C138.995 -57.896 120.071 -45.1816 101.665 -32.4672C83.1849 -19.7529 64.6307 -6.44714 51.1032 11.4417C39.4977 26.8172 27.1529 54.0939 35.9495 73.3872C44.2286 91.4978 67.5876 102.438 86.2156 103.99C108.17 105.912 129.755 99.0377 150.822 92.4588C171.89 85.8798 193.696 79.5227 215.577 82.4795C241.301 85.9538 267.026 105.173 276.783 129.345C282.993 144.647 284.545 161.427 285.506 177.985C286.615 196.465 285.062 218.789 296.742 234.091C307.239 247.914 323.797 255.75 341.02 256.858C359.279 258.041 377.389 252.349 393.8 244.292C426.768 228.029 454.193 202.305 485.683 183.307C517.173 164.31 556.351 152.113 590.429 166.232C610.609 174.585 626.65 191.439 637.886 210.436C671.89 267.725 662.502 347.855 616.153 394.942" stroke="#AFA4F1" stroke-miterlimit="10"/>
</g>
<defs>
<clipPath id="clip0_201_694">
<rect width="678" height="417" fill="white"/>
</clipPath>
</defs>
</svg>
