<svg width="358" height="219" viewBox="0 0 358 219" fill="none" xmlns="http://www.w3.org/2000/svg">
<g clip-path="url(#clip0_283_1523)">
<path d="M-97.7725 -120.356C-82.251 -135.652 -54.0597 -136.467 -37.4383 -122.103C-20.0835 -107.079 -17.1911 -81.146 -1.01775 -64.9574C14.5037 -49.4287 39.0285 -46.1677 61.2312 -47.8758C83.4338 -49.584 105.311 -55.3684 127.554 -54.3202C149.797 -53.2721 173.752 -43.1784 182.103 -23.1464C189.314 -5.79315 183.162 13.6177 179.577 31.9415C176.033 50.2653 176.766 72.5878 192.532 83.4191C211.069 96.1914 234.534 85.2049 254.741 84.1179C289.043 82.3321 323.467 97.4337 342.411 125.075C361.761 153.259 363.228 191.964 346.077 221.275" stroke="#AFA4F1" stroke-width="0.2" stroke-miterlimit="10"/>
<path d="M-93.251 -123.19C-77.4851 -137.826 -49.6197 -138.33 -32.9983 -124.122C-19.4322 -112.553 -14.3399 -94.5396 -5.25512 -79.438C-2.64783 -75.1288 0.244608 -71.0525 3.74815 -67.4421C19.0252 -51.7969 42.5722 -47.7983 63.7157 -48.5747C78.178 -49.1182 92.3958 -51.4475 106.614 -52.3404C113.213 -52.7675 119.772 -52.8451 126.413 -52.224C134.846 -51.4475 143.645 -49.2735 151.834 -45.7407C164.055 -40.461 174.729 -32.2696 180.025 -20.7008C181.41 -17.7115 182.347 -14.6834 182.999 -11.5777C185.973 2.70871 182.021 18.2374 179.495 33.2225C179.088 35.5907 178.762 38.0364 178.477 40.521C176.807 57.0979 178.681 74.9559 191.595 84.6225C193.835 86.2918 196.117 87.5729 198.52 88.5434C207.605 92.3091 217.668 91.7268 227.893 90.3292C236.082 89.2034 244.392 87.4953 252.255 87.1459C254.17 87.0682 256.084 87.0294 257.999 87.0294C268.388 87.0682 278.735 88.5046 288.594 91.3386C309.289 97.356 327.785 109.74 340.006 127.249C343.754 132.606 346.851 138.39 349.254 144.408C359.439 169.72 357.728 199.496 343.836 223.061" stroke="#AFA4F1" stroke-width="0.2" stroke-miterlimit="10"/>
<path d="M-88.6875 -126.024C-72.7179 -139.961 -45.1784 -140.194 -28.5163 -126.14C-14.9095 -114.727 -9.49122 -96.9852 -0.365723 -81.9224C2.24156 -77.652 5.09328 -73.5757 8.55608 -69.9265C23.548 -54.126 46.1987 -49.4286 66.283 -49.2733C80.012 -49.1957 93.415 -50.7874 106.737 -51.098C112.929 -51.2532 119.08 -51.0591 125.354 -50.2051C133.298 -49.118 141.65 -46.6335 149.675 -42.9454C161.612 -37.3939 172.448 -29.4743 178.07 -18.3325C179.537 -15.4597 180.596 -12.5092 181.329 -9.51993C184.833 4.30059 181.655 19.5187 179.496 34.465C179.17 36.8331 178.844 39.2789 178.641 41.7635C177.215 58.3404 178.6 76.0043 190.822 85.865C192.899 87.5731 195.099 88.893 197.381 89.9412C206.017 93.9787 215.713 93.8234 225.694 92.8529C233.72 92.0376 242.03 90.5236 249.893 90.213C251.808 90.1353 253.722 90.0965 255.637 90.0965C265.985 90.1353 276.292 91.4164 286.15 94.1728C306.805 99.9184 325.382 112.147 337.685 129.501C341.474 134.819 344.57 140.526 347.014 146.543C357.321 171.739 355.651 201.476 341.677 224.924" stroke="#AFA4F1" stroke-width="0.2" stroke-miterlimit="10"/>
<path d="M-84.125 -128.858C-67.9109 -142.096 -40.7381 -142.018 -24.0352 -128.159C-10.3877 -116.862 -4.60281 -99.431 4.48195 -84.4459C7.08923 -80.1755 9.94094 -76.0992 13.3223 -72.45C28.029 -56.5331 49.7428 -51.098 68.7678 -50.011C81.7635 -49.3122 94.3518 -50.1663 106.777 -49.8557C112.562 -49.7393 118.306 -49.2734 124.173 -48.1476C131.628 -46.7112 139.572 -43.9548 147.394 -40.1115C159.086 -34.3271 170.004 -26.6792 175.952 -15.9256C177.5 -13.1693 178.64 -10.3353 179.496 -7.46248C183.529 5.89217 181.085 20.7997 179.333 35.7072C179.048 38.0753 178.803 40.4823 178.64 42.9669C177.5 59.5049 178.396 76.9747 189.844 87.0683C191.799 88.8153 193.877 90.174 195.995 91.2999C204.143 95.5703 213.472 95.9196 223.29 95.2985C231.153 94.8326 239.464 93.4739 247.285 93.2021C249.2 93.1245 251.115 93.1245 252.989 93.1245C263.336 93.1633 273.603 94.328 283.421 96.929C304.075 102.403 322.734 114.476 335.078 131.636C338.866 136.915 342.044 142.583 344.488 148.562C354.877 173.602 353.247 203.339 339.274 226.71" stroke="#AFA4F1" stroke-width="0.2" stroke-miterlimit="10"/>
<path d="M-79.5625 -131.691C-63.1448 -144.231 -36.2979 -143.881 -19.5135 -130.177C-5.82523 -118.997 0.285593 -101.876 9.41109 -86.93C12.0184 -82.6596 14.8294 -78.6222 18.1699 -74.9341C32.6322 -58.9008 53.3683 -52.7281 71.3341 -50.7094C83.6372 -49.3894 95.4107 -49.4671 106.899 -48.613C112.277 -48.2248 117.573 -47.526 123.113 -46.1284C130.12 -44.3814 137.616 -41.3145 145.275 -37.3159C156.723 -31.2985 167.763 -23.8836 173.996 -13.557C175.625 -10.8783 176.848 -8.16082 177.825 -5.40448C182.388 7.48432 180.718 22.1201 179.333 36.95C179.088 39.2793 178.925 41.6862 178.803 44.1708C177.948 60.7088 178.314 77.9457 189.069 88.2723C190.903 90.0192 192.858 91.4945 194.854 92.6591C202.554 97.1624 211.516 97.9777 221.09 97.7836C228.749 97.6283 237.1 96.4636 244.922 96.2695C246.837 96.2307 248.752 96.1919 250.626 96.1919C260.933 96.2695 271.158 97.2401 281.017 99.7247C301.671 104.927 320.371 116.806 332.796 133.849C336.625 139.09 339.803 144.719 342.288 150.659C352.799 175.582 351.169 205.242 337.155 228.535" stroke="#AFA4F1" stroke-width="0.2" stroke-miterlimit="10"/>
<path d="M-74.999 -134.526C-58.3368 -146.405 -31.8566 -145.706 -15.0315 -132.196C-1.30249 -121.171 5.17499 -104.322 14.3005 -89.4536C16.9078 -85.222 19.7187 -81.1846 22.9778 -77.4577C37.155 -61.269 56.9948 -54.3588 73.9014 -51.4471C85.4712 -49.4672 96.43 -48.8461 107.063 -47.3709C112.033 -46.7109 116.922 -45.7404 122.055 -44.071C128.573 -41.9747 135.621 -38.636 143.117 -34.4821C154.279 -28.2318 165.442 -21.0498 172.041 -11.1502C173.752 -8.58801 175.097 -5.98695 176.197 -3.34707C181.289 9.07587 180.393 23.4011 179.374 38.1921C179.211 40.5214 179.089 42.9284 178.967 45.3741C178.396 61.8733 178.274 78.9161 188.296 89.4367C190.007 91.2225 191.8 92.7366 193.714 93.9789C200.966 98.7151 209.521 99.9962 218.932 100.19C226.428 100.346 234.779 99.3751 242.601 99.2198C244.516 99.181 246.39 99.181 248.304 99.181C258.57 99.2586 268.796 100.113 278.614 102.442C299.228 107.372 318.008 119.096 330.556 135.984C334.426 141.186 337.604 146.776 340.13 152.677C350.762 177.484 349.133 207.105 335.078 230.282" stroke="#AFA4F1" stroke-width="0.2" stroke-miterlimit="10"/>
<path d="M-70.4775 -137.36C-53.6117 -148.54 -27.4573 -147.57 -10.5915 -134.215C3.21899 -123.306 10.0224 -106.768 19.1479 -91.9384C21.7552 -87.7069 24.5254 -83.6694 27.7438 -79.9425C41.6357 -63.6374 60.5385 -55.9896 76.3859 -52.185C87.2224 -49.5452 97.3257 -48.1864 107.103 -46.1677C111.666 -45.1971 116.147 -43.9937 120.873 -42.0914C126.902 -39.6456 133.542 -36.0352 140.835 -31.6872C151.753 -25.1651 162.997 -18.2549 169.922 -8.78238C171.715 -6.33661 173.141 -3.81321 174.363 -1.2898C179.985 10.6673 179.863 24.7207 179.251 39.3953C179.17 41.7246 179.048 44.0927 179.007 46.5385C178.681 62.9989 178.07 79.8475 187.358 90.6011C188.947 92.4257 190.618 93.9786 192.41 95.2985C199.213 100.307 207.402 102.054 216.568 102.636C223.901 103.102 232.212 102.325 240.034 102.248C241.948 102.209 243.822 102.209 245.696 102.248C255.922 102.325 266.107 103.024 275.925 105.237C296.539 109.895 315.401 121.464 327.989 138.196C331.859 143.36 335.118 148.911 337.644 154.773C348.358 179.425 346.769 209.046 332.674 232.106" stroke="#AFA4F1" stroke-width="0.2" stroke-miterlimit="10"/>
<path d="M-65.915 -140.233C-48.8047 -150.714 -22.9763 -149.433 -6.11045 -136.273C7.74075 -125.519 14.87 -109.253 24.0363 -94.5007C26.6436 -90.3079 29.4138 -86.2317 32.5507 -82.5048C46.1982 -66.0444 64.1233 -57.6977 78.9522 -52.9615C89.0554 -49.7004 98.3439 -47.6041 107.225 -44.9642C111.38 -43.7219 115.454 -42.2467 119.813 -40.0727C125.354 -37.3163 131.546 -33.3953 138.675 -28.892C149.349 -22.1371 160.715 -15.4597 167.926 -6.41428C169.8 -4.08498 171.348 -1.67803 172.651 0.767733C178.844 12.259 179.455 26.0018 179.21 40.6376C179.17 42.9281 179.129 45.335 179.129 47.742C179.088 64.2024 177.988 80.7792 186.543 91.8046C188.01 93.668 189.558 95.2597 191.228 96.6573C197.543 101.898 205.365 104.111 214.368 105.082C221.538 105.858 229.849 105.276 237.671 105.237C239.585 105.237 241.459 105.237 243.333 105.237C253.559 105.314 263.703 105.897 273.48 107.993C294.094 112.38 312.997 123.794 325.666 140.37C329.577 145.456 332.837 151.008 335.444 156.831C346.28 181.366 344.692 210.948 330.555 233.892" stroke="#AFA4F1" stroke-width="0.2" stroke-miterlimit="10"/>
<path d="M-61.3516 -143.067C-44.0376 -152.889 -18.5351 -151.297 -1.5877 -138.292C12.3042 -127.654 19.8002 -111.699 28.9664 -97.0241C31.5737 -92.8314 34.3032 -88.7551 37.3586 -84.9894C50.7209 -68.4125 67.709 -59.3283 81.4787 -53.6603C90.8487 -49.7781 99.2816 -46.9442 107.348 -43.722C111.055 -42.2467 114.762 -40.4609 118.714 -38.054C123.766 -34.9483 129.551 -30.7555 136.517 -26.0969C146.946 -19.109 158.394 -12.6646 165.971 -4.04621C167.927 -1.79456 169.556 0.457116 170.982 2.78642C177.704 13.8506 179.089 27.2441 179.211 41.841C179.252 44.1315 179.252 46.4996 179.252 48.9066C179.456 65.3281 177.908 81.7109 185.689 92.9692C186.992 94.8714 188.459 96.5408 190.007 97.9772C195.873 103.451 203.329 106.13 212.087 107.527C219.095 108.614 227.405 108.226 235.227 108.226C237.142 108.226 239.016 108.226 240.849 108.265C251.034 108.343 261.137 108.77 270.955 110.749C291.528 114.903 310.512 126.123 323.304 142.506C327.256 147.552 330.556 153.065 333.163 158.85C344.122 183.268 342.533 212.773 328.397 235.639" stroke="#AFA4F1" stroke-width="0.2" stroke-miterlimit="10"/>
<path d="M-56.79 -145.9C-39.2316 -155.023 -14.0957 -153.121 2.89234 -140.31C16.825 -129.828 24.6876 -114.144 33.8538 -99.5083C36.4611 -95.3156 39.1906 -91.2782 42.1646 -87.4736C55.2417 -70.7803 71.2928 -60.9584 84.0441 -54.3587C92.7214 -49.8554 100.258 -46.2838 107.469 -42.4793C110.769 -40.7323 114.069 -38.7136 117.613 -35.9961C122.176 -32.541 127.512 -28.0765 134.316 -23.2626C144.46 -16.0417 156.07 -9.83026 163.933 -1.67771C165.97 0.457483 167.722 2.63149 169.229 4.84433C176.521 15.4426 178.599 28.5644 179.128 43.0837C179.21 45.3742 179.251 47.7035 179.332 50.1492C179.821 66.5708 177.743 82.7206 184.832 94.2118C186.013 96.1529 187.317 97.8611 188.784 99.3751C194.202 105.082 201.29 108.226 209.805 110.051C216.649 111.487 224.96 111.255 232.781 111.332C234.655 111.332 236.57 111.371 238.403 111.371C248.547 111.487 258.651 111.759 268.428 113.584C289.001 117.466 308.067 128.491 320.9 144.758C324.851 149.766 328.192 155.24 330.84 160.985C341.921 185.249 340.332 214.753 326.155 237.503" stroke="#AFA4F1" stroke-width="0.2" stroke-miterlimit="10"/>
<path d="M-52.2666 -148.734C-34.5045 -157.159 -9.69453 -154.985 7.3343 -142.329C21.3077 -131.963 29.4962 -116.59 38.7032 -102.032C41.3512 -97.878 43.9992 -93.8017 46.9324 -89.9972C59.7652 -73.1486 74.8385 -62.6279 86.5306 -55.0965C94.4746 -49.9721 101.156 -45.7017 107.511 -41.2372C110.363 -39.2184 113.296 -36.928 116.474 -33.9775C120.547 -30.2118 125.477 -25.4368 132.077 -20.4676C141.976 -12.975 153.668 -7.0741 161.857 0.690235C163.975 2.70896 165.849 4.76652 167.479 6.86289C175.341 16.9953 178.152 29.8065 179.089 44.287C179.211 46.5386 179.334 48.9068 179.456 51.3137C180.189 67.6964 177.663 83.6133 183.978 95.3375C185.037 97.3174 186.218 99.0644 187.563 100.656C192.492 106.596 199.214 110.245 207.566 112.419C214.247 114.166 222.558 114.127 230.339 114.244C232.213 114.282 234.087 114.282 235.92 114.321C246.023 114.438 256.086 114.554 265.863 116.262C286.436 119.873 305.543 130.743 318.457 146.854C322.449 151.823 325.83 157.219 328.478 162.965C339.641 187.112 338.093 216.578 323.875 239.211" stroke="#AFA4F1" stroke-width="0.2" stroke-miterlimit="10"/>
<path d="M-47.7051 -151.568C-29.6985 -159.333 -5.25522 -156.809 11.8144 -144.347C25.8285 -134.137 34.3837 -119.036 43.5906 -104.516C46.2387 -100.363 48.8867 -96.3251 51.7384 -92.4817C64.286 -75.5167 78.4631 -64.2972 89.0552 -55.7952C96.266 -50.0108 102.132 -45.0805 107.632 -39.9948C110.076 -37.7432 112.561 -35.1421 115.372 -31.9199C118.998 -27.8048 123.479 -22.758 129.875 -17.6335C139.531 -9.90801 151.345 -4.24005 159.859 3.09725C162.059 4.99951 164.015 6.97941 165.766 8.95931C174.199 18.6259 177.744 31.1653 179.047 45.5682C179.251 47.8198 179.414 50.1491 179.536 52.5561C180.555 68.9388 177.54 84.6228 183.121 96.5798C184.058 98.5597 185.117 100.384 186.34 102.054C190.821 108.226 197.176 112.341 205.283 114.942C211.801 117 220.071 117.155 227.893 117.349C229.767 117.388 231.641 117.427 233.474 117.427C243.578 117.544 253.599 117.544 263.377 119.096C283.909 122.435 303.097 133.15 316.093 149.106C320.126 154.036 323.507 159.393 326.196 165.1C337.481 189.131 335.932 218.519 321.674 241.074" stroke="#AFA4F1" stroke-width="0.2" stroke-miterlimit="10"/>
<path d="M-43.1416 -154.402C-24.9313 -161.468 -0.813953 -158.673 16.3371 -146.366C30.4327 -136.273 39.3138 -121.482 48.5208 -107.04C51.1688 -102.925 53.7761 -98.8485 56.587 -95.0052C68.8494 -77.9236 82.0895 -65.9665 91.6632 -56.5329C98.1406 -50.1273 103.152 -44.4981 107.796 -38.7525C109.833 -36.2679 111.91 -33.3563 114.355 -29.9012C117.492 -25.4367 121.525 -20.1181 127.799 -14.8384C137.209 -6.87993 149.146 -1.4449 157.945 5.46536C160.267 7.28998 162.304 9.11462 164.138 11.0169C173.141 20.2176 177.418 32.4464 179.089 46.8105C179.333 49.0621 179.537 51.3526 179.741 53.7596C181.044 70.1035 177.541 85.5545 182.348 97.7834C183.163 99.8021 184.1 101.666 185.2 103.412C189.233 109.779 195.181 114.399 203.125 117.388C209.48 119.756 217.75 120.106 225.572 120.339C227.446 120.378 229.32 120.416 231.153 120.455C241.215 120.572 251.196 120.416 260.974 121.892C281.506 124.959 300.776 135.518 313.853 151.318C317.886 156.21 321.308 161.529 324.037 167.197C335.444 191.072 333.896 220.46 319.638 242.899" stroke="#AFA4F1" stroke-width="0.2" stroke-miterlimit="10"/>
<path d="M-38.5791 -157.236C-20.1244 -163.603 3.66707 -160.498 20.8181 -148.385C34.9545 -138.408 44.1615 -123.927 53.4092 -109.563C56.0572 -105.448 58.6645 -101.411 61.394 -97.5288C73.4119 -80.2919 85.6743 -67.6361 94.1887 -57.2707C99.9736 -50.244 104.088 -43.9548 107.877 -37.5493C109.507 -34.7929 111.177 -31.6095 113.214 -27.8827C115.862 -23.0688 119.488 -17.4785 125.558 -12.0434C134.683 -3.85205 146.742 1.35006 155.867 7.83328C158.271 9.54143 160.389 11.2884 162.345 13.0354C171.918 21.7314 176.889 33.6885 178.966 47.9749C179.292 50.1877 179.537 52.517 179.781 54.8852C181.37 71.1903 177.377 86.4472 181.451 98.9089C182.144 100.966 182.918 102.869 183.896 104.693C187.481 111.293 193.062 116.418 200.761 119.795C206.913 122.474 215.224 123.017 223.005 123.328C224.879 123.405 226.753 123.444 228.545 123.444C238.567 123.561 248.548 123.289 258.285 124.609C278.817 127.404 298.127 137.808 311.286 153.453C315.36 158.306 318.823 163.586 321.552 169.254C333.081 193.013 331.574 222.362 317.234 244.684" stroke="#AFA4F1" stroke-width="0.2" stroke-miterlimit="10"/>
<path d="M-34.0566 -160.07C-15.3983 -165.738 8.06731 -162.361 25.2591 -150.404C39.4362 -140.582 49.0098 -126.373 58.2575 -112.048C60.9056 -107.933 63.4721 -103.895 66.1609 -100.013C77.8937 -82.6599 89.2191 -69.2664 96.715 -57.9693C101.767 -50.3214 105.107 -43.3724 108 -36.268C109.222 -33.3176 110.485 -29.7848 112.114 -25.825C114.273 -20.6617 117.451 -14.7608 123.358 -9.2093C132.239 -0.746178 144.42 4.14537 153.831 10.2404C156.316 11.8321 158.557 13.4626 160.593 15.1319C170.737 23.3621 176.441 35.0474 178.885 49.2562C179.252 51.469 179.578 53.7595 179.863 56.1276C181.696 72.4327 177.256 87.4179 180.555 100.113C181.085 102.209 181.778 104.15 182.633 106.052C185.77 112.885 190.985 118.475 198.481 122.241C204.469 125.269 212.78 125.968 220.561 126.317C222.435 126.395 224.309 126.434 226.101 126.472C236.083 126.628 246.023 126.162 255.8 127.365C276.292 129.889 295.683 140.099 308.924 155.589C313.038 160.364 316.501 165.644 319.271 171.273C330.882 194.915 329.415 224.225 315.034 246.431" stroke="#AFA4F1" stroke-width="0.2" stroke-miterlimit="10"/>
<path d="M-29.4941 -162.905C-10.5913 -167.913 12.5076 -164.186 29.7401 -152.423C43.958 -142.717 53.8982 -128.819 63.1459 -114.572C65.794 -110.495 68.3605 -106.419 70.9271 -102.498C82.3747 -85.0282 92.8038 -70.936 99.1998 -58.6683C103.518 -50.3993 106.044 -42.7902 108.04 -35.0259C108.855 -31.8037 109.67 -27.9992 110.973 -23.7676C112.644 -18.2938 115.414 -12.0823 121.158 -6.37551C129.795 2.32054 142.057 6.97914 151.834 12.6471C154.401 14.1223 156.764 15.6364 158.923 17.1893C169.637 24.9536 176.033 36.3283 178.926 50.4982C179.374 52.7111 179.74 55.0016 180.026 57.3309C182.144 73.5971 177.215 88.3882 179.781 101.316C180.189 103.451 180.759 105.47 181.492 107.411C184.181 114.476 188.988 120.533 196.28 124.725C202.106 128.064 210.376 128.957 218.198 129.345C220.072 129.423 221.905 129.5 223.698 129.5C233.638 129.656 243.537 129.073 253.315 130.122C273.806 132.373 293.28 142.428 306.56 157.763C310.675 162.499 314.219 167.74 316.99 173.33C328.722 196.817 327.256 226.089 312.834 248.217" stroke="#AFA4F1" stroke-width="0.2" stroke-miterlimit="10"/>
<path d="M-24.9316 -165.738C-5.82513 -170.047 16.9479 -166.049 34.2619 -154.441C48.5205 -144.891 58.7866 -131.265 68.0344 -117.056C70.6824 -112.98 73.2082 -108.942 75.734 -104.982C86.9372 -87.3573 96.3886 -72.5662 101.766 -59.3668C105.392 -50.4767 107.144 -42.2077 108.162 -33.7445C108.569 -30.2894 108.977 -26.1743 109.873 -21.7098C111.055 -15.8866 113.377 -9.40334 118.958 -3.50245C127.35 5.42654 139.735 9.85222 149.797 15.0931C152.445 16.4907 154.89 17.8883 157.171 19.3247C168.456 26.5843 175.585 37.6874 178.844 51.8185C179.333 53.9925 179.74 56.2829 180.107 58.6511C182.51 74.9173 177.092 89.4367 178.925 102.636C179.211 104.771 179.659 106.868 180.27 108.886C182.51 116.185 186.951 122.707 194.04 127.288C199.702 130.937 207.972 132.024 215.753 132.49C217.627 132.606 219.461 132.645 221.253 132.684C231.193 132.839 241.052 132.102 250.789 133.033C271.28 135.013 290.794 144.913 304.197 160.092C308.353 164.79 311.897 169.992 314.708 175.543C326.563 198.914 325.096 228.147 310.634 250.158" stroke="#AFA4F1" stroke-width="0.2" stroke-miterlimit="10"/>
<path d="M-20.3691 -168.572C-1.0182 -172.183 21.3882 -167.874 38.7429 -156.46C53.083 -147.026 63.675 -133.711 72.9228 -119.579C75.5708 -115.542 78.0966 -111.466 80.5409 -107.506C91.4589 -89.7644 99.9733 -74.2357 104.292 -60.1046C107.184 -50.5933 108.162 -41.6255 108.243 -32.5412C108.284 -28.8532 108.243 -24.4275 108.773 -19.6912C109.465 -13.5186 111.38 -6.76362 116.758 -0.707434C124.865 8.45448 137.412 12.6472 147.76 17.4611C150.489 18.7422 153.056 20.0233 155.419 21.3821C167.315 28.1759 175.136 39.0071 178.762 53.0606C179.333 55.2346 179.781 57.4863 180.188 59.8544C182.918 76.0818 176.97 90.407 178.029 103.839C178.192 106.013 178.518 108.149 179.007 110.245C180.799 117.776 184.832 124.803 191.717 129.772C197.217 133.732 205.487 135.013 213.268 135.518C215.142 135.634 216.975 135.712 218.768 135.712C228.667 135.867 238.485 135.013 248.263 135.828C268.714 137.537 288.309 147.281 301.793 162.305C305.99 166.963 309.575 172.127 312.386 177.639C324.363 200.855 322.896 230.087 308.434 251.983" stroke="#AFA4F1" stroke-width="0.2" stroke-miterlimit="10"/>
<path d="M-15.8057 -171.406C3.74897 -174.357 25.8702 -169.737 43.2249 -158.479C57.6057 -149.2 68.5645 -136.156 77.8122 -122.064C80.4602 -118.026 82.9452 -113.989 85.3488 -109.99C95.9817 -92.0935 103.6 -75.9048 106.818 -60.8032C108.977 -50.6708 109.222 -41.0042 108.366 -31.2599C108.04 -27.3389 107.511 -22.6027 107.674 -17.6335C107.877 -11.1115 109.385 -4.08474 114.559 2.12673C122.421 11.5604 135.05 15.4426 145.765 19.8682C148.576 21.0329 151.264 22.1975 153.709 23.4398C166.175 29.729 174.689 40.2885 178.722 54.3031C179.333 56.4771 179.863 58.7287 180.27 61.058C183.244 77.2467 176.848 91.339 177.174 105.004C177.215 107.217 177.419 109.391 177.785 111.526C179.13 119.291 182.796 126.783 189.477 132.141C194.814 136.411 203.084 137.886 210.865 138.468C212.739 138.585 214.572 138.663 216.324 138.701C226.183 138.896 236.001 137.847 245.738 138.546C266.188 139.983 285.865 149.571 299.391 164.44C303.587 169.06 307.212 174.146 310.064 179.658C322.123 202.757 320.697 231.951 306.194 253.73" stroke="#AFA4F1" stroke-width="0.2" stroke-miterlimit="10"/>
<path d="M-11.2842 -174.279C8.51489 -176.531 30.2694 -171.639 47.6649 -160.536C62.0865 -151.374 73.3711 -138.641 82.6596 -124.626C85.3483 -120.589 87.7926 -116.551 90.1148 -112.553C100.503 -94.5394 107.144 -77.6132 109.343 -61.5798C110.81 -50.8262 110.24 -40.4608 108.447 -30.0954C107.714 -25.9027 106.777 -20.8947 106.533 -15.6538C106.207 -8.78234 107.307 -1.48388 112.358 4.88288C119.976 14.5495 132.728 18.1987 143.727 22.1974C146.62 23.2455 149.39 24.3326 151.956 25.4584C164.993 31.2428 174.2 41.5694 178.64 55.4676C179.333 57.6027 179.903 59.8544 180.351 62.1837C183.61 78.3723 176.766 92.2317 176.277 106.13C176.196 108.382 176.277 110.594 176.522 112.807C177.459 120.766 180.718 128.763 187.155 134.547C192.328 139.167 200.598 140.836 208.339 141.419C210.213 141.574 212.046 141.652 213.798 141.69C223.616 141.885 233.393 140.72 243.13 141.263C263.581 142.428 283.298 151.823 296.946 166.536C301.183 171.117 304.808 176.164 307.742 181.638C319.922 204.62 318.497 233.737 303.953 255.438" stroke="#AFA4F1" stroke-width="0.2" stroke-miterlimit="10"/>
<path d="M-6.72168 -177.113C13.2811 -178.666 34.7097 -173.464 52.1867 -162.555C66.6489 -153.548 78.3002 -141.087 87.5887 -127.15C90.2774 -123.151 92.681 -119.114 94.9624 -115.076C105.066 -96.9464 110.851 -79.2826 111.91 -62.3175C112.684 -50.9428 111.339 -39.8398 108.569 -28.892C107.469 -24.4664 106.084 -19.1478 105.473 -13.6739C104.658 -6.49193 105.351 1.11712 110.199 7.63917C117.572 17.5387 130.446 20.9162 141.731 24.5266C144.745 25.4583 147.597 26.4289 150.245 27.4382C163.852 32.718 173.792 42.7728 178.64 56.6321C179.373 58.7673 179.984 60.9801 180.514 63.3094C184.058 79.4593 176.725 93.0857 175.503 107.256C175.299 109.546 175.218 111.798 175.381 114.088C175.87 122.28 178.721 130.782 184.995 136.915C190.006 141.846 198.235 143.709 206.016 144.369C207.85 144.524 209.683 144.602 211.435 144.641C221.253 144.835 230.989 143.515 240.726 143.942C261.136 144.874 280.935 154.075 294.664 168.633C298.942 173.175 302.608 178.183 305.541 183.618C317.845 206.445 316.419 235.561 301.834 257.146" stroke="#AFA4F1" stroke-width="0.2" stroke-miterlimit="10"/>
<path d="M-2.1582 -179.947C18.089 -180.801 39.151 -175.289 56.6687 -164.574C71.1717 -155.684 83.1896 -143.532 92.4781 -129.634C95.1668 -125.636 97.5704 -121.598 99.7703 -117.561C109.588 -99.2757 114.436 -80.9131 114.477 -63.0163C114.518 -51.0204 112.399 -39.2186 108.733 -27.6109C107.226 -22.9135 105.392 -17.3231 104.415 -11.5775C103.111 -4.04613 103.355 3.83466 108.04 10.512C115.129 20.6444 128.125 23.789 139.776 26.9724C142.872 27.8265 145.846 28.6417 148.616 29.5734C162.834 34.3485 173.467 44.1704 178.681 57.9521C179.496 60.0873 180.148 62.3001 180.678 64.5906C184.507 80.7404 176.726 94.1339 174.689 108.537C174.363 110.866 174.159 113.156 174.2 115.525C174.241 123.949 176.726 132.917 182.755 139.478C187.562 144.719 195.832 146.776 203.614 147.475C205.447 147.63 207.28 147.747 209.032 147.785C218.809 147.98 228.505 146.543 238.242 146.815C258.652 147.475 278.532 156.52 292.302 170.923C296.58 175.388 300.287 180.396 303.261 185.792C315.645 208.503 314.26 237.58 299.676 259.087" stroke="#AFA4F1" stroke-width="0.2" stroke-miterlimit="10"/>
<path d="M2.4043 -182.781C22.8959 -182.975 43.5912 -177.152 61.1497 -166.592C75.6934 -157.819 88.0373 -145.978 97.3665 -132.157C100.055 -128.198 102.418 -124.16 104.577 -120.045C114.151 -101.644 118.021 -82.5434 117.003 -63.7149C116.31 -51.0978 113.418 -38.5584 108.814 -26.3684C106.94 -21.3992 104.659 -15.576 103.274 -9.55862C101.481 -1.67782 101.318 6.47472 105.799 13.3073C112.644 23.7115 125.761 26.5844 137.698 29.3407C140.876 30.0783 143.931 30.7771 146.823 31.6312C161.612 35.9016 172.937 45.4517 178.559 59.1946C179.414 61.2909 180.148 63.5038 180.718 65.7943C184.792 81.9053 176.603 95.1046 173.793 109.74C173.344 112.07 173.018 114.477 172.937 116.884C172.57 125.541 174.607 134.974 180.474 141.962C185.118 147.514 193.388 149.766 201.128 150.503C202.961 150.697 204.795 150.775 206.547 150.814C216.283 151.008 225.979 149.416 235.675 149.61C256.085 149.998 276.006 158.889 289.857 173.136C294.176 177.562 297.924 182.531 300.898 187.888C313.404 210.483 312.019 239.521 297.394 260.912" stroke="#AFA4F1" stroke-width="0.2" stroke-miterlimit="10"/>
<path d="M6.92578 -185.615C44.8129 -184.684 81.6408 -165.001 102.214 -134.681C125.191 -100.79 124.539 -61.3082 108.854 -25.1652C103.64 -13.0917 95.9401 3.79573 103.558 16.1022C111.91 29.5733 130.853 30.1945 145.03 33.6496C162.711 37.9976 176.073 49.683 180.758 66.9586C185.81 85.6318 173.303 100.074 171.633 118.164C170.818 127.055 172.488 136.954 178.11 144.33C183.651 151.59 194.976 153.57 203.979 153.803C213.675 154.036 223.33 152.289 233.067 152.327C259.792 152.483 285.905 167.468 298.494 189.907C311.123 212.346 309.737 241.346 295.072 262.659" stroke="#AFA4F1" stroke-width="0.2" stroke-miterlimit="10"/>
<path d="M3.3418 -184.023C22.6927 -183.713 41.7992 -178.821 58.7873 -170.086C75.4088 -161.546 90.034 -149.317 100.504 -134.254C108.489 -122.802 113.703 -110.573 116.311 -97.9558C118.796 -86.0375 118.959 -73.8863 117.166 -61.8905C115.822 -52.8838 113.337 -43.9937 109.996 -35.22C108.611 -31.5707 107.063 -27.9603 105.393 -24.3499C103.315 -19.9242 100.911 -14.8386 99.1188 -9.55883C96.0226 -0.552199 94.5153 9.26968 99.3225 17.1505C104.537 25.6524 114.151 29.1464 124.01 31.3204C129.836 32.6015 135.743 33.4167 141.08 34.5814C145.887 35.6684 150.409 37.2213 154.524 39.2788C163.812 43.9374 171.186 51.0418 175.586 60.4755C176.441 62.2613 177.174 64.1635 177.785 66.1046C181.126 76.7029 178.641 86.1754 175.626 95.842C173.467 102.713 171.064 109.624 170.412 117.194C170.371 117.466 170.371 117.737 170.33 118.009C169.719 126.744 171.349 136.372 176.848 143.554C180.596 148.445 186.911 151.008 193.388 152.211C196.729 152.832 200.151 153.065 203.288 153.065C206.832 153.104 210.376 152.832 213.921 152.483C220.235 151.862 226.468 150.969 232.742 150.775C240.157 150.542 247.53 151.396 254.619 153.182C267.696 156.481 279.918 163.12 289.369 172.554C293.484 176.63 297.028 181.25 299.92 186.219C301.02 188.16 302.039 190.14 302.935 192.159C312.753 214.015 310.309 240.647 296.376 260.368" stroke="#AFA4F1" stroke-width="0.2" stroke-miterlimit="10"/>
<path d="M-0.28418 -182.471C19.3112 -182.315 38.6621 -177.773 55.9761 -169.349C72.8828 -161.08 87.9969 -149.006 98.7519 -133.944C106.94 -122.491 112.318 -110.185 114.844 -97.2959C117.247 -85.2224 117.166 -72.9159 114.966 -60.92C113.296 -51.9134 110.485 -43.1009 106.818 -34.4436C105.311 -30.8332 103.641 -27.2616 101.848 -23.69C99.6074 -19.2644 97.0816 -14.2175 95.1669 -8.93778C91.9078 0.0300257 90.156 10.046 95.0039 18.0433C100.178 26.6229 109.955 30.1945 119.814 32.2908C125.68 33.5331 131.628 34.2707 137.006 35.3189C141.854 36.2895 146.376 37.7259 150.572 39.5893C159.982 43.8597 167.519 50.537 172.285 59.5825C173.222 61.2906 174.037 63.1153 174.73 65.0175C178.478 75.3053 176.563 84.7389 173.874 94.4444C171.96 101.355 169.719 108.343 169.108 115.913C169.067 116.184 169.067 116.456 169.067 116.728C168.497 125.502 170.045 135.246 175.585 142.467C179.415 147.475 185.852 150.115 192.492 151.24C195.914 151.823 199.377 152.056 202.595 152.017C206.221 151.978 209.847 151.668 213.432 151.24C219.828 150.503 226.142 149.416 232.497 148.989C239.993 148.484 247.408 148.989 254.578 150.464C267.818 153.182 280.488 159.199 290.387 168.555C294.665 172.592 298.372 177.251 301.387 182.298C302.527 184.239 303.587 186.258 304.524 188.315C314.749 210.521 312.183 237.89 297.72 257.845" stroke="#AFA4F1" stroke-width="0.2" stroke-miterlimit="10"/>
<path d="M-3.91016 -180.879C15.8889 -180.879 35.525 -176.686 53.1649 -168.533C70.3975 -160.575 85.9189 -148.618 96.9999 -133.555C105.392 -122.141 110.892 -109.68 113.377 -96.5192C115.699 -84.2903 115.332 -71.8286 112.766 -59.8327C110.81 -50.826 107.633 -42.13 103.64 -33.5504C101.97 -29.9788 100.218 -26.4072 98.3036 -22.8744C95.9 -18.4488 93.2519 -13.4408 91.215 -8.1222C87.7929 0.806785 85.8375 11.0557 90.6446 19.1306C95.8185 27.749 105.718 31.4371 115.618 33.4558C121.525 34.6593 127.513 35.3193 132.932 36.251C137.82 37.1051 142.383 38.3862 146.579 40.1332C156.112 44.0542 163.852 50.2268 168.985 58.9229C169.963 60.5922 170.859 62.3392 171.633 64.2026C175.789 74.1798 174.444 83.5746 172.082 93.3189C170.411 100.268 168.334 107.333 167.804 114.943C167.804 115.214 167.763 115.486 167.763 115.758C167.274 124.57 168.659 134.392 174.281 141.691C178.233 146.815 184.792 149.494 191.555 150.62C195.058 151.202 198.562 151.357 201.862 151.28C205.569 151.202 209.235 150.814 212.861 150.27C219.339 149.377 225.735 148.096 232.131 147.436C239.667 146.66 247.163 146.854 254.455 147.98C267.899 150.076 280.976 155.511 291.324 164.79C295.765 168.788 299.635 173.486 302.772 178.61C303.994 180.59 305.053 182.648 306.031 184.705C316.664 207.299 313.975 235.367 298.983 255.516" stroke="#AFA4F1" stroke-width="0.2" stroke-miterlimit="10"/>
<path d="M-7.53613 -179.287C12.5074 -179.403 32.3472 -175.599 50.3537 -167.757C67.8714 -160.07 83.8818 -148.268 95.2887 -133.206C103.885 -121.792 109.547 -109.214 111.91 -95.8203C114.151 -83.4362 113.54 -70.8192 110.566 -58.8621C108.325 -49.8555 104.74 -41.2759 100.503 -32.7739C98.7107 -29.2412 96.796 -25.7084 94.7998 -22.1756C92.274 -17.75 89.4223 -12.7808 87.3039 -7.46221C83.7188 1.42795 81.5189 11.871 86.3668 20.0624C91.4999 28.7196 101.562 32.5241 111.462 34.4652C117.41 35.6299 123.398 36.2122 128.898 37.0275C133.787 37.7651 138.39 38.9297 142.668 40.4826C152.282 44.0153 160.226 49.7609 165.726 58.0688C166.785 59.6605 167.763 61.3686 168.619 63.1544C173.141 72.7822 172.367 82.1771 170.37 91.9601C168.944 98.948 166.989 106.091 166.541 113.739C166.541 114.011 166.5 114.283 166.5 114.554C166.052 123.444 167.356 133.344 172.978 140.643C177.011 145.883 183.692 148.64 190.577 149.727C194.121 150.309 197.747 150.426 201.087 150.27C204.835 150.115 208.583 149.649 212.25 149.067C218.809 148.019 225.286 146.543 231.723 145.689C239.341 144.641 246.878 144.486 254.292 145.301C267.94 146.815 281.424 151.629 292.179 160.791C296.824 164.751 300.816 169.487 304.075 174.689C305.338 176.708 306.479 178.765 307.456 180.901C318.456 203.883 315.686 232.611 300.164 253.031" stroke="#AFA4F1" stroke-width="0.2" stroke-miterlimit="10"/>
<path d="M-11.1621 -177.734C9.08509 -178.006 29.2101 -174.551 47.5425 -166.981C65.3454 -159.566 81.8446 -147.919 93.5367 -132.856C102.336 -121.443 108.162 -108.787 110.443 -95.1217C112.602 -82.5822 111.747 -69.8099 108.366 -57.8528C105.799 -48.8462 101.888 -40.3443 97.3254 -31.9588C95.4106 -28.4648 93.3737 -24.9709 91.2146 -21.4769C88.5258 -17.0513 85.5518 -12.1209 83.3112 -6.80234C79.604 2.049 77.1189 12.6861 81.9668 20.994C87.0592 29.69 97.2846 33.5722 107.184 35.5133C113.132 36.6391 119.202 37.1438 124.743 37.8426C129.672 38.4637 134.316 39.5119 138.635 40.9095C148.371 44.0929 156.519 49.3338 162.345 57.2922C163.485 58.8063 164.544 60.4368 165.441 62.1838C170.37 71.501 170.126 80.857 168.496 90.6789C167.315 97.7056 165.522 104.926 165.115 112.613C165.115 112.885 165.074 113.157 165.074 113.428C164.707 122.357 165.889 132.335 171.552 139.711C175.666 145.029 182.47 147.902 189.517 148.95C193.143 149.494 196.81 149.61 200.232 149.416C204.061 149.222 207.85 148.678 211.598 147.98C218.279 146.776 224.797 145.146 231.315 144.02C239.015 142.739 246.592 142.234 254.129 142.739C267.98 143.632 281.913 147.902 293.075 156.947C297.883 160.868 302.038 165.644 305.419 170.884C306.723 172.903 307.904 175.038 308.964 177.174C320.37 200.505 317.478 229.971 301.427 250.585" stroke="#AFA4F1" stroke-width="0.2" stroke-miterlimit="10"/>
<path d="M-14.7871 -176.143C5.70452 -176.57 26.0332 -173.464 44.7323 -166.204C62.8611 -159.1 79.7677 -147.609 91.7857 -132.468C100.789 -121.055 106.737 -108.282 108.977 -94.3841C111.014 -81.6894 109.914 -68.7618 106.166 -56.8047C103.315 -47.7981 99.0372 -39.4126 94.1485 -31.1048C92.1116 -27.6497 89.9524 -24.1945 87.671 -20.7006C84.8193 -16.3137 81.7232 -11.3445 79.3603 -6.02597C75.4901 2.74773 72.8014 13.6178 77.6493 22.0033C82.7009 30.7382 93.0893 34.7368 103.03 36.6002C109.018 37.6872 115.129 38.1143 120.71 38.7354C125.64 39.2789 130.325 40.133 134.724 41.3753C144.542 44.1704 152.935 48.9844 159.127 56.5546C160.308 58.0298 161.449 59.5827 162.468 61.2908C167.764 70.2975 168.13 79.6147 166.827 89.4754C165.89 96.5409 164.26 103.839 163.893 111.565C163.893 111.837 163.853 112.108 163.853 112.38C163.527 121.348 164.586 131.442 170.289 138.818C174.526 144.253 181.452 147.164 188.622 148.213C192.329 148.756 196.036 148.795 199.54 148.562C203.451 148.29 207.28 147.708 211.069 146.931C217.832 145.573 224.431 143.748 230.99 142.428C238.731 140.875 246.43 140.06 254.008 140.215C268.022 140.487 282.403 144.175 293.972 153.143C298.983 157.025 303.261 161.839 306.764 167.158C308.109 169.215 309.331 171.35 310.431 173.563C322.245 197.283 319.23 227.448 302.65 248.295" stroke="#AFA4F1" stroke-width="0.2" stroke-miterlimit="10"/>
<path d="M-18.3721 -174.59C2.32325 -175.172 22.9371 -172.416 41.9214 -165.428C60.3353 -158.595 77.7308 -147.259 90.0339 -132.119C99.2409 -120.705 105.311 -107.816 107.511 -93.6465C109.466 -80.7965 108.122 -67.7136 104.007 -55.7565C100.87 -46.7499 96.2263 -38.442 91.0117 -30.2507C88.8118 -26.8344 86.5304 -23.3792 84.1676 -19.9629C81.1529 -15.5761 77.9345 -10.6457 75.4902 -5.32716C71.457 3.40772 68.5239 14.4719 73.3718 22.9739C78.4234 31.7476 88.934 35.8626 98.8743 37.6484C104.904 38.7355 111.014 39.046 116.677 39.5507C121.647 39.9778 126.373 40.7154 130.773 41.8024C140.713 44.2481 149.268 48.5573 155.827 55.7782C157.09 57.1758 158.312 58.6898 159.371 60.3203C165.075 68.9776 166.012 78.2948 165.034 88.1943C164.342 95.2986 162.875 102.675 162.549 110.439C162.549 110.711 162.508 110.983 162.508 111.254C162.223 120.261 163.201 130.471 168.945 137.886C173.263 143.438 180.311 146.427 187.644 147.436C191.392 147.941 195.222 147.98 198.766 147.708C202.718 147.397 206.628 146.699 210.499 145.844C217.343 144.33 224.024 142.312 230.664 140.759C238.486 138.934 246.227 137.77 253.926 137.614C268.144 137.304 282.932 140.371 294.95 149.261C300.124 153.104 304.565 157.957 308.19 163.353C309.575 165.449 310.838 167.623 311.979 169.836C324.201 193.945 321.064 224.769 303.954 245.888" stroke="#AFA4F1" stroke-width="0.2" stroke-miterlimit="10"/>
<path d="M-21.998 -172.998C-1.05829 -173.735 19.8 -171.367 39.1102 -164.651C57.85 -158.09 75.6936 -146.91 88.2819 -131.769C97.7333 -120.394 103.926 -107.35 106.003 -92.9475C107.877 -79.9423 106.288 -66.7041 101.766 -54.747C98.3037 -45.7404 93.3335 -37.549 87.7931 -29.4352C85.4709 -26.0578 83.0674 -22.6415 80.5823 -19.2251C77.4047 -14.8383 74.0641 -9.94676 71.4975 -4.58937C67.3014 4.10668 64.1645 15.365 68.9717 23.9834C73.9826 32.7959 84.6154 37.0275 94.6372 38.7356C100.707 39.7838 106.859 40.0167 112.562 40.405C117.532 40.7155 122.299 41.2979 126.78 42.2296C136.802 44.2871 145.601 48.1305 152.486 55.0019C153.831 56.3219 155.134 57.7583 156.275 59.35C162.345 67.6966 163.852 77.0138 163.241 86.9522C162.793 94.0953 161.49 101.51 161.204 109.313C161.204 109.585 161.204 109.857 161.164 110.168C160.96 119.213 161.775 129.501 167.6 136.993C172 142.661 179.211 145.689 186.625 146.699C190.455 147.203 194.325 147.203 197.951 146.854C201.984 146.466 205.976 145.728 209.847 144.796C216.813 143.127 223.535 140.953 230.216 139.167C238.119 137.071 245.9 135.596 253.722 135.091C268.144 134.159 283.339 136.644 295.805 145.456C301.142 149.261 305.746 154.152 309.494 159.626C310.92 161.723 312.223 163.936 313.405 166.187C326.034 190.645 322.775 222.207 305.135 243.52" stroke="#AFA4F1" stroke-width="0.2" stroke-miterlimit="10"/>
<path d="M-25.623 -171.406C-4.4796 -172.299 16.6231 -170.28 36.3 -163.836C55.325 -157.586 73.6167 -146.522 86.5309 -131.381C96.186 -120.006 102.541 -106.846 104.537 -92.21C106.33 -79.0495 104.456 -65.656 99.5674 -53.7377C95.8194 -44.7311 90.4826 -36.6174 84.657 -28.6201C82.2126 -25.2814 79.6868 -21.9039 77.0795 -18.5265C73.7389 -14.1396 70.2761 -9.28688 67.5874 -3.92949C63.2691 4.72775 59.847 16.219 64.6949 24.915C69.6651 33.8052 80.4609 38.1144 90.4826 39.7837C96.5934 40.7931 102.786 40.9872 108.489 41.2201C113.5 41.4531 118.307 41.8801 122.829 42.6177C132.973 44.287 141.976 47.7034 149.228 54.2254C150.613 55.5065 151.998 56.8653 153.22 58.3793C159.657 66.4154 161.776 75.6938 161.49 85.671C161.287 92.853 160.105 100.346 159.902 108.188C159.902 108.459 159.902 108.731 159.902 109.042C159.739 118.126 160.472 128.53 166.298 136.023C170.779 141.768 178.112 144.913 185.689 145.883C189.6 146.388 193.511 146.31 197.259 145.922C201.374 145.495 205.407 144.68 209.358 143.671C216.406 141.846 223.21 139.478 229.932 137.459C237.876 135.091 245.738 133.266 253.682 132.451C268.308 130.937 283.951 132.8 296.784 141.497C302.324 145.262 307.05 150.193 310.92 155.744C312.387 157.879 313.731 160.131 314.953 162.421C327.99 187.267 324.568 219.528 306.439 241.074" stroke="#AFA4F1" stroke-width="0.2" stroke-miterlimit="10"/>
<path d="M-29.25 -169.853C-7.86212 -170.901 13.485 -169.232 33.4878 -163.098C52.8387 -157.12 71.5786 -146.211 84.778 -131.032C94.6368 -119.657 101.155 -106.419 103.07 -91.5111C104.781 -78.1953 102.662 -64.6465 97.3663 -52.7283C93.3331 -43.7216 87.5889 -35.7244 81.4781 -27.8048C78.9116 -24.5049 76.2636 -21.1663 73.5341 -17.7888C70.0305 -13.4019 66.4048 -8.58803 63.6345 -3.23064C59.1532 5.38778 55.5275 17.0731 60.3347 25.8856C65.2641 34.8146 76.2228 39.2015 86.2446 40.832C92.3961 41.8025 98.5884 41.919 104.373 42.0354C109.425 42.1519 114.232 42.4625 118.836 43.0448C129.061 44.3647 138.309 47.2764 145.886 53.449C147.353 54.6525 148.819 55.9336 150.123 57.4476C156.926 65.1343 159.656 74.4127 159.697 84.4287C159.737 91.6495 158.719 99.2198 158.556 107.101C158.556 107.372 158.556 107.683 158.556 107.955C158.434 117.078 159.045 127.56 164.952 135.13C169.555 140.992 176.97 144.214 184.71 145.146C188.703 145.612 192.695 145.534 196.484 145.107C200.639 144.602 204.754 143.709 208.746 142.622C215.876 140.643 222.72 138.08 229.564 135.867C237.589 133.228 245.493 131.092 253.518 129.967C268.347 127.831 284.398 129.112 297.679 137.731C303.383 141.458 308.312 146.427 312.264 152.056C313.771 154.23 315.156 156.482 316.419 158.811C329.863 184.045 326.318 216.966 307.66 238.745" stroke="#AFA4F1" stroke-width="0.2" stroke-miterlimit="10"/>
<path d="M-32.876 -168.262C-11.2844 -169.465 10.3072 -168.145 30.6766 -162.283C50.3127 -156.576 69.5414 -145.862 83.0667 -130.644C93.1292 -119.269 99.7696 -105.914 101.644 -90.7737C103.273 -77.3026 100.91 -63.5986 95.2069 -51.6803C90.8478 -42.6737 84.7777 -34.7541 78.341 -26.9509C75.6115 -23.6899 72.8413 -20.39 70.0303 -17.0126C66.3638 -12.6645 62.6158 -7.81182 59.7234 -2.45443C55.0792 6.12516 51.209 18.0046 56.0569 26.9336C60.9863 35.9014 72.0672 40.4047 82.1297 41.9576C88.322 42.8893 94.5551 42.8505 100.381 42.9281C105.432 43.0057 110.321 43.0834 114.924 43.5104C125.272 44.481 134.724 46.8879 142.627 52.7112C144.175 53.837 145.682 55.0793 147.108 56.5157C154.278 63.8918 157.578 73.1314 157.985 83.1862C158.271 90.4458 157.415 98.0937 157.293 106.013C157.293 106.285 157.293 106.596 157.293 106.867C157.252 116.029 157.741 126.628 163.648 134.198C168.333 140.176 175.911 143.437 183.773 144.33C187.806 144.796 191.88 144.68 195.75 144.175C199.987 143.632 204.143 142.661 208.216 141.496C215.427 139.4 222.353 136.644 229.238 134.159C237.345 131.247 245.329 128.802 253.436 127.326C268.428 124.609 284.928 125.308 298.657 133.81C304.564 137.498 309.615 142.506 313.689 148.212C315.237 150.425 316.663 152.716 317.967 155.045C331.818 180.629 328.151 214.287 308.923 236.299" stroke="#AFA4F1" stroke-width="0.2" stroke-miterlimit="10"/>
<path d="M-36.502 -166.709C-14.6659 -168.029 7.17007 -167.097 27.8654 -161.546C47.7867 -156.111 67.5043 -145.551 81.3147 -130.333C91.5809 -118.958 98.3843 -105.487 100.136 -90.0749C101.684 -76.4485 99.0769 -62.5892 92.966 -50.6709C88.3218 -41.6643 81.8851 -33.8611 75.1224 -26.1356C72.2707 -22.9134 69.3783 -19.6136 66.4451 -16.3138C62.6156 -11.9657 58.7454 -7.15183 55.7307 -1.79444C50.9236 6.74633 46.8089 18.8199 51.6569 27.8265C56.5455 36.8331 67.7894 41.4529 77.8519 42.9281C84.085 43.821 90.318 43.7822 96.2251 43.7045C101.317 43.6269 106.206 43.6269 110.891 43.8987C121.32 44.481 131.016 46.4609 139.286 51.8959C140.916 52.9441 142.504 54.1476 143.971 55.5063C151.508 62.5719 155.419 71.7726 156.152 81.8663C156.682 89.1647 155.989 96.8902 155.908 104.849C155.908 105.12 155.908 105.431 155.908 105.703C155.908 114.942 156.315 125.579 162.263 133.227C167.029 139.322 174.729 142.661 182.714 143.515C186.828 143.981 190.943 143.826 194.895 143.282C199.213 142.7 203.409 141.652 207.524 140.371C214.857 138.119 221.823 135.168 228.749 132.49C236.896 129.306 244.963 126.511 253.192 124.725C268.387 121.387 285.294 121.503 299.43 129.927C305.5 133.577 310.715 138.624 314.911 144.369C316.541 146.582 318.007 148.911 319.311 151.318C333.57 177.29 329.781 211.647 310.022 233.892" stroke="#AFA4F1" stroke-width="0.2" stroke-miterlimit="10"/>
<path d="M-40.0859 -165.117C-18.0462 -166.592 4.07496 -166.01 25.0962 -160.73C45.3434 -155.606 65.4684 -145.163 79.6047 -129.945C90.0746 -118.609 97.041 -104.982 98.7113 -89.3371C100.178 -75.5554 97.2854 -61.5407 90.8079 -49.6225C85.8785 -40.6159 79.0751 -32.8904 72.0273 -25.2813C69.0534 -22.0979 65.998 -18.8369 62.9833 -15.5371C58.9909 -11.189 54.9985 -6.41396 51.8616 -1.01775C46.9322 7.4842 42.5731 19.7519 47.4211 28.8749C52.269 37.9204 63.6759 42.6566 73.7384 44.093C80.0121 44.9471 86.2859 44.8306 92.2338 44.6365C97.3261 44.4424 102.296 44.326 107.022 44.4036C117.573 44.6365 127.473 46.1118 136.069 51.1974C137.739 52.2068 139.409 53.3326 140.998 54.6525C148.901 61.4075 153.423 70.5694 154.523 80.7019C155.338 88.0392 154.727 95.8423 154.768 103.84C154.768 104.111 154.768 104.422 154.768 104.694C154.809 113.972 155.094 124.726 161.123 132.374C165.971 138.585 173.834 141.962 181.941 142.817C186.137 143.244 190.333 143.049 194.325 142.467C198.684 141.807 203.003 140.681 207.158 139.361C214.572 136.954 221.62 133.81 228.627 130.898C236.857 127.443 244.964 124.337 253.274 122.202C268.674 118.242 286.028 117.777 300.572 126.123C306.846 129.695 312.183 134.819 316.501 140.643C318.171 142.894 319.679 145.262 321.023 147.669C335.689 174.029 331.778 209.085 311.49 231.524" stroke="#AFA4F1" stroke-width="0.2" stroke-miterlimit="10"/>
<path d="M-43.7119 -163.526C-21.4278 -165.156 0.897089 -164.923 22.285 -159.954C42.8173 -155.101 63.4312 -144.814 77.8527 -129.596C88.5263 -118.26 95.6556 -104.556 97.2444 -88.6387C98.6295 -74.7017 95.4926 -60.5318 88.6485 -48.6524C83.3932 -39.6457 76.2639 -32.0367 68.8902 -24.5053C65.794 -21.3607 62.6164 -18.1385 59.4795 -14.8775C55.3242 -10.5295 51.2095 -5.79322 47.9504 -0.39701C42.8581 8.02729 38.2546 20.5279 43.1025 29.7674C47.9097 38.8517 59.4795 43.6656 69.5827 45.0632C75.8973 45.9172 82.2118 45.7232 88.2004 45.3738C93.3335 45.102 98.3036 44.7914 103.07 44.7526C113.744 44.5973 123.806 45.6067 132.769 50.3429C134.52 51.2746 136.272 52.3228 137.902 53.6039C146.172 60.0483 151.264 69.1714 152.731 79.3427C153.79 86.7577 153.342 94.5996 153.423 102.597C153.423 102.907 153.423 103.179 153.423 103.49C153.545 112.807 153.708 123.638 159.738 131.364C164.708 137.653 172.652 141.147 180.922 141.962C185.159 142.389 189.436 142.156 193.51 141.496C197.951 140.797 202.31 139.594 206.506 138.158C214.002 135.595 221.131 132.295 228.179 129.151C236.49 125.463 244.637 122.008 253.07 119.523C268.673 114.981 286.436 113.894 301.387 122.163C307.823 125.696 313.323 130.859 317.764 136.76C319.475 139.05 321.023 141.419 322.408 143.864C337.481 170.574 333.448 206.328 312.631 229.039" stroke="#AFA4F1" stroke-width="0.2" stroke-miterlimit="10"/>
<path d="M-47.3369 -161.973C-24.8083 -163.759 -2.23903 -163.875 19.4748 -159.178C40.3331 -154.597 61.395 -144.464 76.1017 -129.207C86.979 -117.871 94.2713 -104.051 95.7786 -87.9011C97.123 -73.8088 93.7009 -59.4836 86.4494 -47.6042C80.9089 -38.5588 73.413 -31.105 65.7133 -23.6512C62.4542 -20.5455 59.1951 -17.3621 55.936 -14.1011C51.6177 -9.79189 47.3809 -5.05564 44.0403 0.340575C38.8257 8.72606 33.9778 21.4596 38.8257 30.7768C43.6329 39.9387 55.325 44.8302 65.4282 46.1502C71.7834 46.9654 78.098 46.6937 84.168 46.2278C89.3419 45.8396 94.3527 45.4126 99.1599 45.1796C109.915 44.6749 120.222 45.2184 129.551 49.5665C131.384 50.4205 133.218 51.4299 134.929 52.6334C143.565 58.7672 149.269 67.8515 151.061 78.0616C152.365 85.5153 152.08 93.3962 152.202 101.471C152.202 101.782 152.202 102.053 152.202 102.364C152.365 111.72 152.406 122.668 158.516 130.432C163.568 136.838 171.675 140.37 180.067 141.186C184.386 141.613 188.704 141.341 192.859 140.642C197.381 139.905 201.781 138.623 206.059 137.109C213.677 134.392 220.847 130.898 227.935 127.52C236.287 123.561 244.516 119.756 253.071 117C268.878 111.836 287.047 110.167 302.447 118.32C309.046 121.814 314.709 127.016 319.272 132.994C321.024 135.285 322.612 137.731 324.038 140.215C339.519 167.313 335.364 203.766 314.017 226.671" stroke="#AFA4F1" stroke-width="0.2" stroke-miterlimit="10"/>
<path d="M-50.9639 -160.381C-28.2316 -162.322 -5.41786 -162.827 16.6218 -158.401C37.7653 -154.131 59.2754 -144.154 74.308 -128.858C85.389 -117.522 92.8442 -103.585 94.2293 -87.1635C95.4922 -72.9159 91.785 -58.4355 84.1668 -46.556C78.3412 -37.5106 70.4378 -30.1345 62.453 -22.7972C59.0717 -19.6914 55.6496 -16.5857 52.3091 -13.3247C47.8278 -9.01546 43.4687 -4.27921 40.0059 1.117C34.6284 9.46366 29.5361 22.3913 34.384 31.8249C39.1504 41.0257 51.0054 46.0337 61.1494 47.276C67.5046 48.0524 73.9006 47.703 80.0115 47.1207C85.1853 46.616 90.2369 46.0725 95.1256 45.6843C106.003 44.8302 116.513 44.869 126.169 48.8677C128.083 49.6441 129.957 50.6146 131.75 51.7404C140.753 57.5637 147.068 66.6091 149.186 76.8581C150.734 84.3507 150.612 92.3091 150.775 100.423C150.775 100.733 150.775 101.005 150.816 101.316C151.019 110.711 150.979 121.775 157.089 129.539C162.222 136.061 170.452 139.672 178.966 140.448C183.366 140.836 187.725 140.564 191.962 139.788C196.525 138.973 201.006 137.614 205.324 136.022C213.024 133.15 220.275 129.461 227.445 125.89C235.878 121.658 244.148 117.543 252.826 114.437C268.795 108.692 287.454 106.44 303.26 114.476C310.064 117.931 315.849 123.172 320.534 129.229C322.326 131.558 323.956 134.004 325.422 136.527C341.31 163.974 337.033 201.165 315.156 224.303" stroke="#AFA4F1" stroke-width="0.2" stroke-miterlimit="10"/>
<path d="M-54.5889 -158.828C-31.6122 -160.925 -8.55401 -161.779 13.8116 -157.625C35.2402 -153.626 57.2392 -143.804 72.557 -128.509C83.8416 -117.211 91.4598 -103.158 92.7634 -86.4647C93.9449 -72.023 89.9932 -57.4261 81.9676 -45.5466C75.8161 -36.5012 67.5868 -29.2415 59.2761 -21.9819C55.7726 -18.915 52.2283 -15.8481 48.7655 -12.6259C44.1213 -8.31666 39.64 -3.61924 36.055 1.77697C30.5145 10.0848 25.2185 23.2065 30.0664 32.7178C34.7921 41.9574 46.81 47.0819 56.954 48.2853C63.35 49.023 69.7867 48.5959 75.9383 47.8971C81.1529 47.3148 86.2452 46.616 91.1746 46.0337C102.133 44.7914 112.888 44.3644 122.869 48.0136C124.825 48.7512 126.821 49.6053 128.695 50.7311C138.065 56.2438 144.991 65.2504 147.435 75.5381C149.227 83.0695 149.268 91.1056 149.472 99.2582C149.472 99.5688 149.472 99.8405 149.513 100.151C149.798 109.585 149.594 120.727 155.786 128.569C161.042 135.207 169.352 138.895 178.03 139.633C182.47 140.021 186.952 139.672 191.229 138.856C195.873 138.002 200.395 136.566 204.754 134.896C212.536 131.868 219.869 128.025 227.079 124.182C235.594 119.678 243.945 115.214 252.663 111.798C268.837 105.431 287.902 102.597 304.116 110.555C311.083 113.972 317.031 119.251 321.838 125.385C323.671 127.753 325.341 130.238 326.849 132.8C343.144 160.635 338.704 198.486 316.338 221.896" stroke="#AFA4F1" stroke-width="0.2" stroke-miterlimit="10"/>
<path d="M-58.2158 -157.236C-35.0354 -159.488 -11.6921 -160.691 10.9994 -156.848C32.754 -153.121 55.2011 -143.455 70.8448 -128.159C82.3739 -116.862 90.0735 -102.692 91.3364 -85.7656C92.4363 -71.1686 88.2402 -56.4164 79.8073 -44.537C73.3706 -35.4915 64.7747 -28.3095 56.1788 -21.1663C52.553 -18.1382 48.8865 -15.1101 45.3015 -11.8879C40.4943 -7.57873 35.8909 -2.92012 32.1836 2.51491C26.5209 10.7839 20.9397 24.0998 25.7876 33.7276C30.4726 43.0059 42.6128 48.2469 52.7975 49.3727C59.2342 50.0715 65.671 49.6056 71.904 48.7904C77.1186 48.0916 82.2516 47.2375 87.2218 46.4999C98.3027 44.9082 109.261 43.9765 119.568 47.2763C121.605 47.9363 123.642 48.7515 125.598 49.7997C135.334 55.0018 142.83 64.0085 145.641 74.335C147.678 81.9052 147.841 90.019 148.126 98.2104C148.126 98.5209 148.167 98.7927 148.167 99.1032C148.493 108.576 148.208 119.834 154.441 127.676C159.778 134.392 168.251 138.158 177.051 138.895C181.573 139.284 186.095 138.895 190.454 138.041C195.18 137.11 199.783 135.634 204.183 133.849C212.086 130.665 219.46 126.628 226.752 122.552C235.307 117.776 243.74 113.001 252.581 109.236C268.958 102.248 288.431 98.8315 305.093 106.712C312.263 110.09 318.333 115.408 323.263 121.62C325.136 123.988 326.848 126.511 328.396 129.112C345.099 157.336 340.536 195.886 317.641 219.489" stroke="#AFA4F1" stroke-width="0.2" stroke-miterlimit="10"/>
<path d="M-61.8408 -155.645C-38.416 -158.052 -14.869 -159.604 8.18922 -156.033C30.2289 -152.578 53.1649 -143.066 69.0938 -127.771C80.8265 -116.474 88.6891 -102.187 89.8706 -85.028C90.889 -70.2758 86.4077 -55.3683 77.6082 -43.5277C70.8863 -34.4822 61.9237 -27.4167 53.0019 -20.3511C49.2132 -17.3618 45.4245 -14.3337 41.758 -11.1892C36.7879 -6.91881 32.0622 -2.26021 28.2327 3.17483C22.4071 11.405 16.5814 24.915 21.4293 34.6592C26.1143 43.9764 38.3767 49.295 48.6021 50.382C55.0796 51.042 61.5571 50.4985 67.8308 49.5667C73.0861 48.7903 78.26 47.7809 83.2709 46.888C94.4333 44.9081 105.636 43.5106 116.31 46.461C118.428 47.0433 120.547 47.8198 122.584 48.7903C132.687 53.6818 140.835 62.6496 143.931 73.015C146.253 80.6241 146.538 88.8155 146.864 97.0457C146.864 97.3562 146.905 97.6668 146.905 97.9386C147.272 107.489 146.905 118.786 153.138 126.705C158.556 133.538 167.152 137.381 176.115 138.08C180.718 138.43 185.281 138.041 189.762 137.11C194.529 136.139 199.214 134.586 203.654 132.723C211.639 129.384 219.094 125.153 226.427 120.882C235.064 115.835 243.537 110.75 252.5 106.635C269.081 99.0644 288.961 95.0269 306.031 102.83C313.364 106.169 319.597 111.526 324.648 117.815C326.563 120.222 328.315 122.784 329.904 125.385C347.014 153.958 342.329 193.246 318.904 217.082" stroke="#AFA4F1" stroke-width="0.2" stroke-miterlimit="10"/>
<path d="M-65.4258 -154.092C-41.7973 -156.654 -17.9651 -158.556 5.41903 -155.295C27.7846 -152.151 51.128 -142.795 67.3828 -127.421C79.3193 -116.124 87.3448 -101.721 88.4448 -84.3292C89.3818 -69.4217 84.656 -54.3589 75.4898 -42.5183C68.4827 -33.4728 59.1535 -26.4849 49.9058 -19.5358C45.9949 -16.5854 42.084 -13.5961 38.2953 -10.4515C33.1622 -6.18116 28.3143 -1.52256 24.3626 3.87365C18.4147 12.065 12.3446 25.7691 17.1925 35.6298C21.8368 44.9858 34.2621 50.4208 44.4876 51.4302C51.0058 52.0902 57.4832 51.4302 63.8385 50.382C69.1345 49.4891 74.3084 48.3633 79.4007 47.2763C90.6854 44.947 102.092 43.0447 113.092 45.6458C115.292 46.1504 117.451 46.8881 119.569 47.8198C130.039 52.4008 138.757 61.3297 142.22 71.7339C144.787 79.3818 145.235 87.6508 145.601 95.881C145.601 96.1916 145.642 96.5022 145.642 96.7739C146.09 106.363 145.561 117.776 151.875 125.735C157.375 132.684 166.134 136.566 175.178 137.226C179.863 137.576 184.507 137.148 189.029 136.178C193.877 135.13 198.603 133.499 203.125 131.558C211.191 128.103 218.728 123.677 226.101 119.135C234.819 113.817 243.334 108.382 252.419 103.956C269.162 95.7646 289.532 91.1448 307.009 98.8315C314.504 102.131 320.9 107.528 326.074 113.855C328.071 116.301 329.863 118.863 331.452 121.542C348.97 150.503 344.162 190.489 320.208 214.52" stroke="#AFA4F1" stroke-width="0.2" stroke-miterlimit="10"/>
<path d="M-69.0518 -152.5C-45.1788 -155.179 -21.1429 -157.469 2.60783 -154.48C25.2586 -151.607 49.0908 -142.407 65.6308 -127.033C77.771 -115.736 85.9595 -101.256 86.9372 -83.5529C87.7927 -68.4901 82.8226 -53.272 73.2489 -41.4313C65.916 -32.3859 56.2609 -25.5145 46.6872 -18.643C42.6541 -15.7314 38.5802 -12.781 34.71 -9.67522C29.414 -5.44365 24.4438 -0.785043 20.37 4.64999C14.2999 12.8414 7.94461 26.7395 12.7925 36.6779C17.396 46.0727 29.9843 51.6242 40.2098 52.5948C46.7687 53.2159 53.2869 52.5171 59.6829 51.3137C64.979 50.3431 70.2343 49.0232 75.3674 47.8197C86.7335 45.1022 98.3848 42.7341 109.71 44.9857C111.951 45.4128 114.232 46.0727 116.432 46.9656C127.269 51.2748 136.598 60.1262 140.387 70.5692C143.197 78.2559 143.809 86.6026 144.216 94.8716C144.216 95.1822 144.257 95.4927 144.257 95.8033C144.746 105.431 144.135 116.922 150.49 124.92C156.112 131.985 164.952 135.945 174.159 136.566C178.885 136.877 183.61 136.411 188.214 135.401C193.143 134.314 197.91 132.606 202.472 130.588C210.62 126.977 218.198 122.357 225.694 117.621C234.452 112.031 243.048 106.285 252.215 101.549C269.162 92.7752 289.939 87.5731 307.864 95.1433C315.563 98.4043 322.082 103.839 327.378 110.245C329.415 112.691 331.248 115.331 332.877 118.009C350.803 147.358 345.873 188.005 321.389 212.307" stroke="#AFA4F1" stroke-width="0.2" stroke-miterlimit="10"/>
<path d="M-72.6768 -150.947C-48.6001 -153.781 -24.279 -156.421 -0.202376 -153.743C22.7743 -151.141 47.0547 -142.096 63.8798 -126.723C76.2237 -115.464 84.5344 -100.829 85.4714 -82.8929C86.2454 -67.6748 80.9901 -52.3015 71.0498 -40.4608C63.4317 -31.4154 53.3692 -24.6216 43.5104 -17.8666C39.355 -14.9938 35.1589 -12.0822 31.1665 -8.97644C25.7075 -4.74488 20.6152 -0.125105 16.4598 5.30993C10.2268 13.4237 3.66781 27.5548 8.51573 37.6096C13.0785 47.0821 25.8297 52.7112 36.0959 53.6041C42.6956 54.1864 49.2546 53.41 55.6913 52.09C61.0281 51.003 66.2834 49.5666 71.4572 48.169C82.9456 45.1021 94.8006 42.2293 106.493 44.1316C108.815 44.5198 111.137 45.1021 113.418 45.9174C124.621 49.9548 134.562 58.7285 138.676 69.2104C141.732 76.9359 142.465 85.3214 142.995 93.6681C142.995 93.9786 143.035 94.2892 143.035 94.5998C143.606 104.266 142.832 115.874 149.228 123.91C154.931 131.092 163.894 135.091 173.264 135.712C178.071 136.023 182.837 135.518 187.522 134.431C192.492 133.305 197.34 131.519 201.984 129.384C210.254 125.618 217.873 120.804 225.409 115.835C234.25 109.973 242.927 103.917 252.175 98.8313C269.326 89.4365 290.51 83.6521 308.842 91.1446C316.705 94.3668 323.386 99.8407 328.804 106.324C330.882 108.809 332.756 111.448 334.426 114.166C352.759 143.864 347.707 185.248 322.694 209.784" stroke="#AFA4F1" stroke-width="0.2" stroke-miterlimit="10"/>
<path d="M-76.3037 -149.355C-51.9826 -152.345 -27.4171 -155.334 -3.01457 -152.927C37.2761 -148.928 82.0073 -125.131 84.0035 -82.1551C84.6961 -66.7818 79.1964 -51.2531 68.8487 -39.4513C60.9454 -30.4058 50.5162 -23.7285 40.3723 -17.0512C30.1876 -10.3738 19.9621 -3.38595 12.5069 6.00889C6.11091 14.0838 -0.692465 28.409 4.15545 38.5415C8.7182 48.0528 21.5917 53.7984 31.8579 54.6136C43.9573 55.623 55.853 52.0126 67.4636 48.5574C79.0742 45.1023 91.0921 41.7637 103.151 43.3165C117.328 45.1411 131.505 55.2348 136.883 67.9295C140.305 75.9656 141.16 84.7781 141.69 93.4741C142.301 103.18 141.445 114.904 147.882 122.94C153.667 130.199 162.792 134.315 172.285 134.897C182.347 135.518 192.328 132.529 201.372 128.297C219.542 119.756 234.656 106.246 252.01 96.2693C269.365 86.2921 290.957 79.8865 309.737 87.3015C320.859 91.6883 329.699 100.54 335.892 110.517C354.632 140.604 349.458 182.686 323.914 207.416" stroke="#AFA4F1" stroke-width="0.2" stroke-miterlimit="10"/>
</g>
<defs>
<clipPath id="clip0_283_1523">
<rect width="358" height="219" fill="white"/>
</clipPath>
</defs>
</svg>
