<svg width="173" height="274" viewBox="0 0 173 274" fill="none" xmlns="http://www.w3.org/2000/svg">
<path d="M171.967 1L113.252 94.3493V179.63L171.967 272.869" stroke="#AFA4F1" stroke-width="0.4" stroke-linecap="round" stroke-linejoin="round"/>
<path d="M171.934 46.3704L126.657 94.3495L126.658 179.629L171.932 227.726" stroke="#AFA4F1" stroke-width="0.4" stroke-linecap="round" stroke-linejoin="round"/>
<path d="M171.934 91.666L166.869 94.3494L166.87 179.629L171.932 182.318" stroke="#AFA4F1" stroke-width="0.4" stroke-linecap="round" stroke-linejoin="round"/>
<path d="M43.6064 1L73.0412 94.3493L73.0404 179.628L43.7168 272.869" stroke="#AFA4F1" stroke-width="0.4" stroke-linecap="round" stroke-linejoin="round"/>
<path d="M171.932 69.0215L140.06 94.3494L140.06 179.629L171.931 205.019" stroke="#AFA4F1" stroke-width="0.4" stroke-linecap="round" stroke-linejoin="round"/>
<path d="M1.00452 46.4785L46.2332 94.3494L46.2324 179.629L1.00293 227.622" stroke="#AFA4F1" stroke-width="0.4" stroke-linecap="round" stroke-linejoin="round"/>
<path d="M1.00098 69.0825L32.8251 94.3497V179.63L1.00177 204.959" stroke="#AFA4F1" stroke-width="0.4" stroke-linecap="round" stroke-linejoin="round"/>
<path d="M1.00098 82.6479L19.4213 94.3495V179.63L1.00256 191.359" stroke="#AFA4F1" stroke-width="0.4" stroke-linecap="round" stroke-linejoin="round"/>
<path d="M1 91.6935L6.01635 94.3496V179.63L1.00238 182.291" stroke="#AFA4F1" stroke-width="0.4" stroke-linecap="round" stroke-linejoin="round"/>
<path d="M129.178 1L99.8496 94.3493V179.63L129.071 272.869" stroke="#AFA4F1" stroke-width="0.4" stroke-linecap="round" stroke-linejoin="round"/>
<path d="M171.932 82.6084L153.463 94.3495L153.464 179.629L171.93 191.397" stroke="#AFA4F1" stroke-width="0.4" stroke-linecap="round" stroke-linejoin="round"/>
<path d="M86.391 1L86.444 94.3493V178.467L86.3926 272.869" stroke="#AFA4F1" stroke-width="0.4" stroke-linecap="round" stroke-linejoin="round"/>
<path d="M1.04004 1L59.6367 94.3493L59.6359 179.629L1.04004 272.869" stroke="#AFA4F1" stroke-width="0.4" stroke-linecap="round" stroke-linejoin="round"/>
<path d="M171.967 86.8013H1.03906" stroke="#AFA4F1" stroke-width="0.4" stroke-linecap="round" stroke-linejoin="round"/>
<path d="M171.967 81.9252H1.03906" stroke="#AFA4F1" stroke-width="0.4" stroke-linecap="round" stroke-linejoin="round"/>
<path d="M171.967 68.6442H1.03906" stroke="#AFA4F1" stroke-width="0.4" stroke-linecap="round" stroke-linejoin="round"/>
<path d="M171.967 29.8704H1.03906" stroke="#AFA4F1" stroke-width="0.4" stroke-linecap="round" stroke-linejoin="round"/>
<path d="M171.967 59.269H1.03906" stroke="#AFA4F1" stroke-width="0.4" stroke-linecap="round" stroke-linejoin="round"/>
<path d="M171.967 76.0006H1.03906" stroke="#AFA4F1" stroke-width="0.4" stroke-linecap="round" stroke-linejoin="round"/>
<path d="M171.967 90.8826H1.03906" stroke="#AFA4F1" stroke-width="0.4" stroke-linecap="round" stroke-linejoin="round"/>
<path d="M171.967 46.9084H1.03906" stroke="#AFA4F1" stroke-width="0.4" stroke-linecap="round" stroke-linejoin="round"/>
<path d="M171.932 214.805H1.00293" stroke="#AFA4F1" stroke-width="0.4" stroke-linecap="round" stroke-linejoin="round"/>
<path d="M171.932 205.403H1.00293" stroke="#AFA4F1" stroke-width="0.4" stroke-linecap="round" stroke-linejoin="round"/>
<path d="M171.932 198.027H1.00293" stroke="#AFA4F1" stroke-width="0.4" stroke-linecap="round" stroke-linejoin="round"/>
<path d="M171.932 227.199H1.00293" stroke="#AFA4F1" stroke-width="0.4" stroke-linecap="round" stroke-linejoin="round"/>
<path d="M171.932 192.087H1.00293" stroke="#AFA4F1" stroke-width="0.4" stroke-linecap="round" stroke-linejoin="round"/>
<path d="M171.932 187.199H1.00293" stroke="#AFA4F1" stroke-width="0.4" stroke-linecap="round" stroke-linejoin="round"/>
<path d="M171.932 183.106H1.00293" stroke="#AFA4F1" stroke-width="0.4" stroke-linecap="round" stroke-linejoin="round"/>
<path d="M171.932 244.285H1.00293" stroke="#AFA4F1" stroke-width="0.4" stroke-linecap="round" stroke-linejoin="round"/>
<path d="M171.932 179.63H1.00293" stroke="#AFA4F1" stroke-width="0.4" stroke-linecap="round" stroke-linejoin="round"/>
<path d="M1.0791 94.3491H172" stroke="#AFA4F1" stroke-width="0.4" stroke-linecap="round" stroke-linejoin="round"/>
<path d="M1.0791 115.668H172" stroke="#AFA4F1" stroke-width="0.4" stroke-linecap="round" stroke-linejoin="round"/>
<path d="M1.0791 136.988H172" stroke="#AFA4F1" stroke-width="0.4" stroke-linecap="round" stroke-linejoin="round"/>
<path d="M1.0791 158.307H172" stroke="#AFA4F1" stroke-width="0.4" stroke-linecap="round" stroke-linejoin="round"/>
<mask id="mask0_283_1292" style="mask-type:luminance" maskUnits="userSpaceOnUse" x="1" y="272" width="171" height="1">
<path fill-rule="evenodd" clip-rule="evenodd" d="M1.03906 272.658H171.747V272.921H1.03906V272.658Z" fill="white"/>
</mask>
<g mask="url(#mask0_283_1292)">
<path d="M171.747 272.869H1.03906" stroke="#AFA4F1" stroke-width="0.4" stroke-linecap="round" stroke-linejoin="round"/>
</g>
</svg>
