<svg width="323" height="300" viewBox="0 0 323 300" fill="none" xmlns="http://www.w3.org/2000/svg">
<g clip-path="url(#clip0_223_895)">
<path d="M322.939 0L212.032 103.031V197.156L322.939 300.065" stroke="#AFA4F1" stroke-width="0.4" stroke-linecap="round" stroke-linejoin="round"/>
<path d="M322.874 50.0758L237.351 103.031L237.353 197.155L322.871 250.24" stroke="#AFA4F1" stroke-width="0.4" stroke-linecap="round" stroke-linejoin="round"/>
<path d="M322.873 100.069L313.307 103.031L313.308 197.154L322.87 200.122" stroke="#AFA4F1" stroke-width="0.4" stroke-linecap="round" stroke-linejoin="round"/>
<path d="M80.4785 0L136.078 103.031L136.076 197.153L80.687 300.065" stroke="#AFA4F1" stroke-width="0.4" stroke-linecap="round" stroke-linejoin="round"/>
<path d="M322.873 75.076L262.669 103.031L262.67 197.155L322.87 225.178" stroke="#AFA4F1" stroke-width="0.4" stroke-linecap="round" stroke-linejoin="round"/>
<path d="M0.0078826 50.1951L85.4398 103.031L85.4383 197.154L0.00488281 250.125" stroke="#AFA4F1" stroke-width="0.4" stroke-linecap="round" stroke-linejoin="round"/>
<path d="M0.00195312 75.1433L60.1142 103.031V197.156L0.00345302 225.112" stroke="#AFA4F1" stroke-width="0.4" stroke-linecap="round" stroke-linejoin="round"/>
<path d="M0.00146484 90.1158L34.7955 103.031V197.156L0.00446463 210.102" stroke="#AFA4F1" stroke-width="0.4" stroke-linecap="round" stroke-linejoin="round"/>
<path d="M0 100.099L9.47533 103.031V197.156L0.00449968 200.093" stroke="#AFA4F1" stroke-width="0.4" stroke-linecap="round" stroke-linejoin="round"/>
<path d="M242.113 0L186.714 103.031V197.156L241.911 300.065" stroke="#AFA4F1" stroke-width="0.4" stroke-linecap="round" stroke-linejoin="round"/>
<path d="M322.873 90.0721L287.987 103.031L287.99 197.155L322.87 210.144" stroke="#AFA4F1" stroke-width="0.4" stroke-linecap="round" stroke-linejoin="round"/>
<path d="M161.296 0L161.396 103.031V195.873L161.299 300.065" stroke="#AFA4F1" stroke-width="0.4" stroke-linecap="round" stroke-linejoin="round"/>
<path d="M0.0756836 0L110.758 103.031L110.757 197.155L0.0756836 300.065" stroke="#AFA4F1" stroke-width="0.4" stroke-linecap="round" stroke-linejoin="round"/>
<path d="M322.939 94.6999H0.0751953" stroke="#AFA4F1" stroke-width="0.4" stroke-linecap="round" stroke-linejoin="round"/>
<path d="M322.939 89.318H0.0751953" stroke="#AFA4F1" stroke-width="0.4" stroke-linecap="round" stroke-linejoin="round"/>
<path d="M322.939 74.6598H0.0751953" stroke="#AFA4F1" stroke-width="0.4" stroke-linecap="round" stroke-linejoin="round"/>
<path d="M322.939 31.8647H0.0751953" stroke="#AFA4F1" stroke-width="0.4" stroke-linecap="round" stroke-linejoin="round"/>
<path d="M322.939 64.3122H0.0751953" stroke="#AFA4F1" stroke-width="0.4" stroke-linecap="round" stroke-linejoin="round"/>
<path d="M322.939 82.779H0.0751953" stroke="#AFA4F1" stroke-width="0.4" stroke-linecap="round" stroke-linejoin="round"/>
<path d="M322.939 99.2045H0.0751953" stroke="#AFA4F1" stroke-width="0.4" stroke-linecap="round" stroke-linejoin="round"/>
<path d="M322.939 50.6697H0.0751953" stroke="#AFA4F1" stroke-width="0.4" stroke-linecap="round" stroke-linejoin="round"/>
<path d="M322.871 235.979H0.00488281" stroke="#AFA4F1" stroke-width="0.4" stroke-linecap="round" stroke-linejoin="round"/>
<path d="M322.871 225.602H0.00488281" stroke="#AFA4F1" stroke-width="0.4" stroke-linecap="round" stroke-linejoin="round"/>
<path d="M322.871 217.462H0.00488281" stroke="#AFA4F1" stroke-width="0.4" stroke-linecap="round" stroke-linejoin="round"/>
<path d="M322.871 249.658H0.00488281" stroke="#AFA4F1" stroke-width="0.4" stroke-linecap="round" stroke-linejoin="round"/>
<path d="M322.871 210.905H0.00488281" stroke="#AFA4F1" stroke-width="0.4" stroke-linecap="round" stroke-linejoin="round"/>
<path d="M322.871 205.51H0.00488281" stroke="#AFA4F1" stroke-width="0.4" stroke-linecap="round" stroke-linejoin="round"/>
<path d="M322.871 200.992H0.00488281" stroke="#AFA4F1" stroke-width="0.4" stroke-linecap="round" stroke-linejoin="round"/>
<path d="M322.871 268.517H0.00488281" stroke="#AFA4F1" stroke-width="0.4" stroke-linecap="round" stroke-linejoin="round"/>
<path d="M322.871 197.156H0.00488281" stroke="#AFA4F1" stroke-width="0.4" stroke-linecap="round" stroke-linejoin="round"/>
<path d="M0.149414 103.03H323" stroke="#AFA4F1" stroke-width="0.4" stroke-linecap="round" stroke-linejoin="round"/>
<path d="M0.149414 126.561H323" stroke="#AFA4F1" stroke-width="0.4" stroke-linecap="round" stroke-linejoin="round"/>
<path d="M0.149414 150.091H323" stroke="#AFA4F1" stroke-width="0.4" stroke-linecap="round" stroke-linejoin="round"/>
<path d="M0.149414 173.621H323" stroke="#AFA4F1" stroke-width="0.4" stroke-linecap="round" stroke-linejoin="round"/>
<mask id="mask0_223_895" style="mask-type:luminance" maskUnits="userSpaceOnUse" x="0" y="299" width="323" height="2">
<path fill-rule="evenodd" clip-rule="evenodd" d="M0.0751953 299.832H322.524V300.123H0.0751953V299.832Z" fill="white"/>
</mask>
<g mask="url(#mask0_223_895)">
<path d="M322.524 300.064H0.074707" stroke="#AFA4F1" stroke-width="0.4" stroke-linecap="round" stroke-linejoin="round"/>
</g>
</g>
<defs>
<clipPath id="clip0_223_895">
<rect width="323" height="300" fill="white"/>
</clipPath>
</defs>
</svg>
