<svg width="16" height="16" viewBox="0 0 16 16" fill="none" xmlns="http://www.w3.org/2000/svg">
<rect width="16" height="16" rx="2" fill="#F7F3F0"/>
<path d="M6.96582 4.08191C7.44603 3.9533 7.97223 3.99867 8.45996 4.06531L11.2783 9.06726C11.2928 9.16128 11.2743 9.12775 11.2051 9.1366C11.0236 9.15982 10.8731 9.09288 10.7051 9.08679C9.37891 9.04113 8.04104 9.12508 6.71387 9.08874C6.64924 9.03498 7.48158 7.89704 7.6416 7.83093H8.92188L7.81152 5.85632L7.61914 5.7821L4.65625 10.9999H3L6.96582 4.08191ZM12.333 10.9999H10.2002C9.68142 10.6216 9.07714 10.3499 8.58398 9.94128C8.55033 9.91398 8.48796 9.94513 8.51953 9.83484H11.7314L12.333 10.9999Z" fill="#121CD6"/>
</svg>
